<svg width="70" height="70" viewBox="0 0 70 70" fill="none" xmlns="http://www.w3.org/2000/svg"><path d="M35 24.906c-5.595 0-10.14 4.553-10.14 10.14 0 5.587 4.553 10.14 10.14 10.14 5.587 0 10.14-4.553 10.14-10.14 0-5.587-4.545-10.14-10.14-10.14zm5.085 7.71l-6.12 5.771a.595.595 0 01-.424.17.601.601 0 01-.44-.185L29.9 35.085a.617.617 0 01.88-.865l2.778 2.855 5.68-5.355a.617.617 0 11.848.895z" fill="#1E7243"/><path d="M49.562 38.743L52 35.047l-2.438-3.697a.624.624 0 01-.1-.37l.246-4.43-3.943-1.998a.61.61 0 01-.27-.27l-1.991-3.943-4.43.247a.622.622 0 01-.37-.1L35 18.045l-3.697 2.44a.622.622 0 01-.37.1l-4.43-.247-1.998 3.943a.61.61 0 01-.27.27l-3.943 1.99.247 4.43a.625.625 0 01-.1.37L18 35.048l2.439 3.696a.63.63 0 01.1.37l-.247 4.43 3.943 1.99a.61.61 0 01.27.271l1.991 3.943 4.43-.247h.03a.66.66 0 01.34.1l3.696 2.44 3.697-2.44a.625.625 0 01.37-.1l4.43.247 1.99-3.943a.61.61 0 01.27-.27l3.944-1.991-.247-4.43a.777.777 0 01.116-.37zM35 46.421c-6.274 0-11.375-5.1-11.375-11.374 0-6.274 5.101-11.375 11.375-11.375s11.374 5.101 11.374 11.375c0 6.273-5.1 11.374-11.374 11.374z" fill="#1E7243"/><circle cx="35" cy="35" r="34.5" stroke="#C7D0D9"/></svg>