<svg width="70" height="70" viewBox="0 0 70 70" fill="none" xmlns="http://www.w3.org/2000/svg"><circle cx="35" cy="35" r="34.5" stroke="#C7D0D9"/><path d="M25.657 16.408c.673-.469 1.3-.907 1.863-1.313 2.676 2.69 5.32 5.348 8.06 8.068a476.45 476.45 0 01-2.52 3.55c1.47.532 2.597.172 3.16-1h1.863c.094 0 .203.015.344.046v6.943h-2.269c-.188-.97-.907-1.141-1.8-1.126-1.408.032-2.816-.015-4.225.032-.297.015-.657.218-.876.453-.36.375-.61.845-.94 1.251-1.282 1.595-3.583 1.892-5.054.485-2.207-2.08-4.32-4.238-6.416-6.411-.877-.907-1.018-2.064-.72-3.284.078-.297.047-.72-.11-.985-1.705-2.659-1.22-6.005 1.143-7.85 2.425-1.908 5.915-1.627 8.075.657.14.14.266.312.422.484zm-7.59 5.426c1.91-1.36 3.756-2.69 5.603-4.018a3.505 3.505 0 00-4.836-.876c-1.58 1.079-1.925 3.19-.767 4.894zM55 49.184V54H15.031v-4.816c.986 0 1.988-.032 2.99.015 1.47.063 2.77-.375 3.974-1.173 2.363-1.563 4.71-1.579 7.074 0 1.174.782 2.457 1.22 3.897 1.173a54.41 54.41 0 013.912 0c1.408.047 2.676-.36 3.834-1.126 2.441-1.642 4.851-1.626 7.293 0 1.158.766 2.41 1.189 3.834 1.126 1.033-.047 2.081-.015 3.161-.015zM36.142 37.536c4.304-.579 7.575 2.658 7.027 6.865-3.49.703-7.574-2.049-7.027-6.865zm9.5 6.894c-.705-4.112 2.738-7.536 6.885-6.895.736 4.08-2.738 7.552-6.885 6.896zm-21.331.03c-4.46.343-7.417-2.628-6.932-6.912 4.022-.798 7.402 2.549 6.932 6.911zm2.457-.013c-.375-4.44 2.567-7.365 6.902-6.927.704 3.721-2.3 7.537-6.902 6.927zM40.837 30.37v-2.221c3.521-.39 7.355 3.393 7.011 6.927h-2.206c-.36-2.799-1.972-4.363-4.805-4.707z" fill="#1E7243"/></svg>