<svg width="24" height="30" viewBox="0 0 24 30" fill="none" xmlns="http://www.w3.org/2000/svg"><path d="M16.511.516v6.516h6.517L16.511.516z" fill="#1E7243"/><path d="M15.632 8.79a.88.88 0 01-.879-.88V0H1.277a.879.879 0 00-.879.879V29.12a.88.88 0 00.88.879h21.387a.879.879 0 00.878-.879V8.79h-7.911zM3.984 5.157A2.685 2.685 0 016.46 3.515a2.692 2.692 0 012.69 2.689 2.693 2.693 0 01-1.81 2.54v.624a.879.879 0 11-1.758 0V8.013c0-.485.393-.879.879-.879a.932.932 0 10-.858-1.292.879.879 0 11-1.62-.685zm3.356 7.726a.884.884 0 01-.258.622.886.886 0 01-.621.257.887.887 0 01-.622-.257.885.885 0 01-.257-.622c0-.23.094-.458.257-.621a.887.887 0 01.622-.257.883.883 0 01.879.878zm11.809 13.544H4.939a.879.879 0 010-1.757h14.21a.879.879 0 010 1.757zm0-3.515H4.939a.88.88 0 010-1.758h14.21a.88.88 0 010 1.758zm0-3.516H4.939a.88.88 0 010-1.758h14.21a.88.88 0 010 1.758zm0-3.516H9.832a.88.88 0 110-1.758h9.317a.879.879 0 110 1.758zm0-3.515H9.832a.88.88 0 110-1.758h9.317a.879.879 0 110 1.758z" fill="#1E7243"/></svg>