<svg width="70" height="70" viewBox="0 0 70 70" fill="none" xmlns="http://www.w3.org/2000/svg"><path d="M39.511 18.516v6.516h6.517l-6.517-6.516z" fill="#1E7243"/><path d="M38.632 26.79a.88.88 0 01-.879-.88V18H24.277a.879.879 0 00-.879.879V47.12a.88.88 0 00.88.879h21.386a.879.879 0 00.88-.879V26.79h-7.912zm-11.648-3.633a2.685 2.685 0 012.477-1.642 2.692 2.692 0 012.689 2.689 2.693 2.693 0 01-1.81 2.54v.624a.879.879 0 11-1.758 0v-1.355c0-.485.393-.879.879-.879a.932.932 0 10-.858-1.293.879.879 0 11-1.62-.684zm3.355 7.727a.883.883 0 01-.878.878.887.887 0 01-.622-.257.885.885 0 01-.257-.621c0-.232.093-.459.257-.622a.887.887 0 01.622-.257.883.883 0 01.879.879zm11.81 13.543h-14.21a.88.88 0 010-1.757h14.21a.879.879 0 010 1.757zm0-3.515h-14.21a.88.88 0 010-1.758h14.21a.88.88 0 010 1.758zm0-3.516h-14.21a.88.88 0 010-1.758h14.21a.88.88 0 010 1.758zm0-3.516h-9.316a.879.879 0 110-1.758h9.316a.879.879 0 110 1.758zm0-3.515h-9.316a.879.879 0 110-1.758h9.316a.879.879 0 110 1.758z" fill="#1E7243"/><circle cx="35" cy="35" r="34.5" stroke="#C7D0D9"/></svg>