<svg width="13" height="12" viewBox="0 0 13 12" fill="none" xmlns="http://www.w3.org/2000/svg"><path d="M6.153 11.807a.53.53 0 01-.357-.126.53.53 0 01-.126-.357V6.956H1.365a.53.53 0 01-.357-.126.53.53 0 01-.126-.357v-.672c0-.14.042-.252.126-.336a.486.486 0 01.357-.147H5.67V1.076c0-.14.042-.252.126-.336a.486.486 0 01.357-.147h.735a.42.42 0 01.336.147.42.42 0 01.147.336v4.242h4.326a.42.42 0 01.336.147.42.42 0 01.147.336v.672c0 .14-.049.259-.147.357a.454.454 0 01-.336.126H7.371v4.368c0 .14-.049.259-.147.357a.454.454 0 01-.336.126h-.735z" fill="#333"/></svg>