<svg width="65" height="65" viewBox="0 0 65 65" fill="none" xmlns="http://www.w3.org/2000/svg"><g filter="url(#filter0_d)"><circle cx="32.5" cy="32.5" r="22.5" fill="#C9D200"/></g><path d="M32.153 38.807a.53.53 0 01-.357-.126.53.53 0 01-.126-.357v-4.368h-4.305a.53.53 0 01-.357-.126.53.53 0 01-.126-.357v-.672c0-.14.042-.252.126-.336a.486.486 0 01.357-.147h4.305v-4.242c0-.14.042-.252.126-.336a.486.486 0 01.357-.147h.735a.42.42 0 01.336.147.42.42 0 01.147.336v4.242h4.326a.42.42 0 01.336.147.42.42 0 01.147.336v.672c0 .14-.049.259-.147.357a.454.454 0 01-.336.126h-4.326v4.368c0 .14-.049.259-.147.357a.454.454 0 01-.336.126h-.735z" fill="#333"/><defs><filter id="filter0_d" x="0" y="0" width="65" height="65" filterUnits="userSpaceOnUse" color-interpolation-filters="sRGB"><feFlood flood-opacity="0" result="BackgroundImageFix"/><feColorMatrix in="SourceAlpha" values="0 0 0 0 0 0 0 0 0 0 0 0 0 0 0 0 0 0 127 0"/><feOffset/><feGaussianBlur stdDeviation="5"/><feColorMatrix values="0 0 0 0 0 0 0 0 0 0 0 0 0 0 0 0 0 0 0.25 0"/><feBlend in2="BackgroundImageFix" result="effect1_dropShadow"/><feBlend in="SourceGraphic" in2="effect1_dropShadow" result="shape"/></filter></defs></svg>