<svg width="22" height="25" viewBox="0 0 22 25" fill="none" xmlns="http://www.w3.org/2000/svg"><path d="M4.53 4.27h0A9.084 9.084 0 0111 1.59c2.447 0 4.741.95 6.47 2.68a9.085 9.085 0 012.681 6.47c0 2.427-1.15 4.725-2.733 6.777-1.578 2.046-3.501 3.74-4.9 4.97h0l-.011.01c-.379.334-.722.636-.999.894a.74.74 0 01-.508.199.739.739 0 01-.507-.199h0a48.839 48.839 0 00-.996-.89l-.014-.013h0c-1.4-1.23-3.322-2.925-4.9-4.971C3 15.465 1.85 13.167 1.85 10.74c0-2.445.95-4.74 2.68-6.47z" stroke="#C9D200" stroke-width="2"/></svg>