<svg width="22" height="24" viewBox="0 0 22 24" fill="none" xmlns="http://www.w3.org/2000/svg"><path d="M12.719 14.648H9.28v1.738h3.438v-1.738zm0-3.476H9.28v1.738h3.438v-1.74zm5.156 0h-3.438v1.738h3.438v-1.74zm0 3.476h-3.438v1.738h3.438v-1.738zm0 3.476h-3.438v1.738h3.438v-1.738zm-5.156 0H9.28v1.738h3.438v-1.738zm-5.156 0H4.124v1.738h3.438v-1.738zM19.422 2.481h-2.406V.918h-1.72v1.563H6.704V.918h-1.72v1.563H2.578C1.157 2.48 0 3.65 0 5.088v15.47c0 1.437 1.157 2.607 2.578 2.607h16.844c1.421 0 2.578-1.17 2.578-2.607V5.088c0-1.438-1.157-2.607-2.578-2.607zm.86 18.077a.866.866 0 01-.86.869H2.578a.865.865 0 01-.86-.87V9.434h18.563v11.125zm0-12.863H1.718V5.088c0-.48.385-.87.86-.87h2.405v1.74h1.72v-1.74h8.593v1.74h1.719v-1.74h2.406c.474 0 .86.39.86.87v2.607zm-12.72 6.953H4.126v1.738h3.438v-1.738zm0-3.476H4.126v1.738h3.438v-1.74z" fill="#333"/></svg>