<svg width="70" height="70" viewBox="0 0 70 70" fill="none" xmlns="http://www.w3.org/2000/svg"><path d="M50.23 24.613c-4.115 0-9.928.344-12.899 3.313-1.286 1.286-1.928 3.383-1.762 5.756a.773.773 0 001.359.446c1.652-1.944 3.706-3.502 6.108-4.63a.874.874 0 01.664-.028c.193.07.344.2.423.369.164.346.111.801-.432 1.058-.031.015-.059.035-.09.049-.01.005-.023.003-.032.008-5.92 2.782-8.83 7.636-10.152 12.628-.963-6.25-2.998-9.93-4.92-12.188-1.392-1.803-2.76-2.76-3.55-3.3-.147-.1-.59-.403-.774-.586a.772.772 0 010-1.092c.301-.3.792-.3 1.127.034.082.073.213.165.38.276l.138.093c1.117.766 3.199 2.188 5.045 5.25a.772.772 0 001.419-.25c.403-2.059.223-5.113-1.613-6.949-2.97-2.967-8.784-3.311-12.897-3.311a.772.772 0 00-.772.771c0 4.115.344 9.928 3.313 12.899 1.239 1.238 3.149 1.794 5.046 1.794 1.549 0 3.066-.388 4.229-1.06 1.586 3.286 2.852 8.195 2.852 15.703a.772.772 0 001.544 0c0-4.189.718-9.216 3.387-13.354 1.07 1.046 2.912 1.708 4.953 1.77.102.003.203.004.303.004 2.074 0 3.906-.65 5.06-1.805C50.657 35.311 51 29.498 51 25.383a.767.767 0 00-.77-.77z" fill="#1E7243"/><circle cx="35" cy="35" r="34.5" stroke="#C7D0D9"/></svg>