<svg width="24" height="28" viewBox="0 0 24 28" fill="none" xmlns="http://www.w3.org/2000/svg"><path d="M1.695 6.295c-.248-.013-.425-.018-.603-.034C.435 6.197.037 5.857.002 5.217c-.033-.578.472-1.029 1.17-1.038 1.476-.018 2.95-.006 4.427-.006h.917c0-.701-.008-1.34.002-1.977.018-1.317.92-2.183 2.3-2.19 2.071-.008 4.143-.008 6.215 0 1.47.007 2.354.867 2.368 2.28.006.593.002 1.187.002 1.889h3.414c.595 0 1.192-.01 1.787.001.827.013 1.323.418 1.316 1.054-.006.608-.458.979-1.26 1.034l-.443.035c-.096 1.674-.199 3.327-.287 4.98-.237 4.46-.463 8.92-.698 13.38-.093 1.765-.844 2.451-2.67 2.451-4.454 0-8.908.002-13.362 0-1.607 0-2.423-.748-2.505-2.306-.316-5.922-.627-11.842-.939-17.764-.014-.224-.037-.446-.06-.745zm17.322 18.701l.998-18.671H3.905c.336 6.266.667 12.466.998 18.671h14.114zM8.73 4.121h6.425v-1.99H8.729v1.99z" fill="#98A6B4"/></svg>