<svg width="14" height="16" viewBox="0 0 14 16" fill="none" xmlns="http://www.w3.org/2000/svg"><path d="M.955 3.546c-.14-.008-.24-.01-.34-.02C.245 3.492.021 3.3.001 2.94c-.019-.326.266-.58.659-.585.831-.01 1.662-.003 2.493-.003h.517c0-.395-.005-.755 0-1.114.01-.741.52-1.23 1.296-1.233C6.132 0 7.299 0 8.466.005c.827.003 1.325.488 1.333 1.284.004.333.001.668.001 1.063h1.923c.335 0 .671-.005 1.006 0 .466.008.745.236.742.594-.004.343-.259.551-.71.582l-.25.02c-.054.943-.112 1.874-.161 2.805-.134 2.511-.261 5.023-.393 7.534-.053.995-.476 1.381-1.504 1.381H2.928c-.905 0-1.364-.422-1.41-1.299C1.34 10.634 1.165 7.3.988 3.965c-.007-.126-.02-.25-.033-.419zm9.754 10.531c.19-3.533.376-7.025.562-10.514H2.2c.19 3.528.376 7.02.562 10.514h7.948zM4.916 2.322h3.618v-1.12H4.916v1.12z" fill="#333"/><path d="M7.347 12.29c-.002.486-.23.757-.612.756-.383-.002-.613-.277-.614-.76-.003-2.232-.003-4.465 0-6.698.001-.48.234-.757.615-.756.38 0 .61.278.611.76.004 1.13.004 5.595 0 6.698zm-2.291.001c-.001.486-.229.757-.612.755-.383-.001-.613-.276-.614-.758-.058-2.345-.24-4.36-.318-6.811 0-.48.29-.646.672-.645.38 0 .609.278.61.76.004 1.131.267 5.596.262 6.699zm3.378 0c.001.486.229.757.612.755.383-.001.613-.276.614-.758.058-2.345.24-4.36.318-6.811 0-.48-.29-.646-.672-.645-.38 0-.609.278-.61.76-.003 1.131-.266 5.596-.262 6.699z" fill="#333"/></svg>