<svg width="18" height="17" viewBox="0 0 18 17" fill="none" xmlns="http://www.w3.org/2000/svg"><path d="M16.792 2.125h-2.125V.708a.709.709 0 00-1.417 0v1.417h-8.5V.708a.709.709 0 00-1.417 0v1.417H1.208a.709.709 0 00-.708.708v13.459c0 .39.317.708.708.708h15.584a.709.709 0 00.708-.708V2.833a.709.709 0 00-.708-.708zM1.917 15.583V7.792h9.916a.709.709 0 000-1.417H1.917V3.542h1.416v.708a.709.709 0 001.417 0v-.708h8.5v.708a.709.709 0 001.417 0v-.708h1.416v2.833h-1.416a.709.709 0 000 1.417h1.416v7.791H1.917z" fill="#1E7243"/><path d="M4.75 9.207h-.708a.709.709 0 000 1.417h.708a.709.709 0 000-1.417zm3.188 0h-.709a.709.709 0 000 1.417h.709a.709.709 0 000-1.417zm2.832 0h-.708a.709.709 0 000 1.417h.709a.709.709 0 000-1.417zm3.188 0h-.708a.709.709 0 000 1.417h.708a.709.709 0 000-1.417zM4.75 12.043h-.708a.709.709 0 000 1.417h.708a.709.709 0 000-1.417zm3.188 0h-.709a.709.709 0 000 1.417h.709a.709.709 0 000-1.417zm2.832 0h-.708a.709.709 0 000 1.417h.709a.709.709 0 000-1.417zm3.188 0h-.708a.709.709 0 000 1.417h.708a.709.709 0 000-1.417z" fill="#1E7243"/></svg>