<svg width="23" height="22" viewBox="0 0 23 22" fill="none" xmlns="http://www.w3.org/2000/svg"><path d="M20.501 8.467a.993.993 0 01-.673-.655.993.993 0 01.16-.925 2.24 2.24 0 00.037-2.736 2.24 2.24 0 00-2.613-.81.993.993 0 01-.93-.133.993.993 0 01-.414-.843A2.24 2.24 0 0014.49.13a2.24 2.24 0 00-2.59.881.993.993 0 01-.83.438.993.993 0 01-.83-.438A2.24 2.24 0 007.648.13a2.24 2.24 0 00-1.577 2.235.993.993 0 01-.415.843.993.993 0 01-.93.134 2.24 2.24 0 00-2.613.81 2.24 2.24 0 00.038 2.735.993.993 0 01.16.925.993.993 0 01-.673.655A2.24 2.24 0 000 10.657a2.24 2.24 0 001.639 2.192.993.993 0 01.673.654.993.993 0 01-.16.926 2.24 2.24 0 00-.038 2.735 2.24 2.24 0 002.614.81.993.993 0 01.929.134.993.993 0 01.415.842 2.24 2.24 0 001.577 2.236c.245.08.49.118.732.118.732 0 1.417-.356 1.858-1a.993.993 0 01.83-.438c.338 0 .64.16.831.438a2.24 2.24 0 002.59.882 2.24 2.24 0 001.578-2.236.993.993 0 01.415-.842.993.993 0 01.929-.134 2.24 2.24 0 002.614-.81 2.24 2.24 0 00-.038-2.736.993.993 0 01-.16-.925c.104-.32.35-.56.673-.654a2.24 2.24 0 001.639-2.191 2.24 2.24 0 00-1.64-2.191zm-.361 3.156a2.283 2.283 0 00-1.165 3.585c.34.44.231.911.017 1.206-.214.294-.629.543-1.152.356a2.283 2.283 0 00-3.049 2.216c.015.555-.349.872-.695.985-.346.113-.828.07-1.142-.389a2.283 2.283 0 00-3.769 0c-.313.459-.795.501-1.141.389-.346-.113-.71-.43-.696-.985A2.283 2.283 0 004.3 16.77c-.524.186-.939-.062-1.152-.356-.215-.295-.322-.766.016-1.206A2.283 2.283 0 002 11.623c-.533-.156-.723-.601-.723-.965s.19-.81.723-.966a2.283 2.283 0 001.164-3.584c-.339-.44-.23-.912-.017-1.206.214-.295.63-.543 1.153-.357A2.283 2.283 0 007.348 2.33c-.015-.555.35-.873.696-.986.346-.112.828-.069 1.141.389a2.283 2.283 0 003.77 0c.313-.458.795-.5 1.14-.388.347.112.711.43.696.985a2.283 2.283 0 003.049 2.215c.523-.186.938.062 1.152.357.214.294.322.766-.017 1.206a2.283 2.283 0 001.165 3.584c.532.157.722.602.722.966s-.19.809-.722.966z" fill="#fff"/><path d="M15.743 7.193a.639.639 0 00-.9.07l-4.72 5.505-2.927-2.195a.639.639 0 00-.767 1.022l3.406 2.554a.636.636 0 00.868-.095l5.11-5.96a.639.639 0 00-.07-.901z" fill="#fff"/></svg>