<svg width="23" height="23" viewBox="0 0 23 23" fill="none" xmlns="http://www.w3.org/2000/svg"><path d="M22.936 19.45a12.008 12.008 0 00-4.023-6.789 11.585 11.585 0 00-3.493-2.013 6.132 6.132 0 002.02-4.56C17.44 2.724 14.78 0 11.499 0 8.215 0 5.555 2.725 5.555 6.087a6.13 6.13 0 002.02 4.56 11.586 11.586 0 00-3.493 2.014 12.089 12.089 0 00-4.023 6.79c-.173.87.037 1.77.586 2.463A2.843 2.843 0 002.866 23H20.13c.868 0 1.673-.393 2.221-1.086a2.947 2.947 0 00.586-2.463zM11.506 2.239c2.067 0 3.75 1.723 3.75 3.84 0 2.116-1.683 3.84-3.75 3.84-2.066 0-3.748-1.724-3.748-3.84 0-2.117 1.682-3.84 3.749-3.84zm9.199 18.29a.716.716 0 01-.567.271H2.876a.716.716 0 01-.567-.271.79.79 0 01-.147-.637c.878-4.317 4.59-7.53 8.87-7.754a4.053 4.053 0 00.941 0c4.288.215 8 3.437 8.878 7.754a.79.79 0 01-.146.637z" fill="#C9D200"/></svg>