<svg width="19" height="19" viewBox="0 0 19 19"xmlns="http://www.w3.org/2000/svg">
<path d="M18.0607 3.06066C18.6464 2.47487 18.6464 1.52513 18.0607 0.93934C17.4749 0.353553 16.5251 0.353553 15.9393 0.93934L18.0607 3.06066ZM0.93934 15.9393C0.353553 16.5251 0.353553 17.4749 0.93934 18.0607C1.52513 18.6464 2.47487 18.6464 3.06066 18.0607L0.93934 15.9393ZM15.9393 18.0607C16.5251 18.6464 17.4749 18.6464 18.0607 18.0607C18.6464 17.4749 18.6464 16.5251 18.0607 15.9393L15.9393 18.0607ZM3.06066 0.93934C2.47487 0.353553 1.52513 0.353553 0.93934 0.93934C0.353553 1.52513 0.353553 2.47487 0.93934 3.06066L3.06066 0.93934ZM15.9393 0.93934L0.93934 15.9393L3.06066 18.0607L18.0607 3.06066L15.9393 0.93934ZM18.0607 15.9393L3.06066 0.93934L0.93934 3.06066L15.9393 18.0607L18.0607 15.9393Z" fill="#919EAB"/>
</svg>
