<svg width="24" height="17" viewBox="0 0 24 17" fill="none" xmlns="http://www.w3.org/2000/svg"><path d="M21.252.547H2.63A2.61 2.61 0 00.023 3.154v11.173a2.61 2.61 0 002.607 2.607h18.622a2.61 2.61 0 002.607-2.607V3.154A2.61 2.61 0 0021.252.547zM2.63 2.037h18.622c.616 0 1.117.5 1.117 1.117v1.49H1.513v-1.49c0-.616.501-1.117 1.117-1.117zm18.622 13.407H2.63a1.119 1.119 0 01-1.117-1.117V6.133H22.37v8.194c0 .616-.5 1.117-1.117 1.117z" fill="#C9D200"/><path d="M5.238 13.211h-.745a.745.745 0 01-.745-.745v-.745c0-.41.334-.744.745-.744h.745c.411 0 .745.333.745.744v.745a.745.745 0 01-.745.745z" fill="#C9D200"/></svg>