<svg width="26" height="26" viewBox="0 0 26 26" fill="none" xmlns="http://www.w3.org/2000/svg"><path d="M15.702 16.754c-.275.297-.625.519-.9.816-.35.36-.318.89.01 1.25.318.35.785.392 1.198.116a2.97 2.97 0 00.455-.36c1.028-1.027 1.43-1.568 1.43-3.05 0-.403.01-.817 0-1.22-.01-.677-.339-1.07-.9-1.09-.572-.022-.943.392-.964 1.08-.01.604.032 1.197-.01 1.801-.022.223-.16.477-.319.657zm8.232 1.61a.953.953 0 100-1.907.953.953 0 000 1.907zm-1.165 3.391a.953.953 0 100-1.907.953.953 0 000 1.907z" fill="#333"/><path d="M20.385 13.258c-.625.022-1.006.371-1.006.911s.392.9 1.017.911c.604.011 1.197.011 1.8 0a2.74 2.74 0 002.691-2.67 34.69 34.69 0 000-1.853c-.01-.625-.36-1.007-.91-1.007-.562 0-.912.36-.944.986-.01.381 0 .762 0 1.144-1.197-1.112-2.447-1.918-3.95-2.363-5.16-1.525-10.489 2.808-10.033 8.158.339 3.93 3.284 6.938 7.193 7.32a7.705 7.705 0 004.365-.858.961.961 0 00.656-.911.95.95 0 00-1.6-.7c-.794.265-1.63.551-2.447.615-2.51.18-4.83-1.292-5.837-3.591-.995-2.257-.476-4.958 1.282-6.706a6.058 6.058 0 016.76-1.208c.868.392 1.63.932 2.255 1.822-.497 0-.9-.01-1.292 0z" fill="#333"/><path d="M8.552 22.973c-1.134-.01-2.257 0-3.39 0-1.452-.01-2.14-.7-2.14-2.15v-7.046c0-2.31-.01-4.63 0-6.939.01-1.112.593-1.854 1.578-1.991.074-.01.604-.021 1.42-.021v.89a.9.9 0 101.8 0v-.912c1.24 0 2.713-.01 4.238-.01v.91a.9.9 0 101.801 0v-.91c1.515 0 2.998 0 4.238.01v.9a.9.9 0 101.8 0v-.89c.89.012 1.463.022 1.547.033.858.116 1.441.762 1.558 1.631.01.127.02.244.042.371.106.466.498.763.964.72.488-.042.774-.328.848-.794.031-.223.01-.456-.032-.689-.318-1.822-1.748-3.061-3.602-3.136-.064 0-.562 0-1.324-.01v-.954a.9.9 0 10-1.801 0v.954h-4.238v-.954a.9.9 0 10-1.8 0v.954H7.82v-.954a.9.9 0 10-1.801 0v.954H4.802c-2.087.095-3.645 1.674-3.645 3.782-.01 4.778-.01 9.566 0 14.344.011 2.14 1.621 3.74 3.772 3.76 1.197.011 2.405 0 3.602 0 .741 0 1.154-.349 1.144-.942-.01-.572-.413-.911-1.123-.911z" fill="#333" stroke="#333" stroke-width=".4"/></svg>