<svg width="23" height="23" viewBox="0 0 23 23" fill="none" xmlns="http://www.w3.org/2000/svg"><g clip-path="url(#clip0)" fill="#1E7243"><path d="M18.28 14.432a2.884 2.884 0 012.882 2.88 2.884 2.884 0 01-2.881 2.882 2.885 2.885 0 01-2.881-2.881 2.885 2.885 0 012.88-2.881zm0 4.272c.768 0 1.392-.624 1.392-1.39 0-.768-.624-1.392-1.391-1.392s-1.391.624-1.391 1.391.624 1.391 1.39 1.391zM5.414 14.432a2.884 2.884 0 012.88 2.88 2.884 2.884 0 01-2.88 2.882 2.884 2.884 0 01-2.881-2.881 2.884 2.884 0 012.88-2.881zm0 4.272a1.392 1.392 0 000-2.782c-.767 0-1.391.624-1.391 1.391s.624 1.391 1.39 1.391z"/><path d="M20.169 6.508c.278 0 .534.156.662.404l2.086 4.048a.745.745 0 01.083.342v6.01a.745.745 0 01-.745.745h-1.813v-1.49h1.068v-5.085l-1.796-3.484h-5.68v-1.49h6.135zM7.576 16.566h8.494v1.49H7.576v-1.49z"/><path d="M.746 2.807h13.288c.412 0 .745.333.745.745v13.76h-1.49V4.297H1.491v12.27h1.788v1.49H.746A.745.745 0 010 17.312V3.552c0-.412.333-.745.745-.745z"/><path d="M14.034 10.58h8.222v1.49h-8.222v-1.49z"/></g><defs><clipPath id="clip0"><path fill="#fff" transform="matrix(-1 0 0 1 23 0)" d="M0 0h23v23H0z"/></clipPath></defs></svg>