<svg width="24" height="18" viewBox="0 0 24 18" fill="none" xmlns="http://www.w3.org/2000/svg"><path d="M21.377.59H2.893A2.135 2.135 0 00.76 2.723v12.796c0 1.177.956 2.133 2.133 2.133h18.484a2.135 2.135 0 002.133-2.133V2.724A2.135 2.135 0 0021.377.59zm0 1.422c.097 0 .188.02.272.055l-9.514 8.246L2.62 2.067a.708.708 0 01.273-.055h18.484zm0 14.218H2.893a.711.711 0 01-.711-.71V3.569l9.487 8.222a.71.71 0 00.932 0l9.487-8.222v11.95a.712.712 0 01-.711.711z" fill="#C9D200" stroke="#C9D200" stroke-width=".5"/></svg>