<svg width="21" height="24" viewBox="0 0 21 24" fill="none" xmlns="http://www.w3.org/2000/svg"><path d="M17.665 8.978h-.734V7.254a6.151 6.151 0 00-6.145-6.145 6.151 6.151 0 00-6.144 6.145v1.724h-.734a2.917 2.917 0 00-2.914 2.914v8.89a2.917 2.917 0 002.914 2.915h13.757a2.917 2.917 0 002.914-2.915v-8.89a2.92 2.92 0 00-2.914-2.914zM6.39 7.254a4.4 4.4 0 014.397-4.397 4.4 4.4 0 014.396 4.397v1.724H6.39V7.254zm12.436 13.523a1.17 1.17 0 01-1.166 1.167H3.908a1.17 1.17 0 01-1.166-1.167v-8.885a1.17 1.17 0 011.166-1.167h13.757a1.17 1.17 0 011.166 1.167v8.885h-.005z" fill="#C9D200" stroke="#C9D200" stroke-width=".4"/></svg>