<svg width="138" height="52" viewBox="0 0 138 52" fill="none" xmlns="http://www.w3.org/2000/svg"><path d="M137.189 40.246c-.762 0-1.907.648-2.288.778-.89.13-2.034-.26-2.67-5.314-.381-2.98 0-6.091.128-9.202 0-.777-7.882.39-7.882 2.852-.127 3.758-.636 7.646.254 11.275 0 .13 0 .13.127.26-3.813 1.036-7.627-1.038-9.025-5.185-.382-1.166-.509-2.462-.509-3.758 0-.39.127-2.852.381-3.63 5.34-1.036 10.425-2.85 15.128-5.442.509-.26 1.78-.908 1.653-1.685-1.399-11.016-12.204-8.943-19.704-5.444-1.907.908-2.416 1.426-2.289 2.722.127 1.167 1.399 1.426 2.416 1.167 1.271-.39 1.907-1.815 3.432-2.463 4.958-2.333 7.246 1.555 8.136 5.962-3.051 1.296-11.568 2.851-14.492 3.37-1.271.259-1.526 1.166-1.78 1.943-.381 1.815-.635 3.63-.635 5.444-.128 2.203-.382 6.48-2.289 6.739-1.907.389-1.525-8.165-1.525-9.98.127-4.147.508-8.035-.382-12.182-1.398-6.48-8.644-5.573-13.856-3.24-2.797-3.24-8.263-2.722-13.22-1.296-1.272.389-4.45 1.167-4.704 2.851-1.017 9.98-1.78 20.737-.127 30.716-6.102-2.333-11.314-8.943-12.713-15.552 5.34-.778 10.043-2.852 9.407-9.461-1.144-11.405-12.966-12.442-23.645-7.647-1.144.519-1.525 1.296-1.907 2.981-1.525 5.703-2.542 16.46-1.017 25.402.128.648 1.78 1.555 4.323 1.555 2.542 0 4.322-.648 4.195-1.555-2.67-10.627-1.144-22.68.254-27.216 11.06-1.037 10.297 10.757 10.17 12.441-.254 1.685-2.416 1.944-3.051.13-.636-1.685-7.119-.389-6.992 3.11.382 12.572 12.331 21.644 24.154 19.83.89-.13 5.974-1.426 5.72-2.981-2.797-10.11-2.542-20.996-1.525-31.364 8.008-3.629 4.322 20.218 4.195 26.31 0 .388 1.144 1.036 4.068 1.036 2.67 0 3.813-.26 3.813-1.426.127-5.184.255-11.405.255-17.107 0-1.685.127-6.22-.89-8.165 6.356-3.11 5.72 8.943 5.593 11.275 0 4.148-1.144 10.887 2.161 14.257 2.543 2.592 8.39 1.166 11.569-1.815.635.778 1.525 1.555 2.542 2.074 3.814 2.203 9.153 1.166 13.729-.648 1.907 1.555 5.085 1.425 7.628.777 1.271-.259 3.559-1.036 4.322-2.462.381-.519.127-1.037-.636-1.037zm-99.157-1.813c-.127-1.166-1.78-1.166-2.67-1.037-1.779.26-2.414 2.333-4.703 3.37-1.398.648-3.178.778-4.322.389-3.432-1.167-4.195-4.018-4.703-7.128-.636-4.536-.382-10.498 1.144-14.905.381-1.166-5.975-2.721-7.5 1.037-2.67 6.87-3.687 17.756 2.288 22.94 4.83 4.147 12.33 1.685 17.67-1.685 1.017-.648 2.924-2.074 2.797-2.98zM7.27 12.253c3.05-.908 3.431-1.426 3.431-2.333 0-2.203.255-4.407 1.399-6.091 1.525-.13 3.686.388 5.466.777 2.034.389 3.432-.13 4.704-.777.127 0 3.305-2.074 2.034-2.333C15.15-1.355 3.2.848 3.2 12.123c0 .907 1.144 1.037 4.068.13z" fill="#fff"/><path d="M10.828 16.399c7.373-1.685 16.272-2.851 19.323 4.925.636 1.555.89 3.24.89 4.924 0 1.426-.382 2.592-2.543 2.204-.89-.13-3.178-1.296-4.449-.519-1.271.778-1.017 3.888.254 3.759 4.322-.26 13.984-1.555 14.62-7.387.38-3.759-.255-7.129-3.814-9.98C28.752 9.141 11.464 12.9 1.294 16.14.15 16.528-.36 17.824.277 18.472c.763.648 2.67-.13 2.542 0-.89 6.35-.89 19.83-.254 26.44 0 .517.89.777 3.432.777 2.543 0 4.45-.648 4.323-1.685-.255-8.295-1.017-19.051.508-27.605z" fill="#fff"/></svg>