<svg width="33" height="33" viewBox="0 0 33 33" fill="none" xmlns="http://www.w3.org/2000/svg"><path d="M27.891 7.249H13.166a3.042 3.042 0 00-2.879-2.071 3.043 3.043 0 00-2.88 2.07H5.11a.967.967 0 000 1.934h2.299a3.043 3.043 0 002.88 2.072 3.042 3.042 0 002.878-2.072h14.725a.967.967 0 100-1.933zm-17.604 2.07a1.106 1.106 0 01-1.104-1.103 1.106 1.106 0 012.208 0c0 .608-.495 1.104-1.104 1.104zm17.604 6.215h-2.298a3.042 3.042 0 00-2.88-2.071 3.042 3.042 0 00-2.879 2.071H5.11a.967.967 0 100 1.934h14.725a3.043 3.043 0 002.88 2.07 3.043 3.043 0 002.879-2.07h2.298a.967.967 0 100-1.934zm-5.177 2.071a1.106 1.106 0 01-1.105-1.104 1.106 1.106 0 012.209 0c0 .609-.495 1.104-1.104 1.104zm5.177 6.212H17.31a3.042 3.042 0 00-2.88-2.07 3.043 3.043 0 00-2.879 2.07H5.11a.967.967 0 100 1.934h6.44a3.043 3.043 0 002.88 2.07 3.043 3.043 0 002.878-2.07h10.583a.967.967 0 100-1.934zM14.43 25.888a1.105 1.105 0 111.104-1.104c0 .609-.495 1.104-1.104 1.104z" fill="#333"/></svg>