<svg width="26" height="27" viewBox="0 0 26 27" fill="none" xmlns="http://www.w3.org/2000/svg"><path d="M24.79 6.683a.924.924 0 00-.727-.36H7.08l-.07-.666-.002-.022C6.677 2.993 4.496 1 1.937 1 1.42 1 1 1.437 1 1.977c0 .539.42.976.938.976 1.617 0 2.996 1.257 3.211 2.926l1.114 10.664c-.974.461-1.654 1.484-1.654 2.67a1.045 1.045 0 000 .049c0 1.615 1.262 2.93 2.813 2.93h.381a2.978 2.978 0 00-.147.927c0 1.589 1.24 2.881 2.766 2.881 1.525 0 2.765-1.292 2.765-2.88 0-.325-.051-.637-.147-.929h4.045a2.979 2.979 0 00-.148.928c0 1.589 1.241 2.881 2.766 2.881s2.766-1.292 2.766-2.88c0-1.59-1.24-2.882-2.766-2.882H7.422c-.517 0-.938-.438-.938-.976a1.045 1.045 0 000-.05c0-.538.42-.976.938-.976H19.39c1.665 0 3.192-1.072 3.891-2.732.209-.494-.007-1.07-.481-1.287-.474-.217-1.027.008-1.236.502-.394.936-1.267 1.564-2.174 1.564H8.122l-.837-8.008H22.91l-.458 2.291c-.106.528.219 1.045.726 1.156.064.014.129.02.192.02a.948.948 0 00.917-.777l.694-3.467a1.007 1.007 0 00-.19-.815zM19.703 22.19c.491 0 .89.417.89.928 0 .512-.399.928-.89.928s-.89-.416-.89-.928c0-.511.399-.928.89-.928zm-9.281 0c.491 0 .89.417.89.928 0 .512-.399.928-.89.928s-.89-.416-.89-.928c0-.511.399-.928.89-.928z" fill="#333" stroke="#333" stroke-width=".3"/></svg>