<svg width="60" height="60" viewBox="0 0 60 60" fill="none" xmlns="http://www.w3.org/2000/svg"><circle cx="30" cy="30" r="30" fill="#DEEDDD"/><path d="M46.708 39.264l-5.387-5.388-.111-1.365 1.484-.905c.42-.256.59-.78.402-1.234l-.67-1.605 1.133-1.32a.996.996 0 000-1.297l-1.133-1.32.67-1.604a.996.996 0 00-.401-1.234l-1.485-.905.14-1.733a.996.996 0 00-.762-1.05l-1.692-.401-.401-1.692a.997.997 0 00-1.05-.763l-1.733.14-.905-1.484a.996.996 0 00-1.235-.401l-1.604.67-1.32-1.133a.996.996 0 00-1.297 0l-1.319 1.133-1.605-.67a.996.996 0 00-1.234.401l-.905 1.485-1.733-.14a.997.997 0 00-1.05.762l-.402 1.692-1.691.401a.996.996 0 00-.763 1.05l.141 1.733-1.485.905a.996.996 0 00-.4 1.234l.668 1.605-1.132 1.32a.996.996 0 000 1.297l1.132 1.32-.669 1.604a.996.996 0 00.401 1.234l1.485.905-.11 1.365-5.388 5.389a.996.996 0 00.39 1.649l4.053 1.351 1.351 4.054a.996.996 0 001.65.39l7.397-7.397 1.218 1.046a.996.996 0 001.298 0l1.218-1.046 7.397 7.396a.996.996 0 001.65-.39l1.351-4.053 4.054-1.351a.996.996 0 00.39-1.65zM20.467 44.16l-1-2.998a.996.996 0 00-.63-.63l-2.997-.999 4.111-4.111 1.152.273.402 1.692a.997.997 0 001.05.763l1.733-.14.883 1.447-4.704 4.703zm13.863-7.712l-.78 1.279-1.381-.577a.996.996 0 00-1.033.164L30 38.289l-1.136-.975a.995.995 0 00-1.033-.164l-1.382.577-.779-1.279a.996.996 0 00-.931-.474l-1.493.121-.346-1.457a.996.996 0 00-.739-.74l-1.457-.345.122-1.493a.996.996 0 00-.475-.93l-1.279-.78.576-1.382a.996.996 0 00-.163-1.032l-.976-1.137.976-1.137a.996.996 0 00.163-1.032l-.576-1.382 1.279-.78a.996.996 0 00.475-.93l-.122-1.493 1.457-.346a.996.996 0 00.739-.739l.346-1.457 1.493.121a.995.995 0 00.931-.474l.78-1.279 1.381.577a.996.996 0 001.033-.164L30 15.31l1.136.975a.996.996 0 001.033.164l1.382-.577.779 1.279a.995.995 0 00.931.474l1.493-.12.346 1.456a.996.996 0 00.739.74l1.457.345-.122 1.493a.996.996 0 00.475.93l1.279.78-.576 1.382a.996.996 0 00.163 1.032l.975 1.137-.975 1.137a.996.996 0 00-.163 1.032l.576 1.382-1.28.78a.996.996 0 00-.474.93l.122 1.493-1.457.346a.996.996 0 00-.74.739l-.345 1.457-1.493-.121a.996.996 0 00-.931.474zm6.833 4.084a.996.996 0 00-.63.63l-1 2.998-4.703-4.703.882-1.448 1.733.14a.997.997 0 001.05-.762l.402-1.692 1.152-.273 4.11 4.11-2.996 1z" fill="#1E7243"/><path d="M38.172 23.962l-3.017-3.018a.996.996 0 00-1.41 0l-4.812 4.813-2.146-2.146a.996.996 0 00-1.41 0L22.36 26.63a.996.996 0 000 1.409l5.868 5.868a.996.996 0 001.409 0l8.535-8.535a.996.996 0 000-1.41zm-9.24 7.831l-4.459-4.46 1.61-1.608 2.145 2.145a.996.996 0 001.409 0l4.813-4.813 1.61 1.61-7.128 7.126z" fill="#1E7243"/></svg>