<svg width="60" height="60" viewBox="0 0 60 60" fill="none" xmlns="http://www.w3.org/2000/svg"><circle cx="30" cy="30" r="30" fill="#DEEDDD"/><path d="M42.281 18H17.72A3.723 3.723 0 0014 21.719v15.937a3.723 3.723 0 003.719 3.719H42.28A3.723 3.723 0 0046 37.656V21.72A3.723 3.723 0 0042.281 18zM17.72 20.125h24.56c.879 0 1.594.715 1.594 1.594v2.125h-27.75v-2.125c0-.879.715-1.594 1.594-1.594zM42.28 39.25H17.72a1.596 1.596 0 01-1.594-1.594V25.97h27.75v11.687c0 .879-.715 1.594-1.594 1.594z" fill="#1E7243"/><path d="M21.438 36.063h-1.063A1.063 1.063 0 0119.312 35v-1.063c0-.586.476-1.062 1.063-1.062h1.063c.586 0 1.062.476 1.062 1.063V35c0 .587-.476 1.063-1.063 1.063z" fill="#1E7243"/></svg>