<svg width="60" height="60" viewBox="0 0 60 60" fill="none" xmlns="http://www.w3.org/2000/svg"><circle cx="30" cy="30" r="30" fill="#DEEDDD"/><path d="M44.82 30.852l-1.218-.407-2.028-6.49a3.174 3.174 0 00-3.042-2.236H34.25v-2.657c0-.586-.476-1.062-1.063-1.062H14.064c-.587 0-1.063.476-1.063 1.063v19.656c0 .587.476 1.062 1.063 1.062h2.28a3.725 3.725 0 003.563 2.657 3.725 3.725 0 003.564-2.657h10.936a3.725 3.725 0 003.563 2.657 3.725 3.725 0 003.563-2.657h4.406c.586 0 1.062-.475 1.062-1.062v-4.844a3.182 3.182 0 00-2.18-3.023zm-3.515-.633H38.5V27.03h1.809l.996 3.188zm-26.18-10.094h17v17.531H23.47A3.725 3.725 0 0019.905 35a3.725 3.725 0 00-3.563 2.656h-1.218V20.125zm4.781 20.188a1.595 1.595 0 01-1.593-1.594 1.594 1.594 0 111.593 1.593zm18.063 0a1.595 1.595 0 01-1.594-1.594c0-.88.715-1.594 1.594-1.594a1.594 1.594 0 010 3.187zm3.563-2.657A3.725 3.725 0 0037.969 35a3.725 3.725 0 00-3.563 2.656h-.156V23.844h4.282c.467 0 .874.3 1.014.745l.099.317h-2.208c-.586 0-1.062.476-1.062 1.063v5.312c0 .587.476 1.063 1.063 1.063h5.14l1.57.523c.435.145.727.55.727 1.008v.594h-1.063a1.062 1.062 0 100 2.125h1.063v1.062h-3.343z" fill="#1E7243"/></svg>