<svg width="51" height="51" viewBox="0 0 51 51" xmlns="http://www.w3.org/2000/svg"><path d="M49.793 25.39a23.94 23.94 0 01-24 24 23.94 23.94 0 01-24-24 23.94 23.94 0 0124-24 23.94 23.94 0 0124 24z" stroke="#C9D200" stroke-width="2"/><path fill-rule="evenodd" clip-rule="evenodd" d="M25.293 13.64c-3.094 0-3.469 0-4.594.094-1.219.094-1.969.282-2.719.563-.75.281-1.406.656-1.968 1.312-.657.657-1.032 1.22-1.313 1.97-.281.75-.469 1.5-.562 2.718-.094 1.125-.094 1.5-.094 4.594 0 3.093 0 3.468.094 4.593.093 1.22.281 1.97.562 2.72.281.75.656 1.405 1.313 1.968.656.656 1.218 1.031 1.968 1.312.75.282 1.5.47 2.72.563 1.124.094 1.5.094 4.593.094 3.094 0 3.469 0 4.594-.094 1.218-.094 1.968-.281 2.718-.563.75-.28 1.407-.656 1.97-1.312.655-.656 1.03-1.219 1.312-1.969.281-.75.468-1.5.562-2.719.094-1.125.094-1.5.094-4.593 0-3.094 0-3.47-.094-4.594-.093-1.219-.281-1.969-.562-2.719-.282-.75-.657-1.406-1.313-1.969-.656-.656-1.218-1.03-1.968-1.312-.75-.281-1.5-.469-2.72-.563-1.124-.093-1.5-.093-4.593-.093zm0 5.438c-3.188 0-5.813 2.625-5.813 5.813 0 3.187 2.625 5.812 5.813 5.812 3.188 0 5.813-2.625 5.813-5.812 0-3.188-2.626-5.813-5.813-5.813zm0 9.563a3.761 3.761 0 01-3.75-3.75 3.761 3.761 0 013.75-3.75 3.761 3.761 0 013.75 3.75 3.761 3.761 0 01-3.75 3.75zm7.313-9.75a1.313 1.313 0 11-2.626 0 1.313 1.313 0 012.625 0z" fill="#fff"/></svg>