<svg width="33" height="28" viewBox="0 0 33 28" fill="none" xmlns="http://www.w3.org/2000/svg"><path class="bg" d="M29.605 2.735c-3.501-3.646-9.197-3.646-12.697 0l-.813.846-.812-.846c-3.5-3.647-9.196-3.647-12.696 0-3.43 3.572-3.452 9.233-.052 13.17 3.1 3.59 12.245 11.343 12.633 11.671.264.224.58.332.896.332h.03c.327.015.655-.101.927-.332.388-.328 9.534-8.082 12.635-11.671 3.4-3.936 3.377-9.598-.051-13.17z" fill="#333"/><path class="border" d="M29.605 2.735c-3.501-3.646-9.197-3.646-12.697 0l-.813.846-.812-.846c-3.5-3.647-9.196-3.647-12.696 0-3.43 3.572-3.452 9.233-.052 13.17 3.1 3.59 12.245 11.343 12.633 11.671.264.224.58.332.896.332h.03c.327.015.655-.101.927-.332.388-.328 9.534-8.082 12.635-11.671 3.4-3.936 3.377-9.598-.051-13.17zm-2.062 11.19c-2.417 2.797-9.063 8.567-11.448 10.614-2.386-2.047-9.03-7.816-11.447-10.614-2.372-2.746-2.394-6.657-.052-9.096a5.995 5.995 0 014.338-1.87c1.571 0 3.142.624 4.339 1.87L15.06 6.69c.212.222.48.354.762.4.457.102.952-.03 1.307-.4l1.788-1.861a5.97 5.97 0 018.677 0c2.342 2.44 2.32 6.35-.05 9.095z" fill="#333"/></svg>