<svg width="27" height="24" viewBox="0 0 27 24" fill="none" xmlns="http://www.w3.org/2000/svg"><path d="M24.758 2.287c-2.928-3.049-7.691-3.049-10.618 0l-.68.708-.68-.708c-2.926-3.05-7.69-3.05-10.617 0C-.704 5.274-.723 10.01 2.12 13.301c2.593 3.002 10.24 9.486 10.565 9.76.22.187.485.278.749.278h.026a1.12 1.12 0 00.774-.277c.325-.275 7.973-6.76 10.567-9.761 2.843-3.292 2.824-8.027-.043-11.014zm-1.724 9.357c-2.022 2.34-7.58 7.165-9.574 8.877-1.996-1.711-7.552-6.536-9.573-8.876-1.983-2.296-2.002-5.567-.043-7.607a5.013 5.013 0 013.628-1.563c1.313 0 2.627.521 3.628 1.563l1.494 1.557c.178.185.402.296.637.334a1.16 1.16 0 001.094-.334l1.495-1.557a4.993 4.993 0 017.256 0c1.959 2.04 1.94 5.31-.042 7.607z" fill="#98A6B4"/></svg>