<svg width="28" height="23" viewBox="0 0 28 23" xmlns="http://www.w3.org/2000/svg"><path d="M25.113 2.321c-2.851-2.97-7.49-2.97-10.342 0l-.662.69-.662-.69a7.115 7.115 0 00-10.342 0C.312 5.231.294 9.843 3.063 13.05c2.526 2.923 9.975 9.24 10.291 9.507.215.182.473.27.73.27h.024c.266.013.534-.082.755-.27.316-.267 7.766-6.583 10.293-9.508 2.768-3.206 2.75-7.818-.043-10.728zm-1.679 9.115c-1.969 2.28-7.382 6.98-9.326 8.647-1.943-1.667-7.355-6.367-9.324-8.646-1.932-2.237-1.95-5.422-.042-7.41a4.883 4.883 0 013.534-1.522c1.28 0 2.56.507 3.534 1.522l1.455 1.516c.174.18.392.289.621.326a1.13 1.13 0 001.065-.325l1.457-1.517a4.864 4.864 0 017.068 0c1.908 1.988 1.89 5.173-.042 7.41z"/></svg>