<svg width="263" height="42" viewBox="0 0 263 42" fill="none" xmlns="http://www.w3.org/2000/svg"><g clip-path="url(#clip0)"><path d="M31.878 17.798h1.007v-4.88h-1.007c-5.21 0-8.773 3.36-9.64 8.241h-2.972v-8.195h-5.072v8.195h-2.971c-.868-4.88-4.434-8.241-9.641-8.241H.575v4.88h1.007c2.788 0 4.479 1.842 4.89 4.835L.256 33.91h5.803l4.57-8.471 3.565-.046v8.517h5.072v-8.517l3.565.046 4.57 8.47h5.803l-6.17-11.277c.41-2.993 2.056-4.835 4.844-4.835zm97.426-7.225c4.021 0 7.037-3.085 7.037-6.952h-4.066c0 1.887-1.235 3.039-2.971 3.039-1.737 0-2.971-1.152-2.971-3.039h-4.066c0 4.005 3.107 6.952 7.037 6.952zM43.988 25.349V12.965H38.87V33.91h3.747l11.836-12.43v12.43h5.073V12.965h-3.747l-11.79 12.384zm58.036-13.029c-6.535 0-11.24 4.743-11.24 11.095 0 6.537 4.935 11.14 11.24 11.14 6.49 0 11.286-4.789 11.286-11.14 0-6.49-4.89-11.095-11.286-11.095zm0 17.218c-3.473 0-5.986-2.347-5.986-6.122 0-3.728 2.513-6.122 5.986-6.122 3.519 0 5.986 2.394 5.986 6.122 0 3.773-2.467 6.122-5.986 6.122zm-18.141-6.811c.776-.46 1.6-1.841 1.6-3.682 0-3.545-2.698-6.076-6.719-6.076H66.837v20.946h12.658c4.249 0 6.9-2.809 6.9-6.491 0-2.303-1.326-4.007-2.512-4.697zm-11.928-5.202h6.216c1.143 0 1.873.828 1.873 1.888s-.73 1.887-1.873 1.887h-6.216v-3.775zm6.718 11.832h-6.718v-4.372h6.718c1.189 0 2.056 1.013 2.056 2.209 0 1.195-.87 2.163-2.056 2.163zm149.645-14.272c-1.662-1.738-3.948-2.765-6.691-2.765-6.077 0-10.648 4.697-10.648 11.095 0 6.537 4.799 11.14 10.648 11.14 2.718 0 5.013-1.04 6.687-2.804l.211 2.158h4.571V12.966h-4.571l-.207 2.12zm-6.237 14.593c-3.518 0-6.031-2.623-6.031-6.262 0-3.59 2.513-6.261 6.031-6.261 3.473 0 5.986 2.67 5.986 6.261.002 3.637-2.513 6.262-5.986 6.262zm37.519-.418V12.918l-16.359.046v2.485c0 7.044-1.189 11.324-3.245 13.811h-2.467v9.807h4.386l.457-5.156h15.355l.456 5.156h4.386V29.26H259.6zm-5.073 0h-8.682c1.417-1.841 2.284-6.537 2.421-11.694h6.261V29.26zm-57.898-11.921c2.925 0 4.799 1.519 5.849 3.728l4.433-2.393c-2.01-4.096-5.666-6.354-10.282-6.354-6.489 0-11.286 4.697-11.286 11.095 0 6.261 4.707 11.14 11.286 11.14 4.479 0 8.409-2.394 10.237-6.354l-4.388-2.393c-1.052 2.209-2.971 3.682-5.849 3.682-3.838 0-6.122-2.485-6.122-6.075 0-3.545 2.284-6.076 6.122-6.076zm-73.083 8.01V12.965h-5.072V33.91h3.747l11.79-12.43v12.43h5.073V12.965h-3.747l-11.791 12.384z" fill="#fff"/><path d="M167.574 32.747c-.565.96-1.276 1.851-2.155 2.56a7.34 7.34 0 01-3.011 1.48c-1.097.256-2.244.235-3.324.013a9.98 9.98 0 01-5.533-3.315 8.172 8.172 0 01-1.585-2.932 8.373 8.373 0 01-.232-3.368c.141-1.129.541-2.221 1.109-3.198a8.754 8.754 0 015.274-3.984 8.778 8.778 0 013.359-.232 8.332 8.332 0 013.2 1.102 8.436 8.436 0 012.493 2.297 8.69 8.69 0 011.527 6.435 9.143 9.143 0 01-1.122 3.142zm-.987-.586c.997-1.67 1.217-3.744.702-5.586a7.36 7.36 0 00-1.276-2.533 7.499 7.499 0 00-2.112-1.853 7.557 7.557 0 00-2.632-.956 7.014 7.014 0 00-2.809.113 7.069 7.069 0 00-2.545 1.227 7.24 7.24 0 00-1.868 2.127 7.691 7.691 0 00-.934 2.676 7.835 7.835 0 00.111 2.846 7.89 7.89 0 001.093 2.676 6.565 6.565 0 002.113 2.033 6.352 6.352 0 002.791.859c.972.07 1.934-.07 2.843-.334a9.107 9.107 0 002.556-1.22c.782-.54 1.474-1.24 1.967-2.075z" fill="#000"/><path d="M162.119 33.873c4.736 0 8.574-3.867 8.574-8.638 0-4.77-3.838-8.637-8.574-8.637-4.735 0-8.574 3.867-8.574 8.637 0 4.77 3.839 8.638 8.574 8.638zm8.591-16.803c2.104 0 3.81-1.718 3.81-3.838s-1.706-3.837-3.81-3.837-3.81 1.718-3.81 3.838 1.706 3.837 3.81 3.837z" fill="#000"/><path d="M149.595 28.103s-.506-6.387 1.877-10.45c2.383-4.067 9.086-9.842 18.733-4.103 9.647 5.739 6.356 14.748 4.176 18.467-2.179 3.72-4.92 5.564-9.443 6.486 0 0-5.86-6.762-2.197-14.145.002-.001-4.298 5.866-13.146 3.745z" fill="red"/><path d="M168.985 41.226l-.181-.175c-2.297-2.213-4.511-4.84-5.156-9.032-.415-2.692-.137-5.714.848-9.117-2.843 2.048-6.206 3.618-10.082 4.068-5 .579-8.443-.975-8.586-1.042l-.355-.165.024-.395c.01-.142.251-3.546 3.093-8.394 1.843-3.146 5.006-5.467 8.677-6.367 2.944-.723 7.629-.884 13.23 2.448 3.382 2.012 5.921 5.58 6.963 9.792a17.356 17.356 0 01-1.883 13.023c-2.967 5.063-6.202 5.33-6.339 5.34l-.253.016zm-2.883-19.575c-3.801 11.161.538 15.714 3.284 18.37.714-.17 3.011-.987 5.208-4.735a16.216 16.216 0 001.759-12.16c-.759-3.064-2.362-5.758-4.519-7.672-1.51 2.05-3.421 4.26-5.732 6.197zm-19.418 3.38c.999.366 3.882 1.238 7.663.786 3.772-.45 7.407-2.093 10.764-4.833.835-2.378 1.987-4.932 3.465-7.678-4.671-2.368-8.538-2.197-11.041-1.584-3.374.828-6.276 2.952-7.964 5.834-2.151 3.67-2.737 6.467-2.887 7.475zm22.896-11.18a57.828 57.828 0 00-2.605 5.472 35.954 35.954 0 003.967-4.595 12.143 12.143 0 00-1.029-.684c-.11-.065-.22-.13-.333-.194z" fill="#000"/><path d="M171.065 23.888a2.18 2.18 0 002.172-2.188 2.18 2.18 0 00-2.172-2.188c-1.2 0-2.172.98-2.172 2.188a2.18 2.18 0 002.172 2.188zm-15.145-5.633c1.2 0 2.172-.98 2.172-2.188a2.18 2.18 0 00-2.172-2.188c-1.2 0-2.172.98-2.172 2.188a2.18 2.18 0 002.172 2.188zm-1.487 6.325a2.18 2.18 0 002.172-2.189 2.18 2.18 0 00-2.172-2.188c-1.2 0-2.172.98-2.172 2.188a2.18 2.18 0 002.172 2.189zm8.172-7.798a1.893 1.893 0 001.886-1.9c0-1.05-.844-1.902-1.886-1.902a1.893 1.893 0 00-1.887 1.901c0 1.05.844 1.901 1.887 1.901zm9.735 13.414a1.894 1.894 0 001.887-1.9c0-1.05-.845-1.901-1.887-1.901a1.894 1.894 0 00-1.887 1.9c0 1.05.845 1.901 1.887 1.901zm-11.207-8.872c.89 0 1.611-.727 1.611-1.623s-.721-1.623-1.611-1.623c-.889 0-1.611.727-1.611 1.623s.722 1.623 1.611 1.623zm6.749 12.669a1.894 1.894 0 001.887-1.9c0-1.05-.845-1.902-1.887-1.902s-1.887.851-1.887 1.901.845 1.9 1.887 1.9zm4.228-23.286l-.656-.389 2.491-4.251c.523-.893.738-1.752.622-2.482-.104-.651-.468-1.18-1.053-1.527-.759-.45-1.421-.402-1.843-.282-.508.146-.957.48-1.199.893-.241.414-.34.907-.268 1.355.055.343.238.82.795 1.152.36.212.71.289 1.014.22a.89.89 0 00.584-.427c.215-.368.261-.763.118-1.033-.103-.194-.295-.305-.557-.32l.045-.765c.525.033.957.297 1.183.727.27.511.219 1.176-.135 1.781a1.656 1.656 0 01-1.072.786c-.347.079-.9.088-1.568-.308a2.382 2.382 0 01-1.16-1.688 2.853 2.853 0 01.363-1.867c.345-.588.946-1.04 1.647-1.24.565-.16 1.448-.23 2.439.359a2.91 2.91 0 011.417 2.065c.144.909-.103 1.945-.717 2.993l-2.49 4.248z" fill="#000"/><path d="M172.111 4.45a.607.607 0 00.605-.61.607.607 0 00-.605-.61.607.607 0 00-.605.61c0 .336.271.61.605.61z" fill="#000"/><path d="M172.109 4.832a.973.973 0 01-.501-.138.999.999 0 01-.348-1.358.982.982 0 011.349-.351.997.997 0 01.348 1.358.974.974 0 01-.848.49zm-.192-1.107a.226.226 0 00.249.333.228.228 0 00.137-.103.23.23 0 00-.08-.31.222.222 0 00-.306.08zm1.508 7.761l-.656-.389 2.491-4.252c1.227-2.09 3.085-2.807 4.734-1.826 1.634.972 1.898 2.85 1.206 4.03a2.834 2.834 0 01-1.447 1.222 2.35 2.35 0 01-2.028-.207c-1.149-.684-1.303-1.805-.861-2.558.353-.603.908-.97 1.483-.979h.021c.473 0 .903.251 1.181.694l-.643.41c-.14-.224-.331-.34-.548-.337-.302.004-.623.235-.84.603-.249.428-.164 1.058.591 1.508a1.582 1.582 0 001.385.146 2.048 2.048 0 001.048-.89c.424-.724.42-2.17-.938-2.979-1.27-.757-2.687-.16-3.693 1.556l-2.486 4.248z" fill="#000"/><path d="M178.741 8.39a.606.606 0 00.604-.609c0-.336-.27-.61-.604-.61a.607.607 0 00-.605.61c0 .337.271.61.605.61z" fill="#000"/><path d="M178.739 8.776a.98.98 0 01-.951-.745.984.984 0 01.106-.754.977.977 0 011.349-.348.997.997 0 01.348 1.358.99.99 0 01-.852.489zm.002-1.219a.227.227 0 00-.219.282.225.225 0 00.103.138.22.22 0 00.306-.08.226.226 0 00-.19-.34z" fill="#000"/></g><defs><clipPath id="clip0"><path fill="#fff" transform="translate(.111 .746)" d="M0 0h262.475v40.621H0z"/></clipPath></defs></svg>