<svg width="252" height="40" viewBox="0 0 252 40" fill="none" xmlns="http://www.w3.org/2000/svg"><g clip-path="url(#clip0)"><path d="M30.5 16.873h.965v-4.686H30.5c-5.001 0-8.423 3.227-9.256 7.913H18.39v-7.868h-4.87V20.1h-2.853c-.833-4.686-4.257-7.913-9.257-7.913H.445v4.686h.966c2.678 0 4.3 1.768 4.695 4.641L.14 32.342h5.57l4.388-8.133 3.422-.044v8.177h4.87v-8.177l3.422.044 4.389 8.133h5.571l-5.924-10.828c.395-2.873 1.974-4.641 4.651-4.641zm93.537-6.941c3.86 0 6.756-2.962 6.756-6.674h-3.904c0 1.812-1.185 2.917-2.852 2.917-1.667 0-2.853-1.105-2.853-2.917h-3.904c0 3.845 2.984 6.674 6.757 6.674zM42.126 24.12V12.23h-4.914v20.111h3.597l11.364-11.933V32.34h4.87V12.23h-3.597l-11.32 11.89zm55.72-12.507c-6.275 0-10.792 4.553-10.792 10.652 0 6.276 4.738 10.695 10.792 10.695 6.231 0 10.836-4.597 10.836-10.695 0-6.231-4.695-10.652-10.836-10.652zm0 16.531c-3.335 0-5.747-2.253-5.747-5.877 0-3.58 2.412-5.878 5.747-5.878 3.378 0 5.747 2.298 5.747 5.878 0 3.622-2.369 5.877-5.747 5.877zm-17.418-6.54c.745-.442 1.536-1.768 1.536-3.536 0-3.404-2.59-5.834-6.45-5.834H64.063v20.111h12.152c4.08 0 6.625-2.697 6.625-6.232 0-2.212-1.273-3.847-2.412-4.51zm-11.451-4.995h5.967c1.098 0 1.799.795 1.799 1.812s-.701 1.812-1.799 1.812h-5.968V16.61zm6.45 11.36h-6.45V23.77h6.45c1.14 0 1.973.973 1.973 2.12 0 1.149-.834 2.078-1.974 2.078zM219.1 14.268c-1.596-1.669-3.791-2.655-6.424-2.655-5.835 0-10.223 4.51-10.223 10.652 0 6.276 4.607 10.695 10.223 10.695 2.609 0 4.813-.999 6.42-2.691l.203 2.071h4.388V12.233h-4.388l-.199 2.035zm-5.988 14.01c-3.378 0-5.791-2.518-5.791-6.011 0-3.448 2.413-6.012 5.791-6.012 3.334 0 5.747 2.564 5.747 6.012.002 3.491-2.413 6.011-5.747 6.011zm36.021-.4v-15.69l-15.706.044v2.386c0 6.762-1.141 10.872-3.115 13.26h-2.369v9.415h4.211l.439-4.95h14.742l.438 4.95h4.211v-9.415h-2.851zm-4.87 0h-8.336c1.36-1.768 2.193-6.277 2.325-11.228h6.011v11.228zm-55.588-11.447c2.808 0 4.607 1.46 5.615 3.58l4.257-2.297c-1.93-3.934-5.44-6.1-9.872-6.1-6.231 0-10.836 4.508-10.836 10.65 0 6.013 4.519 10.696 10.836 10.696 4.3 0 8.073-2.297 9.828-6.1l-4.213-2.298c-1.01 2.121-2.852 3.536-5.615 3.536-3.685 0-5.878-2.386-5.878-5.833 0-3.404 2.193-5.834 5.878-5.834zM118.51 24.12V12.23h-4.87v20.111h3.597l11.32-11.933V32.34h4.87V12.23h-3.597l-11.32 11.89zm42.27 7.107c-.542.921-1.225 1.777-2.069 2.457a7.047 7.047 0 01-2.891 1.42c-1.053.247-2.155.227-3.192.013a9.587 9.587 0 01-5.312-3.182 7.85 7.85 0 01-1.521-2.815 8.035 8.035 0 01-.223-3.234c.135-1.083.519-2.132 1.065-3.07a8.392 8.392 0 012.162-2.412 8.43 8.43 0 012.902-1.413 8.422 8.422 0 013.224-.222 7.994 7.994 0 013.072 1.057 8.097 8.097 0 012.394 2.206 8.34 8.34 0 011.466 6.178 8.771 8.771 0 01-1.077 3.017zm-.948-.563c.957-1.603 1.169-3.595.674-5.363a7.069 7.069 0 00-1.225-2.432 7.222 7.222 0 00-2.027-1.779 7.258 7.258 0 00-2.527-.918 6.738 6.738 0 00-2.698.109 6.79 6.79 0 00-2.443 1.177 6.935 6.935 0 00-1.793 2.042 7.38 7.38 0 00-.897 2.57 7.524 7.524 0 00.106 2.732 7.59 7.59 0 001.05 2.57 6.29 6.29 0 002.029 1.952c.82.482 1.747.763 2.679.824.933.068 1.857-.066 2.73-.32a8.744 8.744 0 002.454-1.172 6.405 6.405 0 001.888-1.992z" fill="#000"/><path d="M155.543 32.305c4.546 0 8.232-3.713 8.232-8.293 0-4.58-3.686-8.293-8.232-8.293-4.547 0-8.232 3.713-8.232 8.293 0 4.58 3.685 8.293 8.232 8.293zm8.247-16.131c2.02 0 3.658-1.65 3.658-3.684 0-2.036-1.638-3.685-3.658-3.685s-3.657 1.65-3.657 3.684c0 2.035 1.637 3.685 3.657 3.685z" fill="#000"/><path d="M143.518 26.765s-.486-6.131 1.802-10.033c2.288-3.904 8.723-9.448 17.985-3.939 9.262 5.51 6.103 14.16 4.01 17.73-2.092 3.571-4.724 5.343-9.066 6.228 0 0-5.626-6.492-2.109-13.58.001-.002-4.127 5.63-12.622 3.594z" fill="red"/><path d="M162.135 39.366l-.174-.168c-2.206-2.125-4.331-4.647-4.95-8.672-.398-2.584-.132-5.485.814-8.753-2.73 1.967-5.958 3.474-9.68 3.906-4.801.555-8.106-.936-8.243-1l-.341-.16.023-.378c.009-.136.241-3.405 2.97-8.06 1.769-3.02 4.806-5.248 8.33-6.113 2.827-.693 7.325-.848 12.702 2.351 3.247 1.932 5.685 5.357 6.686 9.401a16.67 16.67 0 01-1.808 12.504c-2.849 4.86-5.955 5.118-6.087 5.127l-.242.015zm-2.769-18.794c-3.648 10.716.517 15.087 3.154 17.637.685-.162 2.891-.948 5-4.546a15.572 15.572 0 001.689-11.674c-.729-2.942-2.268-5.529-4.339-7.366-1.45 1.968-3.285 4.09-5.504 5.949zm-18.642 3.245c.958.352 3.727 1.189 7.357.754 3.621-.432 7.111-2.009 10.334-4.64.802-2.282 1.908-4.734 3.327-7.37-4.485-2.274-8.197-2.11-10.6-1.522-3.24.795-6.027 2.835-7.646 5.602-2.066 3.523-2.628 6.209-2.772 7.176zm21.982-10.734a55.626 55.626 0 00-2.502 5.254 34.46 34.46 0 003.81-4.412 11.86 11.86 0 00-.988-.656 16.702 16.702 0 00-.32-.186z" fill="#000"/><path d="M164.13 22.717c1.152 0 2.086-.94 2.086-2.1 0-1.16-.934-2.101-2.086-2.101-1.151 0-2.085.94-2.085 2.1 0 1.16.934 2.101 2.085 2.101zm-14.539-5.41c1.152 0 2.085-.94 2.085-2.1 0-1.161-.933-2.102-2.085-2.102s-2.085.941-2.085 2.101c0 1.16.933 2.101 2.085 2.101zm-1.428 6.074c1.152 0 2.086-.94 2.086-2.1 0-1.16-.934-2.101-2.086-2.101-1.151 0-2.085.94-2.085 2.1 0 1.16.934 2.101 2.085 2.101zm7.845-7.485c1 0 1.811-.817 1.811-1.825a1.818 1.818 0 00-1.811-1.825 1.818 1.818 0 00-1.812 1.825c0 1.008.811 1.825 1.812 1.825zm9.347 12.879a1.818 1.818 0 001.812-1.825 1.818 1.818 0 00-1.812-1.825c-1 0-1.811.817-1.811 1.825s.811 1.825 1.811 1.825zm-10.759-8.518c.855 0 1.547-.698 1.547-1.558 0-.86-.692-1.558-1.547-1.558-.854 0-1.546.697-1.546 1.558 0 .86.692 1.558 1.546 1.558zm6.479 12.163a1.818 1.818 0 001.812-1.826 1.818 1.818 0 00-1.812-1.825c-1 0-1.811.818-1.811 1.825 0 1.008.811 1.825 1.811 1.825zm4.059-22.357l-.63-.373 2.392-4.082c.503-.858.709-1.682.598-2.383a2.041 2.041 0 00-1.012-1.466c-.729-.432-1.364-.386-1.769-.27-.488.14-.919.46-1.151.857a1.99 1.99 0 00-.257 1.3c.053.33.228.788.763 1.106.345.204.681.278.973.212a.853.853 0 00.561-.41c.206-.354.25-.733.113-.992-.098-.186-.283-.293-.535-.307l.044-.734c.504.031.918.285 1.136.697.259.491.21 1.13-.13 1.71a1.59 1.59 0 01-1.03.755c-.332.075-.864.085-1.504-.296a2.287 2.287 0 01-1.115-1.62 2.75 2.75 0 01.349-1.793c.331-.564.908-.999 1.582-1.19.542-.154 1.389-.22 2.341.344a2.792 2.792 0 011.36 1.983c.139.872-.098 1.867-.688 2.874l-2.391 4.078z" fill="#000"/><path d="M165.134 4.053a.583.583 0 00.581-.585.583.583 0 00-.581-.585c-.32 0-.58.262-.58.585 0 .323.26.585.58.585z" fill="#000"/><path d="M165.133 4.42a.928.928 0 01-.48-.132.958.958 0 01-.335-1.304.943.943 0 011.295-.337.957.957 0 01.334 1.305.936.936 0 01-.814.469zm-.185-1.062a.218.218 0 00.24.32.218.218 0 00.131-.1.22.22 0 00-.077-.298.214.214 0 00-.294.078zm1.448 7.454l-.629-.373 2.392-4.082c1.178-2.007 2.962-2.695 4.545-1.753 1.568.932 1.822 2.735 1.157 3.868-.317.543-.825.97-1.389 1.174a2.257 2.257 0 01-1.947-.199c-1.103-.656-1.251-1.733-.827-2.456.34-.58.873-.93 1.424-.94h.02c.455 0 .868.241 1.135.666l-.618.394c-.135-.215-.317-.326-.526-.324-.29.004-.599.226-.807.58-.239.41-.157 1.015.568 1.447a1.52 1.52 0 001.33.14 1.965 1.965 0 001.006-.853c.407-.696.403-2.085-.901-2.86-1.219-.728-2.58-.155-3.546 1.493l-2.387 4.078z" fill="#000"/><path d="M171.501 7.842c.321 0 .58-.262.58-.585a.582.582 0 00-.58-.585.583.583 0 00-.581.585c0 .323.26.585.581.585z" fill="#000"/><path d="M171.498 8.208a.947.947 0 01-.913-.716.95.95 0 01.103-.722.936.936 0 01.579-.438.92.92 0 01.715.103.952.952 0 01-.484 1.773zm.002-1.17a.217.217 0 00-.111.403c.102.06.235.028.294-.077a.218.218 0 00-.077-.296.195.195 0 00-.106-.03z" fill="#000"/></g><defs><clipPath id="clip0"><path fill="#fff" transform="translate(0 .5)" d="M0 0h252v39H0z"/></clipPath></defs></svg>