<svg width="263" height="41" viewBox="0 0 263 41" fill="none" xmlns="http://www.w3.org/2000/svg"><g clip-path="url(#logo-white)"><path d="M31.878 17.326h1.007v-4.88h-1.007c-5.21 0-8.773 3.36-9.64 8.24h-2.972v-8.195h-5.072v8.195h-2.971c-.868-4.88-4.434-8.24-9.641-8.24H.575v4.88h1.007c2.788 0 4.479 1.841 4.89 4.834L.256 33.438h5.803l4.57-8.471 3.565-.046v8.517h5.072v-8.517l3.565.046 4.57 8.471h5.803l-6.17-11.278c.41-2.993 2.056-4.834 4.844-4.834zm97.427-7.226c4.021 0 7.037-3.085 7.037-6.952h-4.066c0 1.888-1.235 3.04-2.971 3.04-1.737 0-2.971-1.152-2.971-3.04h-4.066c0 4.005 3.107 6.952 7.037 6.952zM43.987 24.876V12.492H38.87V33.44h3.747l11.836-12.43v12.43h5.073V12.492h-3.747l-11.79 12.384zm58.037-13.028c-6.535 0-11.24 4.742-11.24 11.094 0 6.538 4.935 11.14 11.24 11.14 6.49 0 11.286-4.788 11.286-11.14 0-6.49-4.89-11.094-11.286-11.094zm0 17.218c-3.473 0-5.986-2.348-5.986-6.122 0-3.729 2.513-6.122 5.986-6.122 3.519 0 5.986 2.393 5.986 6.122 0 3.773-2.467 6.122-5.986 6.122zm-18.142-6.811c.776-.46 1.6-1.842 1.6-3.683 0-3.545-2.698-6.076-6.719-6.076H66.836v20.947h12.658c4.249 0 6.9-2.81 6.9-6.492 0-2.303-1.326-4.006-2.512-4.696zm-11.928-5.202h6.216c1.143 0 1.873.827 1.873 1.887s-.73 1.887-1.873 1.887h-6.216v-3.774zm6.718 11.831h-6.718v-4.372h6.718c1.189 0 2.056 1.014 2.056 2.21 0 1.195-.87 2.162-2.056 2.162zm149.645-14.271c-1.662-1.738-3.948-2.765-6.691-2.765-6.077 0-10.647 4.696-10.647 11.094 0 6.538 4.798 11.14 10.647 11.14 2.718 0 5.014-1.04 6.687-2.803l.211 2.157h4.571V12.493h-4.571l-.207 2.12zm-6.237 14.593c-3.518 0-6.031-2.624-6.031-6.262 0-3.591 2.513-6.262 6.031-6.262 3.473 0 5.986 2.671 5.986 6.262.002 3.637-2.513 6.262-5.986 6.262zm37.52-.418V12.445l-16.359.046v2.486c0 7.043-1.189 11.324-3.245 13.81h-2.467v9.807h4.386l.457-5.156h15.355l.456 5.156h4.386v-9.806H259.6zm-5.073 0h-8.682c1.417-1.842 2.284-6.538 2.421-11.694h6.261v11.694zm-57.899-11.922c2.925 0 4.799 1.52 5.849 3.729l4.433-2.394c-2.01-4.096-5.666-6.353-10.282-6.353-6.489 0-11.286 4.696-11.286 11.094 0 6.262 4.707 11.14 11.286 11.14 4.479 0 8.409-2.393 10.237-6.354l-4.388-2.393c-1.052 2.21-2.971 3.683-5.849 3.683-3.838 0-6.122-2.485-6.122-6.076 0-3.545 2.284-6.076 6.122-6.076zm-73.081 8.01V12.492h-5.072V33.44h3.747l11.79-12.43v12.43h5.073V12.492h-3.747l-11.791 12.384z" fill="#fff"/><path d="M167.574 32.274c-.565.96-1.276 1.851-2.155 2.56a7.34 7.34 0 01-3.011 1.48c-1.097.256-2.244.235-3.324.013a9.98 9.98 0 01-5.533-3.315 8.172 8.172 0 01-1.585-2.931 8.373 8.373 0 01-.232-3.369c.141-1.129.541-2.22 1.109-3.198a8.754 8.754 0 015.274-3.983 8.78 8.78 0 013.359-.232 8.331 8.331 0 013.2 1.101 8.438 8.438 0 012.493 2.298 8.69 8.69 0 011.527 6.434 9.143 9.143 0 01-1.122 3.142zm-.987-.586c.997-1.669 1.217-3.744.702-5.585a7.361 7.361 0 00-1.276-2.533 7.5 7.5 0 00-2.112-1.853 7.556 7.556 0 00-2.632-.956 7.016 7.016 0 00-2.809.113 7.069 7.069 0 00-2.545 1.226 7.24 7.24 0 00-1.868 2.127 7.691 7.691 0 00-.934 2.677 7.835 7.835 0 00.111 2.845 7.89 7.89 0 001.093 2.677 6.566 6.566 0 002.113 2.033 6.352 6.352 0 002.791.858c.972.071 1.934-.069 2.843-.333a9.104 9.104 0 002.556-1.22c.782-.541 1.474-1.24 1.967-2.076z" fill="#000"/><path d="M162.119 33.4c4.736 0 8.574-3.867 8.574-8.637 0-4.77-3.838-8.638-8.574-8.638-4.735 0-8.574 3.867-8.574 8.638 0 4.77 3.839 8.637 8.574 8.637zm8.591-16.802c2.104 0 3.81-1.719 3.81-3.838 0-2.12-1.706-3.838-3.81-3.838s-3.81 1.718-3.81 3.838 1.706 3.838 3.81 3.838z" fill="#000"/><path d="M149.594 27.63s-.506-6.386 1.877-10.45c2.383-4.066 9.086-9.841 18.733-4.103 9.647 5.739 6.356 14.748 4.176 18.468-2.179 3.719-4.92 5.564-9.443 6.485 0 0-5.86-6.761-2.197-14.144.002-.002-4.298 5.865-13.146 3.744z" fill="red"/><path d="M168.985 40.753l-.181-.174c-2.297-2.213-4.511-4.84-5.156-9.033-.415-2.692-.137-5.714.848-9.116-2.843 2.048-6.206 3.617-10.082 4.067-5 .579-8.443-.975-8.586-1.042l-.355-.165.024-.395c.01-.141.251-3.546 3.093-8.394 1.843-3.146 5.006-5.467 8.677-6.367 2.944-.722 7.629-.883 13.23 2.449 3.382 2.012 5.921 5.58 6.963 9.79a17.356 17.356 0 01-1.883 13.025c-2.967 5.062-6.202 5.33-6.339 5.34l-.253.015zm-2.883-19.575c-3.801 11.162.538 15.714 3.284 18.37.714-.169 3.011-.987 5.208-4.735a16.216 16.216 0 001.759-12.16c-.759-3.063-2.362-5.757-4.519-7.671-1.51 2.05-3.421 4.26-5.732 6.196zm-19.418 3.38c.999.366 3.882 1.238 7.663.786 3.772-.45 7.407-2.093 10.764-4.832.835-2.378 1.987-4.933 3.465-7.678-4.671-2.369-8.538-2.198-11.041-1.585-3.374.828-6.276 2.953-7.964 5.835-2.151 3.669-2.737 6.466-2.887 7.474zm22.896-11.18a57.84 57.84 0 00-2.605 5.472 35.947 35.947 0 003.967-4.595 12.142 12.142 0 00-1.029-.684c-.11-.065-.22-.13-.333-.193z" fill="#000"/><path d="M171.065 23.415a2.18 2.18 0 002.172-2.188 2.18 2.18 0 00-2.172-2.188c-1.2 0-2.172.98-2.172 2.188a2.18 2.18 0 002.172 2.188zm-15.145-5.632c1.2 0 2.172-.98 2.172-2.189a2.18 2.18 0 00-2.172-2.188c-1.2 0-2.172.98-2.172 2.188a2.18 2.18 0 002.172 2.189zm-1.486 6.324a2.18 2.18 0 002.172-2.188 2.18 2.18 0 00-2.172-2.189c-1.2 0-2.172.98-2.172 2.189a2.18 2.18 0 002.172 2.188zm8.17-7.797a1.893 1.893 0 001.886-1.901c0-1.05-.844-1.901-1.886-1.901a1.893 1.893 0 00-1.887 1.9c0 1.05.844 1.901 1.887 1.901zm9.736 13.413c1.042 0 1.887-.85 1.887-1.9 0-1.05-.845-1.901-1.887-1.901s-1.887.85-1.887 1.9c0 1.05.845 1.901 1.887 1.901zm-11.206-8.872c.89 0 1.611-.726 1.611-1.623 0-.896-.721-1.623-1.611-1.623-.889 0-1.611.727-1.611 1.623 0 .897.722 1.623 1.611 1.623zm6.749 12.669a1.894 1.894 0 001.887-1.9c0-1.05-.845-1.901-1.887-1.901s-1.887.85-1.887 1.9c0 1.05.845 1.901 1.887 1.901zm4.227-23.285l-.656-.39 2.491-4.251c.523-.893.738-1.751.622-2.481-.104-.652-.468-1.18-1.053-1.528-.759-.45-1.421-.402-1.843-.281-.508.145-.957.479-1.199.893-.241.414-.34.906-.268 1.354.055.343.238.82.795 1.152.36.213.71.29 1.014.22a.89.89 0 00.584-.427c.215-.368.261-.763.118-1.033-.103-.193-.295-.304-.557-.32l.045-.764c.525.032.957.297 1.183.726.27.511.219 1.176-.135 1.782a1.656 1.656 0 01-1.072.785c-.347.079-.9.089-1.568-.308a2.382 2.382 0 01-1.16-1.688 2.853 2.853 0 01.363-1.866c.345-.589.946-1.04 1.647-1.24.565-.161 1.448-.23 2.439.358a2.91 2.91 0 011.417 2.066c.144.908-.103 1.945-.717 2.993l-2.49 4.248z" fill="#000"/><path d="M172.111 3.976a.607.607 0 00.605-.609.607.607 0 00-.605-.61.607.607 0 00-.605.61c0 .337.271.61.605.61z" fill="#000"/><path d="M172.108 4.36a.973.973 0 01-.501-.139.999.999 0 01-.348-1.358.982.982 0 011.349-.35.997.997 0 01.348 1.358.974.974 0 01-.848.488zm-.192-1.108a.226.226 0 00.249.333.228.228 0 00.137-.103.23.23 0 00-.08-.31.222.222 0 00-.306.08zm1.51 7.761l-.656-.389 2.491-4.251c1.227-2.09 3.085-2.807 4.734-1.826 1.634.971 1.898 2.849 1.206 4.03a2.834 2.834 0 01-1.447 1.222 2.35 2.35 0 01-2.028-.207c-1.149-.684-1.303-1.805-.861-2.558.353-.604.908-.97 1.483-.98h.021c.473 0 .903.252 1.181.694l-.643.41c-.141-.224-.331-.339-.548-.337-.302.004-.623.236-.84.604-.249.427-.164 1.057.591 1.508a1.582 1.582 0 001.385.145 2.048 2.048 0 001.048-.889c.424-.724.42-2.17-.938-2.98-1.27-.756-2.687-.16-3.693 1.556l-2.486 4.248z" fill="#000"/><path d="M178.74 7.918a.607.607 0 00.605-.61.607.607 0 00-.605-.609.607.607 0 00-.605.61c0 .336.271.609.605.609z" fill="#000"/><path d="M178.739 8.303a.98.98 0 01-.951-.745.984.984 0 01.106-.753.977.977 0 011.349-.349.997.997 0 01.348 1.358.99.99 0 01-.852.49zm.002-1.219a.227.227 0 00-.219.282.225.225 0 00.103.138.22.22 0 00.306-.08.226.226 0 00-.19-.34z" fill="#000"/></g><defs><clipPath id="logo-white"><path fill="#fff" transform="translate(.111 .273)" d="M0 0h262.475v40.621H0z"/></clipPath></defs></svg>