<svg width="37" height="36" viewBox="0 0 37 36" fill="none" xmlns="http://www.w3.org/2000/svg"><g clip-path="url(#BiologicalProducts)"><path d="M33.141 3.28c-.149 2.058-.768 5.98-3.266 8.41-.689.67-1.389 1.139-2.082 1.396-.725.27-1.088 1.06-.81 1.765.213.545.747.88 1.313.88.167 0 .336-.03.502-.091 1.064-.396 2.095-1.075 3.065-2.017 4.125-4.011 4.154-10.703 4.135-11.69v-.017c.026-.752-.58-1.383-1.353-1.41-.315-.013-7.772-.23-12.14 4.016-1.68 1.634-2.526 3.413-2.514 5.285.01 1.544.617 2.778 1.01 3.512a17.06 17.06 0 00-3.517 5.999 32.033 32.033 0 00-2.406-3.389c.392-.745.932-1.925.941-3.38.013-1.873-.833-3.651-2.514-5.285C9.138 3.018 1.68 3.235 1.365 3.246c-.769.028-1.369.65-1.352 1.397-.02.864-.038 7.664 4.135 11.721 1.668 1.622 3.494 2.445 5.427 2.445.025 0 1.972-.012 3.617-.774.505.645.931 1.24 1.285 1.766 1.492 2.226 2.05 3.75 2.059 3.776.026.073.057.142.094.208-.015.295-.024.591-.024.888v1.717a4.875 4.875 0 00-2.034-.443c-2.447 0-4.47 1.8-4.742 4.109-2.116.218-3.77 1.963-3.77 4.077 0 .755.629 1.367 1.405 1.367.777 0 1.406-.612 1.406-1.367 0-.753.63-1.366 1.406-1.366.191 0 .376.036.549.107.508.21 1.096.112 1.502-.252a1.34 1.34 0 00.382-1.435 1.855 1.855 0 01-.1-.6c0-1.052.88-1.907 1.962-1.907 1.011 0 1.87.767 1.953 1.746a1.38 1.38 0 001.097 1.22 1.42 1.42 0 001.524-.655 1.966 1.966 0 011.694-.958c.984 0 1.816.715 1.933 1.664.05.406.285.768.64.988.353.22.79.275 1.19.148a1.44 1.44 0 01.434-.066c.776 0 1.406.613 1.406 1.366 0 .755.63 1.367 1.406 1.367.776 0 1.406-.612 1.406-1.367 0-2.213-1.813-4.022-4.07-4.098-.75-1.625-2.429-2.735-4.345-2.735-.408 0-.808.051-1.194.149 1.07-1.746 3.482-3.908 4.699-4.312.734-.244 1.126-1.02.875-1.735-.25-.714-1.05-1.095-1.784-.851-1.157.384-2.644 1.467-3.952 2.756.316-3.304 1.778-6.38 4.196-8.778l5.874-5.826a1.34 1.34 0 00-.02-1.933 1.434 1.434 0 00-1.988.02l-4.452 4.415a3.986 3.986 0 01-.291-1.415c-.008-1.13.546-2.221 1.69-3.335 2.498-2.428 6.531-3.03 8.648-3.176zM13.033 13.61a41.377 41.377 0 00-4.702-4.196 1.433 1.433 0 00-1.974.227 1.341 1.341 0 00.233 1.92 38.225 38.225 0 014.7 4.253c-.624.174-1.308.261-1.715.261-1.176 0-2.301-.537-3.44-1.644-2.498-2.43-3.117-6.353-3.266-8.41 2.118.145 6.15.747 8.648 3.175 1.145 1.114 1.698 2.205 1.69 3.335a3.756 3.756 0 01-.174 1.08z" fill="#1E7243"/></g><defs><clipPath id="BiologicalProducts"><path fill="#fff" transform="translate(.004 .5)" d="M0 0h36v35H0z"/></clipPath></defs></svg>