<svg width="35" height="34" viewBox="0 0 35 34" fill="none" xmlns="http://www.w3.org/2000/svg"><g clip-path="url(#clip0)"><path d="M31.302 23.915l-3.453-1.994 2.992-1.764a1.16 1.16 0 00-1.178-2L25.54 20.59 19.325 17l6.214-3.587 4.124 2.43a1.16 1.16 0 101.178-2l-2.993-1.763 3.454-1.994a1.16 1.16 0 10-1.16-2.01l-3.453 1.994-.032-3.475a1.16 1.16 0 10-2.32.021l.043 4.787-6.215 3.588V7.814l4.167-2.355a1.16 1.16 0 10-1.142-2.02l-3.025 1.71V1.16a1.16 1.16 0 00-2.32 0v3.988l-3.026-1.71a1.16 1.16 0 10-1.142 2.02l4.167 2.356v7.176l-6.215-3.588.043-4.787a1.16 1.16 0 00-1.15-1.17h-.01a1.16 1.16 0 00-1.16 1.15l-.032 3.474-3.453-1.994a1.16 1.16 0 10-1.16 2.01l3.453 1.994-2.993 1.764a1.16 1.16 0 001.178 2l4.124-2.43L14.684 17l-6.216 3.59-4.123-2.431a1.16 1.16 0 00-1.179 1.998l2.994 1.765-3.454 1.994a1.16 1.16 0 001.16 2.01L7.32 23.93l.031 3.474a1.16 1.16 0 001.16 1.15h.01a1.16 1.16 0 001.15-1.17l-.043-4.787 6.216-3.589v7.177l-4.167 2.355a1.16 1.16 0 101.142 2.02l3.025-1.71v3.989a1.16 1.16 0 002.32 0v-3.988l3.026 1.71a1.16 1.16 0 101.142-2.02l-4.167-2.356v-7.177l6.215 3.589-.044 4.786a1.16 1.16 0 102.32.022l.032-3.475 3.454 1.994a1.16 1.16 0 101.16-2.01z" fill="#1E7243" stroke="#1E7243" stroke-width=".4"/></g><defs><clipPath id="clip0"><path fill="#fff" transform="translate(.004)" d="M0 0h34v34H0z"/></clipPath></defs></svg>