<svg width="46" height="33" viewBox="0 0 46 33" fill="none" xmlns="http://www.w3.org/2000/svg"><path d="M42.621 17.34l-1.613-.538-2.684-8.59a4.201 4.201 0 00-4.027-2.961h-5.668V1.735c0-.777-.63-1.407-1.406-1.407H1.906C1.13.328.5.958.5 1.735v26.019c0 .777.63 1.406 1.406 1.406h3.02a4.93 4.93 0 004.716 3.517 4.93 4.93 0 004.717-3.517h14.476a4.93 4.93 0 004.717 3.517 4.93 4.93 0 004.717-3.517H44.1c.777 0 1.407-.63 1.407-1.406v-6.411a4.214 4.214 0 00-2.886-4.003zm-4.653-.838h-3.713v-4.219h2.394l1.319 4.22zM3.313 3.141h22.503v23.207H14.36a4.93 4.93 0 00-4.717-3.517 4.93 4.93 0 00-4.717 3.517H3.313V3.14zm6.329 26.723a2.112 2.112 0 01-2.11-2.11c0-1.163.947-2.11 2.11-2.11 1.163 0 2.11.947 2.11 2.11 0 1.163-.947 2.11-2.11 2.11zm23.91 0a2.112 2.112 0 01-2.11-2.11c0-1.163.946-2.11 2.11-2.11 1.163 0 2.11.947 2.11 2.11 0 1.163-.947 2.11-2.11 2.11zm4.717-3.516a4.93 4.93 0 00-4.717-3.517 4.93 4.93 0 00-4.717 3.517h-.206V8.064h5.668a1.4 1.4 0 011.342.987l.131.42h-2.922c-.776 0-1.406.629-1.406 1.405v7.033c0 .777.63 1.406 1.407 1.406h6.804l2.079.694c.575.191.962.727.962 1.334v.785h-1.407a1.406 1.406 0 000 2.813h1.407v1.407h-4.425z" fill="#1E7243"/></svg>