<svg width="22" height="25" viewBox="0 0 22 25" fill="none" xmlns="http://www.w3.org/2000/svg"><path d="M8.271 10.758a2.786 2.786 0 012.782-2.781 2.786 2.786 0 012.78 2.78 2.785 2.785 0 01-2.78 2.782 2.785 2.785 0 01-2.782-2.781z" stroke="#005827" stroke-width="2"/><path d="M4.582 4.672h0a9.084 9.084 0 016.47-2.68 9.08 9.08 0 016.47 2.68 9.085 9.085 0 012.68 6.471c0 2.426-1.15 4.724-2.732 6.776-1.578 2.046-3.501 3.74-4.9 4.971h0l-.011.01c-.38.333-.722.635-.999.894a.74.74 0 01-.508.198.74.74 0 01-.508-.198h0c-.276-.258-.618-.559-.995-.891l-.015-.013h0c-1.399-1.23-3.321-2.925-4.9-4.971-1.582-2.052-2.733-4.35-2.733-6.776 0-2.446.95-4.74 2.68-6.47z" stroke="#005827" stroke-width="2"/></svg>