<svg width="25" height="25" viewBox="0 0 25 25" fill="none" xmlns="http://www.w3.org/2000/svg"><path d="M23.15 12.623a.94.94 0 01-.941-.94c0-5.186-4.22-9.405-9.405-9.405a.94.94 0 010-1.881C18.87.27 24.215 5.617 24.09 11.683a.94.94 0 01-.94.94zm-6.584-.94a3.766 3.766 0 00-3.762-3.762.94.94 0 000 1.88c1.037 0 1.88.845 1.88 1.882a.94.94 0 001.882 0zm3.762 0c0-4.149-3.375-7.524-7.524-7.524a.94.94 0 000 1.88 5.65 5.65 0 015.643 5.644.94.94 0 001.88 0zm-3.742 12.79a.94.94 0 00.644-.274l3.386-3.386a.94.94 0 000-1.33l-5.114-5.114a.94.94 0 00-1.33 0l-1.275 1.275c-1.276-.613-3.465-2.81-4.058-4.083l1.263-1.263a.946.946 0 000-1.33L4.957 3.823a.94.94 0 00-1.33 0L.288 7.162a.94.94 0 00-.275.65c-.015 6.893 9.334 16.576 16.532 16.662h.041zM4.292 5.819l3.815 3.815L7.06 10.68a.94.94 0 00-.244.907c.494 1.986 4.102 5.59 6.05 6.083a.94.94 0 00.908-.243l1.063-1.063 3.784 3.784-2.426 2.426c-5.216-.305-13.605-7.557-14.28-14.38l2.377-2.376z" fill="#005827"/></svg>