<svg width="26" height="25" viewBox="0 0 26 25" fill="none" xmlns="http://www.w3.org/2000/svg"><path d="M21.458 4.547h1.02a3.517 3.517 0 013.5 3.537c.013 4.472.013 8.945 0 13.43 0 2.03-1.47 3.488-3.5 3.488-5.991.012-11.983.012-17.975 0-2.017 0-3.488-1.422-3.488-3.428-.024-6.064-.036-12.117 0-18.17C1.015 1.449 2.45.027 4.406.027c4.533-.024 9.067-.024 13.612 0 1.993.012 3.415 1.483 3.44 3.488v1.033zm-2.297 18.17V3.672c0-.996-.402-1.398-1.398-1.398H4.71c-1.07 0-1.446.377-1.446 1.471v17.368c0 1.276.316 1.592 1.628 1.592h13.782a7.9 7.9 0 00.487.012zm2.345-15.86c-.024.12-.048.194-.048.279 0 4.813-.013 9.626 0 14.45 0 .693.437 1.107 1.093 1.119.681.012 1.13-.413 1.13-1.143.013-4.497.013-8.981.013-13.478 0-.62-.425-1.143-.985-1.215-.376-.05-.79-.013-1.203-.013z" fill="#C9D200"/></svg>