<svg width="25" height="26" viewBox="0 0 25 26" fill="none" xmlns="http://www.w3.org/2000/svg"><path d="M20.466 4.54h1.021a3.517 3.517 0 013.5 3.536c.013 4.473.013 8.945 0 13.43 0 2.03-1.47 3.488-3.5 3.488-5.991.012-11.983.012-17.975 0-2.017 0-3.488-1.422-3.488-3.427C0 15.502-.012 9.449.024 3.397.024 1.44 1.458.018 3.414.018c4.534-.024 9.068-.024 13.613 0 1.993.012 3.415 1.483 3.44 3.488V4.54zM18.17 22.708V3.664c0-.996-.4-1.397-1.397-1.397H3.719c-1.07 0-1.447.376-1.447 1.47v17.368c0 1.276.316 1.592 1.629 1.592h13.782c.195.012.39.012.486.012zm2.346-15.86c-.024.121-.049.194-.049.28 0 4.812-.012 9.625 0 14.45 0 .692.438 1.106 1.094 1.118.68.012 1.13-.413 1.13-1.143.013-4.496.013-8.981.013-13.478 0-.62-.426-1.142-.985-1.215-.377-.049-.79-.012-1.203-.012z" fill="#C9D200"/><path d="M10.233 11.357h4.375c.839 0 1.289.389 1.3 1.106.013.741-.449 1.179-1.3 1.179-2.929.012-5.87.012-8.799 0-1.009 0-1.592-.827-1.203-1.653.23-.474.632-.644 1.142-.644 1.483.012 2.978.012 4.485.012zm-.049 6.818c-1.458 0-2.917.012-4.363 0-.826 0-1.288-.413-1.3-1.118-.012-.705.486-1.155 1.324-1.167a1060.7 1060.7 0 018.739 0c.887 0 1.373.45 1.349 1.191-.024.693-.462 1.082-1.252 1.094h-4.497zM8.033 6.824c.73 0 1.458-.012 2.188 0 .74.012 1.154.425 1.154 1.118 0 .68-.425 1.118-1.142 1.13-1.52.012-3.027.012-4.546 0-.717-.012-1.166-.462-1.166-1.118 0-.668.425-1.106 1.154-1.118.79-.024 1.58-.012 2.358-.012z" fill="#C9D200"/></svg>