<svg width="51" height="51" viewBox="0 0 51 51" xmlns="http://www.w3.org/2000/svg"><path d="M49.793 25.39a23.94 23.94 0 01-24 24 23.94 23.94 0 01-24-24 23.94 23.94 0 0124-24 23.94 23.94 0 0124 24z" stroke="#C9D200" stroke-width="2"/><path d="M24.074 30.047c-1.968-.188-3.75-.657-5.343-1.875-.188-.188-.375-.282-.563-.47-.656-.655-.75-1.405-.187-2.155.468-.657 1.218-.844 1.968-.47.188.095.282.188.47.282 2.812 1.969 6.75 1.969 9.655.094.282-.188.563-.375.938-.469.656-.187 1.312.094 1.687.656.375.657.375 1.313-.093 1.875-.75.844-1.782 1.407-2.813 1.782-1.031.375-2.062.562-3.187.75l.375.375c1.5 1.5 3 2.906 4.406 4.406.469.469.562 1.125.375 1.687-.281.657-.938 1.032-1.594 1.032-.375 0-.75-.282-1.031-.563-1.125-1.125-2.25-2.156-3.375-3.281-.281-.281-.469-.281-.75 0l-3.375 3.375a1.433 1.433 0 01-1.688.281c-.656-.281-1.03-.937-1.03-1.594 0-.468.28-.75.562-1.03 1.5-1.407 2.906-2.907 4.406-4.313-.094-.094 0-.188.187-.375z" fill="#fff"/><path d="M25.2 25.078c-3.563 0-6.47-2.906-6.47-6.375 0-3.562 2.907-6.375 6.47-6.375 3.562 0 6.468 2.906 6.468 6.469.094 3.469-2.813 6.281-6.469 6.281zm3.28-6.469c0-1.78-1.406-3.093-3.187-3.093a3.161 3.161 0 00-3.188 3.187c0 1.688 1.407 3.094 3.188 3.094a3.161 3.161 0 003.188-3.188z" fill="#fff"/></svg>