<svg width="17" height="26" viewBox="0 0 17 26" fill="none" xmlns="http://www.w3.org/2000/svg"><path d="M15.803 15.642c.59-.59.674-1.434.168-2.277-.421-.675-1.18-1.012-2.024-.843a2.85 2.85 0 00-1.012.506c-2.614 1.77-6.156 1.686-8.77-.085l-.506-.253c-.928-.421-1.855-.253-2.361.59-.59.844-.506 1.772.253 2.53.168.17.337.254.421.422l.085.085c1.18.927 2.614 1.518 4.47 1.77L5.43 19.184 2.563 22.05c-.253.253-.59.675-.59 1.265 0 .76.42 1.518 1.18 1.855.253.169.506.169.759.169.421 0 .927-.169 1.265-.59l3.289-3.29.084-.084s.084 0 .084.085c.675.759 1.434 1.433 2.109 2.192l1.012 1.012c.421.422.759.59 1.265.59.759.085 1.602-.421 1.94-1.18a1.688 1.688 0 00-.423-2.024c-.843-.843-1.686-1.77-2.614-2.614l-1.433-1.434c.759-.084 1.602-.253 2.36-.59 1.266-.422 2.194-1.012 2.953-1.771z" fill="#1E7243"/><path d="M8.55 13.28c3.626 0 6.578-2.867 6.578-6.493 0-1.77-.675-3.457-1.94-4.722C11.923.8 10.321.125 8.634.125c-3.626 0-6.493 2.952-6.577 6.493 0 1.771.674 3.374 1.94 4.639 1.18 1.349 2.782 2.024 4.553 2.024zM6.695 4.849a2.616 2.616 0 011.855-.76c1.518 0 2.614 1.181 2.614 2.615 0 1.518-1.18 2.614-2.614 2.614-1.518 0-2.614-1.18-2.614-2.614 0-.675.253-1.35.759-1.855z" fill="#1E7243"/><path d="M15.803 15.642c.59-.59.674-1.434.168-2.277-.421-.675-1.18-1.012-2.024-.843a2.85 2.85 0 00-1.012.506c-2.614 1.77-6.156 1.686-8.77-.085l-.506-.253c-.928-.421-1.855-.253-2.361.59-.59.844-.506 1.772.253 2.53.168.17.337.254.421.422l.085.085c1.18.927 2.614 1.518 4.47 1.77L5.43 19.184 2.563 22.05c-.253.253-.59.675-.59 1.265 0 .76.42 1.518 1.18 1.855.253.169.506.169.759.169.421 0 .927-.169 1.265-.59l3.289-3.29.084-.084s.084 0 .084.085c.675.759 1.434 1.433 2.109 2.192l1.012 1.012c.421.422.759.59 1.265.59.759.085 1.602-.421 1.94-1.18a1.688 1.688 0 00-.423-2.024c-.843-.843-1.686-1.77-2.614-2.614l-1.433-1.434c.759-.084 1.602-.253 2.36-.59 1.266-.422 2.194-1.012 2.953-1.771z" fill="#1E7243"/></svg>