<svg width="46" height="45" viewBox="0 0 46 45" fill="none" xmlns="http://www.w3.org/2000/svg"><circle cx="22.785" cy="22.5" r="22" stroke="#C7D0D9"/><path d="M29.802 25.642c.59-.59.675-1.434.17-2.277-.423-.675-1.181-1.012-2.025-.843a2.85 2.85 0 00-1.012.506c-2.614 1.77-6.156 1.686-8.77-.085l-.506-.253c-.928-.421-1.855-.253-2.361.59-.59.844-.506 1.772.252 2.53.17.17.338.254.422.422l.085.085c1.18.927 2.614 1.518 4.47 1.77l-1.097 1.097-2.867 2.867c-.253.253-.59.675-.59 1.265 0 .76.42 1.518 1.18 1.855.253.169.506.169.759.169.422 0 .928-.169 1.265-.59l3.289-3.29.084-.084s.084 0 .084.085c.675.759 1.434 1.433 2.109 2.192l1.012 1.012c.421.422.759.59 1.265.59.759.085 1.602-.421 1.94-1.18a1.688 1.688 0 00-.422-2.024c-.844-.843-1.687-1.77-2.615-2.614l-1.433-1.434c.759-.084 1.602-.253 2.36-.59 1.266-.422 2.194-1.012 2.952-1.771z" fill="#1E7243"/><path d="M22.55 23.28c3.626 0 6.578-2.867 6.578-6.493a6.633 6.633 0 00-1.94-4.722c-1.265-1.265-2.867-1.94-4.554-1.94-3.626 0-6.493 2.952-6.578 6.494 0 1.77.675 3.373 1.94 4.638 1.18 1.349 2.783 2.024 4.554 2.024zm-1.855-8.433a2.617 2.617 0 011.855-.758c1.518 0 2.614 1.18 2.614 2.614 0 1.518-1.18 2.614-2.614 2.614-1.518 0-2.614-1.18-2.614-2.614 0-.675.253-1.35.759-1.855z" fill="#1E7243"/><path d="M29.802 25.642c.59-.59.675-1.434.17-2.277-.423-.675-1.181-1.012-2.025-.843a2.85 2.85 0 00-1.012.506c-2.614 1.77-6.156 1.686-8.77-.085l-.506-.253c-.928-.421-1.855-.253-2.361.59-.59.844-.506 1.772.252 2.53.17.17.338.254.422.422l.085.085c1.18.927 2.614 1.518 4.47 1.77l-1.097 1.097-2.867 2.867c-.253.253-.59.675-.59 1.265 0 .76.42 1.518 1.18 1.855.253.169.506.169.759.169.422 0 .928-.169 1.265-.59l3.289-3.29.084-.084s.084 0 .084.085c.675.759 1.434 1.433 2.109 2.192l1.012 1.012c.421.422.759.59 1.265.59.759.085 1.602-.421 1.94-1.18a1.688 1.688 0 00-.422-2.024c-.844-.843-1.687-1.77-2.615-2.614l-1.433-1.434c.759-.084 1.602-.253 2.36-.59 1.266-.422 2.194-1.012 2.952-1.771z" fill="#1E7243"/></svg>