<svg width="35" height="35" viewBox="0 0 35 35" fill="none" xmlns="http://www.w3.org/2000/svg"><g clip-path="url(#clip0)" fill="#1E7243"><path d="M10.309 22.518c0-.582-.404-.928-1.115-.928-.29 0-.488.029-.59.056v1.865c.121.027.271.037.478.037.758 0 1.227-.384 1.227-1.03zm4.406-.908c-.319 0-.525.027-.647.055v4.13c.122.03.319.03.497.03 1.293.008 2.136-.703 2.136-2.211.01-1.311-.76-2.005-1.986-2.005z"/><path d="M22.9 0H8.841a3.73 3.73 0 00-3.725 3.725V17.5h-.364a1.5 1.5 0 00-1.5 1.5v9.104a1.5 1.5 0 001.501 1.5h.364v1.67A3.73 3.73 0 008.842 35h19.18a3.729 3.729 0 003.725-3.725V8.816L22.899 0zM7.19 20.644c.44-.074 1.058-.13 1.93-.13.88 0 1.507.168 1.929.505.403.318.674.843.674 1.461 0 .618-.206 1.143-.58 1.499-.488.459-1.208.665-2.052.665-.187 0-.355-.01-.487-.028v2.258H7.19v-6.23zm20.833 12.075H8.842a1.445 1.445 0 01-1.443-1.444v-1.67h17.88a1.5 1.5 0 001.502-1.5V19a1.5 1.5 0 00-1.501-1.5H7.4V3.725c0-.794.647-1.441 1.442-1.441l13.204-.014v4.88a2.584 2.584 0 002.583 2.584l4.781-.014.054 21.555c0 .796-.646 1.444-1.441 1.444zm-15.388-5.874v-6.201a12.8 12.8 0 011.93-.13c1.199 0 1.976.215 2.585.673.656.488 1.068 1.265 1.068 2.38 0 1.208-.44 2.042-1.05 2.557-.664.553-1.676.815-2.912.815a12.3 12.3 0 01-1.62-.094zm10.223-3.671v1.16h-2.267v2.54h-1.433V20.56h3.86v1.17H20.59v1.444h2.267z"/></g><defs><clipPath id="clip0"><path fill="#fff" d="M0 0h35v35H0z"/></clipPath></defs></svg>