<svg width="26" height="32" viewBox="0 0 26 32" fill="none" xmlns="http://www.w3.org/2000/svg"><path d="M9.217 13.355A3.79 3.79 0 0113 9.57a3.79 3.79 0 013.785 3.785A3.79 3.79 0 0113 17.139a3.79 3.79 0 01-3.784-3.784z" stroke="#1E7243" stroke-width="2"/><path d="M4.625 5.465h0A11.76 11.76 0 0113 1.996a11.76 11.76 0 018.375 3.47 11.76 11.76 0 013.47 8.374c0 3.154-1.495 6.119-3.514 8.736-2.015 2.612-4.466 4.772-6.235 6.328h0l-.012.01c-.481.423-.912.803-1.26 1.127a1.202 1.202 0 01-.824.323 1.2 1.2 0 01-.823-.323h0a60.507 60.507 0 00-1.257-1.124l-.015-.014h0c-1.769-1.555-4.22-3.715-6.235-6.327-2.019-2.617-3.514-5.582-3.514-8.736a11.76 11.76 0 013.47-8.375z" stroke="#1E7243" stroke-width="2"/></svg>