<svg width="34" height="30" viewBox="0 0 34 30" fill="none" xmlns="http://www.w3.org/2000/svg"><path d="M4.84 15.25h.25V15c0-7.672 6.22-13.893 13.892-13.893S32.875 7.328 32.875 15c0 7.672-6.22 13.893-13.893 13.893a13.816 13.816 0 01-9.639-3.9l1.878-1.878a11.158 11.158 0 007.761 3.135c6.22 0 11.25-5.03 11.25-11.25s-5.03-11.25-11.25-11.25S7.732 8.78 7.732 15v.25h4.36l-5.689 5.675L.73 15.25h4.11z" fill="#333" stroke="#fff" stroke-width=".5"/><path d="M16.625 16.933V9.076h2.357v6.679l5.5 3.268-1.131 1.902-6.726-3.992z" fill="#333"/></svg>