<svg width="20" height="19" viewBox="0 0 20 19" fill="none" xmlns="http://www.w3.org/2000/svg"><path d="M12.888 2.708H8.383l1.04-1.041A.805.805 0 008.286.529L5.87 2.943a.816.816 0 00-.053.06l-.021.028-.026.035-.02.035-.02.032c-.007.012-.012.024-.018.037l-.016.035-.013.036-.014.038-.009.036-.01.04-.006.043-.005.035a.804.804 0 00-.004.079v.001c0 .027.001.053.004.079 0 .012.003.024.005.035l.006.043.01.04.01.036c.003.013.008.026.013.039l.013.036.016.034c.006.013.011.025.018.037l.02.032.02.035.026.035.021.029a.81.81 0 00.053.059l2.415 2.414a.805.805 0 001.139-1.138l-1.041-1.04h4.496a4.825 4.825 0 014.829 4.83 4.368 4.368 0 01-1.287 3.094.805.805 0 101.138 1.138 5.977 5.977 0 001.759-4.233 6.435 6.435 0 00-6.43-6.439zm.634 12.557c.009-.012.018-.023.025-.035l.022-.035.019-.032.018-.037.016-.035.013-.036c.005-.013.01-.025.013-.038l.01-.037.01-.04.006-.042.005-.035a.811.811 0 000-.16l-.005-.034-.006-.043-.01-.04-.01-.036-.013-.039-.013-.036-.016-.034-.018-.037-.02-.033-.02-.035-.026-.034-.021-.029a.78.78 0 00-.053-.058l-2.415-2.416a.805.805 0 00-1.139 1.139l1.04 1.04H6.44a4.825 4.825 0 01-4.83-4.83c0-1.172.469-2.275 1.288-3.094a.805.805 0 10-1.139-1.138A5.977 5.977 0 000 9.148a6.435 6.435 0 006.43 6.44h4.505l-1.04 1.04a.805.805 0 101.138 1.14l2.414-2.416a.793.793 0 00.054-.059l.021-.028z" fill="#333"/></svg>