<svg width="45" height="45" viewBox="0 0 45 45" fill="none" xmlns="http://www.w3.org/2000/svg"><circle cx="22.5" cy="22.5" r="22.5" fill="#CFE7D7"/><g clip-path="url(#clip0)"><path d="M32.604 31.64l-4.23-4.227a8.414 8.414 0 001.594-4.934 8.416 8.416 0 00-2.486-5.995A8.43 8.43 0 0021.483 14a8.424 8.424 0 00-5.999 2.484A8.42 8.42 0 0013 22.48c0 2.265.882 4.394 2.484 5.996a8.432 8.432 0 006 2.485 8.409 8.409 0 004.935-1.592l4.229 4.227a1.38 1.38 0 001.956 0c.54-.54.54-1.415 0-1.955zM17.44 26.52a5.677 5.677 0 01-1.674-4.041c0-1.526.594-2.96 1.674-4.04a5.678 5.678 0 014.042-1.675 5.68 5.68 0 014.043 1.675 5.675 5.675 0 011.675 4.04c0 1.526-.594 2.96-1.675 4.041a5.678 5.678 0 01-4.043 1.673 5.677 5.677 0 01-4.042-1.673z" fill="#1E7243"/></g><defs><clipPath id="clip0"><path fill="#fff" transform="translate(13 14)" d="M0 0h20.01v20H0z"/></clipPath></defs></svg>