<svg width="21" height="20" viewBox="0 0 21 20" fill="none" xmlns="http://www.w3.org/2000/svg"><path d="M10.371 4.668v3.33H7.554v-3.33H6.018v4.097c0 .425.344.769.768.769h4.354a.768.768 0 00.768-.769V4.668H10.37z" fill="#1E7243"/><path d="M20.232.826H3.842a.77.77 0 00-.544.225L.225 4.124A.768.768 0 000 4.668v14.75c0 .425.344.77.768.77h16.39a.77.77 0 00.544-.226l3.073-3.073a.767.767 0 00.225-.543V1.594a.768.768 0 00-.768-.768zm-.769 15.202L16.84 18.65H1.537V4.986L4.16 2.363h15.303v13.665z" fill="#1E7243"/><path d="M19.688 1.05L16.84 3.9H.768v1.536h16.39c.204 0 .4-.08.543-.225l3.073-3.073-1.086-1.086z" fill="#1E7243"/><path d="M17.927 4.668h-1.536v14.751h1.536V4.668z" fill="#1E7243"/></svg>