<svg width="18" height="18" viewBox="0 0 18 18" fill="none" xmlns="http://www.w3.org/2000/svg"><path d="M15.89 1.406h-.843V0H13.64v1.406H4.359V0H2.953v1.406H2.11C.946 1.406 0 2.353 0 3.516V15.89C0 17.054.946 18 2.11 18h13.78c1.164 0 2.11-.946 2.11-2.11V3.517c0-1.163-.946-2.11-2.11-2.11zm.704 14.485a.704.704 0 01-.703.703H2.109a.704.704 0 01-.703-.703V6.609h15.188v9.282zm0-10.688H1.406V3.516c0-.388.316-.704.703-.704h.844V4.22H4.36V2.812h9.282V4.22h1.406V2.812h.844c.387 0 .703.316.703.704v1.687z" fill="#1E7243"/><path d="M4.078 8.086H2.672v1.406h1.406V8.086zm2.812 0H5.485v1.406h1.407V8.086zm2.813 0H8.297v1.406h1.406V8.086zm2.813 0h-1.407v1.406h1.407V8.086zm2.812 0h-1.406v1.406h1.406V8.086zm-11.25 2.812H2.672v1.407h1.406v-1.407zm2.812 0H5.485v1.407h1.407v-1.407zm2.813 0H8.297v1.407h1.406v-1.407zm2.813 0h-1.407v1.407h1.407v-1.407zM4.078 13.71H2.672v1.407h1.406v-1.406zm2.812 0H5.485v1.407h1.407v-1.406zm2.813 0H8.297v1.407h1.406v-1.406zm2.813 0h-1.407v1.407h1.407v-1.406zm2.812-2.812h-1.406v1.407h1.406v-1.407z" fill="#1E7243"/></svg>