<svg width="45" height="34" viewBox="0 0 45 34" fill="none" xmlns="http://www.w3.org/2000/svg"><path d="M.199 13.569a.866.866 0 011.141-.442c.392.173.803.276 1.227.307a5.601 5.601 0 01-.094-1.023A2.77 2.77 0 015.24 9.643a2.77 2.77 0 012.767 2.766 2.77 2.77 0 01-2.636 2.764 3.874 3.874 0 002.463 1.09c.156.01.313.008.47.008.14-1.484.589-2.919 1.34-4.279a.866.866 0 111.516.837c-.779 1.41-1.174 2.91-1.174 4.459 0 3.248 1.795 6.337 4.923 8.474a.866.866 0 01.378.715v2.611c0 1.72 1.4 3.12 3.12 3.12h.334v-3.417a.865.865 0 011.08-.839 17.98 17.98 0 007.472.283.866.866 0 011.015.853c0 1.72 1.4 3.12 3.12 3.12h.334v-4.892c0-.318.174-.611.455-.762 1.316-.708 2.466-1.578 3.416-2.583a.866.866 0 01.812-.252 4.703 4.703 0 003.566-.65 4.703 4.703 0 002.06-2.98l.314-1.452-3.26-.703a.865.865 0 01-.683-.828c-.036-1.772-.584-3.462-1.628-5.025a.866.866 0 01.09-1.076l2.13-2.251-2.382-1.868a3.68 3.68 0 00-4.869.293.865.865 0 01-.864.216 47.49 47.49 0 00-2.652-.704 4.9 4.9 0 01-.345.996c.53.165 1.04.362 1.518.591a.866.866 0 01-.43 1.645c-.194-.013-.357-.104-.53-.182a9.138 9.138 0 00-.63-.252 11.707 11.707 0 00-2.693-.604c-1.837-.199-3.75-.041-5.499.568-.475.166-.918.382-1.368.605a.874.874 0 01-1.147-.357.866.866 0 01.342-1.175 10.457 10.457 0 011.625-.713 4.887 4.887 0 01-.347-.882 15.528 15.528 0 00-3.073 1.385.866.866 0 01-.882-1.49 17.375 17.375 0 013.788-1.66A4.914 4.914 0 0123.485.684a4.915 4.915 0 014.862 4.251c1.09.246 2.054.509 2.603.665a5.414 5.414 0 016.771-.076l3.129 2.454a.866.866 0 01.094 1.276l-2.321 2.454a11.12 11.12 0 011.514 4.673l3.46.746a.864.864 0 01.663 1.03l-.495 2.296a6.423 6.423 0 01-2.816 4.071 6.417 6.417 0 01-4.387.973 15.148 15.148 0 01-3.069 2.327v5.25a.866.866 0 01-.865.866h-1.2a4.86 4.86 0 01-4.75-3.862 19.797 19.797 0 01-6.206-.205v3.201a.866.866 0 01-.866.866h-1.198a4.857 4.857 0 01-4.852-4.852v-2.162c-3.157-2.295-5.045-5.496-5.276-8.924h-.217a5.593 5.593 0 01-4.857-2.825H2.85a5.434 5.434 0 01-2.208-.466.866.866 0 01-.442-1.142zM23.484 2.415a3.18 3.18 0 00-3.176 3.176c0 .63.186 1.239.531 1.757a15.072 15.072 0 015.338-.072 3.173 3.173 0 00.484-1.685 3.18 3.18 0 00-3.177-3.176zM4.345 13.445h.895a1.036 1.036 0 10-1.036-1.034c0 .358.05.705.141 1.034z" fill="#1E7243"/><path d="M34.575 15.116a.873.873 0 011.03.052c.267.219.38.59.28.92a.875.875 0 01-.8.614.873.873 0 01-.833-.548.873.873 0 01.323-1.038zm-21.269-5.113a.873.873 0 01-.841.534.875.875 0 01-.782-.6.873.873 0 01.297-.951.873.873 0 011.008-.034c.34.226.475.675.318 1.051z" fill="#1E7243"/></svg>