<svg width="32" height="33" viewBox="0 0 32 33" fill="none" xmlns="http://www.w3.org/2000/svg"><path d="M28.799 8.14h-3.716A4.54 4.54 0 0026 5.4 4.57 4.57 0 0021.434.837c-1.516 0-2.634.543-3.518 1.71-.74.975-1.281 2.338-1.96 4.059-.678-1.721-1.22-3.084-1.959-4.06-.884-1.166-2.002-1.71-3.518-1.71a4.57 4.57 0 00-4.565 4.566 4.54 4.54 0 00.915 2.739H3.114A2.742 2.742 0 00.375 10.88v1.825c0 1.19.763 2.205 1.826 2.582V29.26a2.742 2.742 0 002.739 2.738h22.033a2.742 2.742 0 002.739-2.738V15.286a2.743 2.743 0 001.826-2.582V10.88a2.742 2.742 0 00-2.74-2.74zm-11.167-.807c1.399-3.549 1.93-4.671 3.802-4.671A2.742 2.742 0 0124.173 5.4a2.742 2.742 0 01-2.739 2.739h-4.121l.32-.807zm-7.154-4.671c1.872 0 2.404 1.122 3.802 4.67l.32.808h-4.121a2.742 2.742 0 01-2.74-2.74 2.742 2.742 0 012.74-2.738zm1.826 27.51H4.94a.914.914 0 01-.913-.912V15.443h8.277v14.73zm0-16.555h-9.19a.914.914 0 01-.913-.913V10.88c0-.504.41-.913.913-.913h9.19v3.652zm5.478 16.556H14.13V9.966h3.652v20.207zm10.104-.913c0 .503-.41.913-.913.913h-7.365v-14.73h8.278V29.26zm1.826-16.556c0 .504-.41.913-.913.913h-9.19V9.966h9.19c.503 0 .913.41.913.913v1.825z" fill="#1E7243" stroke="#EBF1EE" stroke-width=".1"/></svg>