<svg width="35" height="33" viewBox="0 0 35 33" fill="none" xmlns="http://www.w3.org/2000/svg"><path d="M31.649 13.676a1.491 1.491 0 01-1.01-.983 1.49 1.49 0 01.24-1.388c.95-1.235.971-2.847.056-4.107-.916-1.26-2.456-1.737-3.923-1.215-.477.17-.986.096-1.395-.201a1.491 1.491 0 01-.623-1.265c.043-1.557-.886-2.874-2.367-3.356-1.482-.48-3.008.039-3.889 1.324-.286.417-.74.657-1.246.657-.507 0-.961-.24-1.247-.657-.88-1.286-2.407-1.805-3.888-1.324-1.482.482-2.411 1.8-2.368 3.356.014.506-.213.967-.622 1.265-.41.297-.918.37-1.395.201-1.468-.522-3.008-.045-3.923 1.215-.916 1.26-.894 2.872.056 4.107.31.4.397.907.24 1.388a1.49 1.49 0 01-1.01.983c-1.494.44-2.46 1.731-2.46 3.289s.966 2.849 2.46 3.289a1.49 1.49 0 011.01.982c.156.482.07.988-.24 1.39-.95 1.234-.972 2.846-.056 4.106.915 1.26 2.455 1.737 3.923 1.215a1.49 1.49 0 011.395.201c.41.298.636.759.622 1.265-.043 1.557.886 2.874 2.368 3.355.367.12.737.178 1.099.178 1.099 0 2.127-.534 2.789-1.5a1.49 1.49 0 011.247-.658c.506 0 .96.24 1.247.657.88 1.285 2.406 1.805 3.888 1.323 1.481-.481 2.41-1.798 2.367-3.355a1.491 1.491 0 01.623-1.265c.41-.297.918-.371 1.395-.201 1.467.522 3.007.045 3.923-1.215.916-1.26.893-2.872-.057-4.107a1.49 1.49 0 01-.24-1.389 1.49 1.49 0 011.01-.982c1.495-.44 2.46-1.731 2.46-3.29 0-1.557-.965-2.848-2.46-3.288zm-.542 4.739a3.427 3.427 0 00-1.748 5.38c.508.66.346 1.368.025 1.81-.321.442-.944.815-1.73.535a3.427 3.427 0 00-4.576 3.326c.023.833-.524 1.31-1.044 1.479-.52.169-1.243.104-1.714-.583a3.427 3.427 0 00-5.657 0c-.47.687-1.194.752-1.714.583-.52-.169-1.066-.646-1.043-1.48a3.427 3.427 0 00-4.577-3.324c-.785.279-1.408-.094-1.73-.536-.32-.442-.483-1.15.026-1.81a3.427 3.427 0 00-1.748-5.38c-.8-.236-1.085-.904-1.085-1.45 0-.546.285-1.214 1.085-1.45a3.427 3.427 0 001.748-5.38c-.509-.66-.347-1.368-.025-1.81.32-.442.944-.815 1.729-.536a3.427 3.427 0 004.577-3.325c-.023-.833.524-1.31 1.043-1.48.52-.168 1.243-.103 1.714.584a3.427 3.427 0 005.657 0c.471-.687 1.194-.752 1.714-.583.52.169 1.067.646 1.044 1.48a3.427 3.427 0 004.576 3.324c.785-.279 1.409.094 1.73.536.321.442.483 1.15-.025 1.81a3.427 3.427 0 001.748 5.38c.8.236 1.084.904 1.084 1.45 0 .546-.285 1.214-1.084 1.45z" fill="#1E7243"/><path d="M24.506 11.762a.959.959 0 00-1.352.104l-7.084 8.265-4.395-3.295a.959.959 0 00-1.15 1.534l5.113 3.834a.955.955 0 001.303-.143l7.67-8.947a.959.959 0 00-.105-1.352z" fill="#1E7243"/></svg>