<svg width="25" height="25" viewBox="0 0 25 25" fill="none" xmlns="http://www.w3.org/2000/svg"><path d="M23.637 12.87a.94.94 0 01-.941-.941c0-5.186-4.219-9.405-9.405-9.405a.94.94 0 010-1.881c6.066-.126 11.411 5.22 11.286 11.286a.94.94 0 01-.94.94zm-6.584-.941a3.766 3.766 0 00-3.762-3.762.94.94 0 000 1.88c1.037 0 1.881.845 1.881 1.882a.94.94 0 001.881 0zm3.762 0c0-4.149-3.375-7.524-7.524-7.524a.94.94 0 000 1.88 5.65 5.65 0 015.643 5.644.94.94 0 001.881 0zm-3.742 12.79a.94.94 0 00.645-.274l3.386-3.386a.94.94 0 000-1.33l-5.114-5.114a.94.94 0 00-1.33 0l-1.276 1.275c-1.276-.613-3.464-2.81-4.058-4.083l1.263-1.263a.946.946 0 000-1.33L5.444 4.07a.94.94 0 00-1.33 0L.775 7.41a.94.94 0 00-.275.648C.485 14.951 9.834 24.634 17.032 24.72h.041zM4.78 6.065L8.594 9.88l-1.047 1.047a.94.94 0 00-.244.907c.494 1.986 4.102 5.59 6.05 6.083a.94.94 0 00.908-.243l1.064-1.063 3.783 3.784-2.426 2.426c-5.216-.305-13.605-7.557-14.28-14.38L4.78 6.065z" fill="#C9D200"/></svg>