<svg width="21" height="28" viewBox="0 0 21 28" fill="none" xmlns="http://www.w3.org/2000/svg"><path d="M17.303 18.2c-.353-.64-.87-1.07-1.495-1.238-.62-.167-1.287-.059-1.933.314l-2.019 1.162c-.112-.106-.226-.207-.334-.306a6.645 6.645 0 01-.428-.401c-1.238-1.348-2.264-2.947-3.136-4.894-.417-.966-.661-1.75-.786-2.513.514-.268 1.003-.558 1.478-.836l.538-.316c1.343-.775 1.71-2.146.935-3.49L9.115 3.938a21.736 21.736 0 01-.34-.604c-.22-.394-.45-.802-.697-1.192-.36-.615-.875-1.03-1.49-1.194-.616-.165-1.28-.067-1.914.282l-.013.007-2.178 1.27A3.82 3.82 0 00.761 4.558C.245 5.998.31 7.486.404 8.473c.226 2.422.9 4.791 2.133 7.468 1.502 3.229 3.602 6.023 6.244 8.304 1.013.86 2.387 1.926 4.086 2.5.105.034.215.069.315.095 1.165.313 2.256.156 3.245-.47.008-.01.02-.012.027-.02.347-.248.727-.454 1.127-.677.272-.148.552-.305.83-.474.638-.386 1.063-.92 1.229-1.541.167-.625.061-1.297-.313-1.938l-2.024-3.52zm.382 5.794c-.005-.002-.006.003 0 0-.253.159-.506.296-.78.45-.411.225-.832.463-1.243.748-.655.408-1.324.504-2.111.293a3.64 3.64 0 01-.23-.067c-1.473-.497-2.708-1.455-3.618-2.234-2.484-2.146-4.464-4.78-5.88-7.823-1.165-2.534-1.801-4.758-2.011-7.02-.133-1.38-.042-2.405.28-3.307A2.396 2.396 0 013.19 3.722l2.18-1.258c.31-.166.605-.222.863-.153.317.085.523.346.641.55l.011.02c.23.37.444.745.666 1.145.113.204.231.408.348.618l1.008 1.745c.391.678.259 1.172-.419 1.564-.185.107-.366.215-.55.317-.54.32-1.051.616-1.595.891-.013.008-.024.01-.032.019-.55.317-.583.762-.57 1.074l.004.05c.125.963.41 1.915.917 3.094l.003.006c.933 2.087 2.042 3.817 3.386 5.274.172.187.355.35.53.504.157.14.306.271.428.401.017.016.033.036.05.052.15.131.3.215.466.26.419.112.751-.08.86-.143l2.187-1.262c.217-.126.545-.26.862-.175.313.084.517.35.628.563l.007.013 2.034 3.523c.382.653.24 1.183-.418 1.58z" fill="#C9D200" stroke="#C9D200" stroke-width=".6"/></svg>