<svg width="51" height="51" viewBox="0 0 51 51" xmlns="http://www.w3.org/2000/svg"><path d="M49.793 25.39a23.94 23.94 0 01-24 24 23.94 23.94 0 01-24-24 23.94 23.94 0 0124-24 23.94 23.94 0 0124 24z" stroke="#C9D200" stroke-width="2"/><path fill-rule="evenodd" clip-rule="evenodd" d="M24.012 33.297h1.594s.468-.094.75-.281c.187-.282.187-.657.187-.657s0-2.062.938-2.437c.937-.281 2.156 2.062 3.468 2.906 1.032.656 1.782.563 1.782.563l3.468-.094s1.876-.094.938-1.594c-.094-.094-.469-1.031-2.625-3-2.156-2.062-1.875-1.687.75-5.25 1.594-2.156 2.25-3.469 2.063-4.031-.188-.563-1.407-.375-1.407-.375h-3.937s-.282 0-.469.094c-.188.093-.375.468-.375.468s-.656 1.688-1.5 3.094c-1.781 3-2.438 3.188-2.719 3-.656-.469-.468-1.781-.468-2.625 0-2.906.468-4.125-.844-4.406-.469-.094-.75-.188-1.875-.188-1.407 0-2.625 0-3.282.375-.468.188-.75.75-.562.75.281 0 .844.188 1.125.563.375.562.375 1.781.375 1.781s.188 3.375-.563 3.844c-.562.281-1.218-.281-2.812-3-.844-1.406-1.406-2.906-1.406-2.906s-.094-.282-.282-.47c-.28-.187-.562-.28-.562-.28h-3.75s-.563 0-.75.28c-.188.188 0 .657 0 .657s2.906 6.844 6.281 10.313c3 3.187 6.469 2.906 6.469 2.906z" fill="#fff"/></svg>