<svg width="24" height="14" viewBox="0 0 24 14" fill="none" xmlns="http://www.w3.org/2000/svg"><path d="M23.532 12.251c0-.093-.093-.093-.093-.187-.374-.747-1.214-1.68-2.335-2.708-.56-.467-.84-.84-1.028-1.028-.28-.373-.28-.654-.186-1.027.093-.28.467-.747 1.12-1.588.374-.467.56-.747.841-1.027 1.401-1.868 2.055-3.083 1.868-3.643L23.626.95c-.094-.094-.187-.187-.374-.187-.187-.094-.467-.094-.747 0h-4.203l-.094.093c-.093.094-.093.094-.093.187-.374 1.027-.84 1.868-1.308 2.802-.28.467-.56.934-.84 1.308-.28.373-.467.653-.654.84-.187.187-.374.28-.467.467-.094.094-.28.187-.28.094-.094 0-.187 0-.187-.094l-.28-.28c-.094-.093-.094-.28-.187-.467v-4.67c0-.093-.094-.28-.094-.374l-.28-.28c-.093-.093-.28-.093-.373-.187a8.377 8.377 0 00-1.681-.186c-1.495 0-2.522.093-2.896.28-.187.093-.374.187-.467.373-.187.187-.187.28-.093.28.467.094.84.28 1.027.561l.093.187c.094.093.094.28.187.56.094.28.094.56.094.934v1.495c0 .467-.094.747-.094 1.027 0 .28-.093.467-.187.56-.093.187-.093.28-.186.28 0 0 0 .094-.094.094-.093 0-.187.093-.373.093-.094 0-.28-.093-.374-.186a1.125 1.125 0 01-.467-.467c-.187-.187-.374-.467-.56-.84-.187-.375-.467-.748-.654-1.309l-.187-.373c-.093-.187-.28-.56-.467-1.028-.187-.467-.374-.84-.56-1.307a1.29 1.29 0 00-.28-.374h-.094S4.759.763 4.665.763c-.093 0-.187-.094-.28-.094H1.023C.649.67.463.763.369.856L.275.95v.186c0 .094 0 .187.094.374.467 1.12 1.027 2.242 1.588 3.362.56 1.028 1.12 1.962 1.494 2.616.467.653.84 1.307 1.308 1.868.467.56.747.934.84 1.12l.374.374.28.28c.187.187.467.467.84.747.374.28.841.56 1.308.841.467.28 1.028.467 1.588.654.654.187 1.214.28 1.775.187h1.4c.28 0 .468-.094.655-.28l.093-.094c0-.093.093-.093.093-.187v-.373c0-.374 0-.654.094-.934.093-.28.093-.467.187-.654a1.28 1.28 0 01.28-.374l.186-.187h.094c.187-.093.467 0 .654.187.28.187.56.467.747.748.187.28.467.56.84.934.374.373.654.653.841.747l.28.186c.187.094.374.187.654.28.28.094.467.094.654.094l3.176-.093c.28 0 .56-.094.747-.187.187-.094.28-.187.28-.374v-.373c-.187-.187-.187-.28-.187-.374z" fill="#1E7243"/></svg>