<svg width="45" height="45" viewBox="0 0 45 45" fill="none" xmlns="http://www.w3.org/2000/svg"><circle cx="22.5" cy="22.5" r="22" stroke="#C7D0D9"/><path d="M33.532 28.251c0-.093-.093-.093-.093-.187-.374-.747-1.214-1.68-2.335-2.708-.56-.467-.84-.84-1.028-1.028-.28-.373-.28-.654-.186-1.027.093-.28.467-.747 1.12-1.588.374-.467.56-.747.841-1.027 1.401-1.868 2.055-3.083 1.868-3.643l-.093-.093c-.094-.094-.187-.187-.374-.187-.187-.094-.467-.094-.747 0h-4.203l-.094.093c-.093.094-.093.094-.093.187-.374 1.027-.84 1.868-1.308 2.802-.28.467-.56.934-.84 1.308-.28.373-.467.654-.654.84-.187.187-.374.28-.467.467-.093.094-.28.187-.28.094-.094 0-.187 0-.187-.094l-.28-.28c-.094-.093-.094-.28-.187-.467v-4.67c0-.093-.093-.28-.093-.374l-.28-.28c-.094-.093-.28-.093-.374-.187a8.377 8.377 0 00-1.681-.186c-1.495 0-2.522.093-2.896.28-.187.093-.373.187-.467.373-.187.187-.187.28-.093.28.467.094.84.28 1.027.561l.093.187c.094.093.094.28.187.56.094.28.094.56.094.934v1.495c0 .467-.094.747-.094 1.027 0 .28-.093.467-.187.56-.093.187-.093.28-.186.28 0 0 0 .094-.094.094-.093 0-.186.094-.373.094-.094 0-.28-.094-.374-.187a1.125 1.125 0 01-.467-.467c-.187-.187-.373-.467-.56-.84-.187-.375-.467-.748-.654-1.308l-.187-.374c-.093-.187-.28-.56-.467-1.028-.187-.467-.374-.84-.56-1.307a1.29 1.29 0 00-.28-.374h-.094s-.093-.093-.187-.093c-.093 0-.187-.094-.28-.094h-3.362c-.374 0-.56.094-.654.187l-.094.094v.186c0 .094 0 .187.094.374.467 1.12 1.027 2.242 1.588 3.362.56 1.028 1.12 1.962 1.494 2.616.467.654.84 1.307 1.308 1.868.467.56.747.934.84 1.12l.374.374.28.28c.187.187.467.467.84.748.374.28.841.56 1.308.84.467.28 1.028.467 1.588.654.654.187 1.214.28 1.775.187h1.4a.85.85 0 00.654-.28l.094-.094c0-.093.093-.093.093-.187v-.373c0-.374 0-.654.094-.934.093-.28.093-.467.186-.654a1.29 1.29 0 01.28-.374l.188-.186h.093c.187-.094.467 0 .654.186.28.187.56.467.747.747.187.28.467.56.84.934.374.374.654.654.841.748l.28.187c.187.093.374.186.654.28.28.093.467.093.654.093l3.176-.093c.28 0 .56-.094.747-.187.187-.093.28-.187.28-.374v-.373c-.187-.187-.187-.28-.187-.374z" fill="#1E7243"/></svg>