<svg width="40" height="31" viewBox="0 0 40 31" fill="none" xmlns="http://www.w3.org/2000/svg"><path d="M39.026 8.066L26.092.964a.752.752 0 00-.723 0l-4.864 2.67a.754.754 0 00-.3.165l-7.77 4.267a.752.752 0 00-.39.659v1.537H3.369a.752.752 0 000 1.504h8.676v2.707H7.734a.752.752 0 000 1.504h4.31v3.91H5.729a.752.752 0 000 1.504h6.317v1.538c0 .274.15.527.39.659L25.37 30.69a.75.75 0 00.723 0l12.934-7.102a.752.752 0 00.39-.66v-3.367a.752.752 0 00-1.504 0v2.923l-11.43 6.276V16.272l3.635-1.996v3.167a.751.751 0 001.115.66l2.771-1.526a.752.752 0 00.39-.659v-3.99l3.519-1.932v3.55a.752.752 0 101.504 0V8.725a.752.752 0 00-.39-.66zM24.978 28.76l-11.43-6.276V9.996l11.43 6.276V28.76zm.752-13.791L14.36 8.725l3.573-1.963 11.372 6.245-3.575 1.962zm5.137-2.82L19.495 5.904l1.233-.676L32.1 11.472l-1.232.677zm2.022 3.325l-1.268.697v-2.72l1.268-.697v2.72zm.773-4.86L22.29 4.37l3.44-1.889L37.1 8.725l-3.44 1.889z" fill="#1E7243"/><path d="M38.664 15.802a.754.754 0 00-.752.752.755.755 0 00.752.751c.198 0 .392-.08.532-.22s.22-.334.22-.531a.756.756 0 00-.752-.752zM2.746 19.888H1.668a.752.752 0 000 1.504h1.078a.752.752 0 100-1.504zm2.733-4.662a.756.756 0 00-.752-.752.756.756 0 00-.752.752.753.753 0 001.283.531c.14-.14.22-.333.22-.531z" fill="#1E7243"/></svg>