<svg width="60" height="60" viewBox="0 0 60 60" fill="none" xmlns="http://www.w3.org/2000/svg"><circle cx="30" cy="30" r="30" fill="#DEEDDD"/><g clip-path="url(#clip0)"><path d="M42.616 36.102l-3.047-1.76 2.64-1.557a1.024 1.024 0 10-1.04-1.763l-3.637 2.144L32.047 30l5.484-3.166 3.638 2.145a1.023 1.023 0 101.04-1.764l-2.641-1.557 3.048-1.76a1.024 1.024 0 00-1.024-1.773l-3.047 1.76-.028-3.066a1.023 1.023 0 10-2.047.018l.038 4.223-5.484 3.167v-6.332l3.677-2.078a1.024 1.024 0 10-1.008-1.783l-2.67 1.509v-3.52a1.024 1.024 0 00-2.047 0v3.52l-2.67-1.509a1.024 1.024 0 10-1.007 1.783l3.677 2.078v6.332l-5.484-3.167.038-4.223a1.024 1.024 0 00-1.014-1.033h-.01c-.56 0-1.018.452-1.023 1.015l-.028 3.066-3.047-1.76a1.024 1.024 0 10-1.024 1.773l3.048 1.76-2.642 1.557a1.024 1.024 0 001.04 1.764l3.64-2.145L27.952 30l-5.485 3.167-3.638-2.146a1.024 1.024 0 00-1.04 1.764l2.641 1.557-3.047 1.76a1.024 1.024 0 101.024 1.773l3.047-1.76.028 3.066a1.024 1.024 0 001.023 1.015h.01a1.024 1.024 0 001.014-1.033l-.038-4.224 5.484-3.166v6.332L25.3 40.183a1.024 1.024 0 001.008 1.783l2.67-1.509v3.52a1.024 1.024 0 002.047 0v-3.52l2.67 1.509a1.024 1.024 0 001.008-1.783l-3.678-2.078v-6.332l5.484 3.166-.04 4.224a1.024 1.024 0 001.015 1.033h.01c.56 0 1.018-.452 1.023-1.014l.029-3.067 3.047 1.76a1.023 1.023 0 101.024-1.773z" fill="#1E7243" stroke="#1E7243" stroke-width=".4"/></g><defs><clipPath id="clip0"><path fill="#fff" transform="translate(15 15)" d="M0 0h30v30H0z"/></clipPath></defs></svg>