<svg width="51" height="51" viewBox="0 0 51 51" xmlns="http://www.w3.org/2000/svg"><path d="M49.793 25.39a23.94 23.94 0 01-24 24 23.94 23.94 0 01-24-24 23.94 23.94 0 0124-24 23.94 23.94 0 0124 24z" stroke="#C9D200" stroke-width="2"/><path d="M37.012 20.172c-.282-1.313-1.313-2.25-2.625-2.344-3-.375-6-.375-9.094-.375-3 0-6.094 0-9.094.375-1.312.188-2.344 1.125-2.625 2.344-.469 1.875-.469 3.844-.469 5.719 0 1.875 0 3.843.47 5.718.28 1.313 1.312 2.25 2.624 2.344 3 .375 6 .375 9.094.375 3 0 6.094 0 9.094-.375 1.312-.187 2.343-1.125 2.625-2.344.468-1.875.468-3.843.468-5.718s0-3.844-.468-5.72zm-14.25 9v-6.75l6.468 3.375-6.468 3.375z" fill="#fff"/></svg>