<svg width="70" height="70" viewBox="0 0 70 70" fill="none" xmlns="http://www.w3.org/2000/svg">
<path d="M35 24.9062C29.4054 24.9062 24.86 29.4591 24.86 35.0462C24.86 40.633 29.4129 45.1859 35 45.1859C40.5868 45.1859 45.1397 40.633 45.1397 35.0462C45.1397 29.4591 40.5947 24.9062 35 24.9062ZM40.0852 32.6155L33.9658 38.3874C33.8528 38.4983 33.6999 38.5595 33.5414 38.5574C33.3756 38.5589 33.2164 38.492 33.1016 38.372L29.8991 35.0848C29.6646 34.8413 29.6697 34.4539 29.9112 34.217C30.1523 33.9801 30.5394 33.9816 30.779 34.2203L33.557 37.0755L39.2364 31.7202C39.4836 31.4857 39.8739 31.4962 40.1084 31.7434C40.343 31.9906 40.3324 32.3809 40.0852 32.6155Z" fill="#1E7243"/>
<path d="M49.5615 38.7431L52.0001 35.0469L49.5615 31.3504C49.49 31.2407 49.4548 31.1111 49.4611 30.98L49.708 26.5507L45.7649 24.5522C45.6482 24.4934 45.5536 24.3987 45.4948 24.2821L43.5038 20.3387L39.0745 20.5856C38.9434 20.5919 38.8138 20.5569 38.7041 20.4852L35 18.0469L31.3035 20.4852C31.1938 20.5569 31.0642 20.5919 30.9334 20.5856L26.5038 20.3387L24.5053 24.2821C24.4465 24.3987 24.3518 24.4934 24.2352 24.5522L20.2918 26.5428L20.5387 30.9724C20.545 31.1033 20.5101 31.2329 20.4386 31.3429L18 35.0469L20.4386 38.7431C20.5101 38.8532 20.545 38.9825 20.5387 39.1136L20.2918 43.5429L24.2352 45.5339C24.3518 45.5927 24.4465 45.6873 24.5053 45.804L26.4963 49.7473L30.9255 49.5002H30.9563C31.0766 49.5017 31.1944 49.5363 31.296 49.6005L34.9922 52.0392L38.6887 49.6005C38.7984 49.5291 38.928 49.4941 39.0589 49.5002L43.4885 49.7473L45.4794 45.804C45.5382 45.6873 45.6329 45.5927 45.7495 45.5339L49.6926 43.5429L49.4457 39.1136C49.4524 38.9822 49.4922 38.8547 49.5615 38.7431ZM35 46.4213C28.7263 46.4213 23.6254 41.3204 23.6254 35.0469C23.6254 28.7732 28.7263 23.6723 35 23.6723C41.2738 23.6723 46.3744 28.7732 46.3744 35.0469C46.3744 41.3204 41.2738 46.4213 35 46.4213Z" fill="#1E7243"/>
<circle cx="35" cy="35" r="34.5" stroke="#C7D0D9"/>
</svg>

