<svg width="24" height="30" viewBox="0 0 24 30" fill="none" xmlns="http://www.w3.org/2000/svg">
<path d="M16.511 0.515625V7.03235H23.0282L16.511 0.515625Z" fill="#1E7243"/>
<path d="M15.6319 8.78975C15.1467 8.78975 14.753 8.39607 14.753 7.91061V0H1.27734C0.791885 0 0.398438 0.393448 0.398438 0.878906V29.1211C0.398438 29.6066 0.791885 30 1.27734 30H22.6645C23.15 30 23.5434 29.6066 23.5434 29.1211V8.78975H15.6319ZM3.98364 5.15671C4.40547 4.15924 5.37776 3.51471 6.4606 3.51471C7.9433 3.51471 9.14951 4.72092 9.14951 6.20361C9.14951 7.37846 8.39191 8.37982 7.33951 8.74466V9.36768C7.33951 9.85313 6.94606 10.2466 6.4606 10.2466C5.97537 10.2466 5.5817 9.85313 5.5817 9.36768V8.01338C5.5817 7.52792 5.97537 7.13448 6.4606 7.13448C6.97398 7.13448 7.39146 6.71677 7.39146 6.20361C7.39146 5.69023 6.97398 5.27252 6.4606 5.27252C6.08546 5.27252 5.74878 5.49591 5.60252 5.84152C5.41347 6.28853 4.8978 6.49773 4.45079 6.30867C4.00356 6.11938 3.79459 5.60371 3.98364 5.15671ZM7.33951 12.8835C7.33951 13.1149 7.2459 13.3413 7.08224 13.5047C6.91882 13.6681 6.692 13.7624 6.4606 13.7624C6.2292 13.7624 6.00307 13.6681 5.83896 13.5047C5.67554 13.3413 5.5817 13.1145 5.5817 12.8835C5.5817 12.6521 5.67554 12.4253 5.83896 12.2619C6.00307 12.0985 6.2292 12.0046 6.4606 12.0046C6.692 12.0046 6.91837 12.0985 7.08224 12.2619C7.2459 12.4253 7.33951 12.6521 7.33951 12.8835ZM19.1489 26.4274H4.93945C4.45422 26.4274 4.06055 26.0339 4.06055 25.5485C4.06055 25.063 4.45422 24.6696 4.93945 24.6696H19.1489C19.6341 24.6696 20.0278 25.063 20.0278 25.5485C20.0278 26.0339 19.6341 26.4274 19.1489 26.4274ZM19.1489 22.9118H4.93945C4.45422 22.9118 4.06055 22.5181 4.06055 22.0329C4.06055 21.5474 4.45422 21.1539 4.93945 21.1539H19.1489C19.6341 21.1539 20.0278 21.5474 20.0278 22.0329C20.0278 22.5181 19.6341 22.9118 19.1489 22.9118ZM19.1489 19.3961H4.93945C4.45422 19.3961 4.06055 19.0025 4.06055 18.517C4.06055 18.0318 4.45422 17.6381 4.93945 17.6381H19.1489C19.6341 17.6381 20.0278 18.0318 20.0278 18.517C20.0278 19.0025 19.6341 19.3961 19.1489 19.3961ZM19.1489 15.8803H9.83249C9.34703 15.8803 8.95335 15.4868 8.95335 15.0014C8.95335 14.5159 9.34703 14.1225 9.83249 14.1225H19.1489C19.6344 14.1225 20.0278 14.5159 20.0278 15.0014C20.0278 15.4868 19.6341 15.8803 19.1489 15.8803ZM19.1489 12.3647H9.83249C9.34703 12.3647 8.95335 11.9712 8.95335 11.4857C8.95335 11.0003 9.34703 10.6068 9.83249 10.6068H19.1489C19.6344 10.6068 20.0278 11.0003 20.0278 11.4857C20.0278 11.9712 19.6341 12.3647 19.1489 12.3647Z" fill="#1E7243"/>
</svg>


