<svg width="70" height="70" viewBox="0 0 70 70" fill="none" xmlns="http://www.w3.org/2000/svg">
<circle cx="35" cy="35" r="34.5" stroke="#C7D0D9"/>
<path d="M25.6574 16.4082C26.3303 15.9391 26.9563 15.5013 27.5196 15.0947C30.1957 17.7843 32.8405 20.4426 35.5791 23.1635C34.7966 24.2738 33.9359 25.4935 33.0595 26.7132C34.5306 27.2448 35.6574 26.8852 36.2207 25.7124C36.8311 25.7124 37.457 25.7124 38.083 25.7124C38.1769 25.7124 38.2865 25.728 38.4273 25.7593C38.4273 28.0736 38.4273 30.3566 38.4273 32.7022C37.6918 32.7022 36.9563 32.7022 36.1581 32.7022C35.9703 31.7327 35.2505 31.5607 34.3585 31.5763C32.95 31.6076 31.5416 31.5607 30.1331 31.6076C29.8358 31.6233 29.4758 31.8265 29.2567 32.0611C28.8968 32.4364 28.6464 32.9055 28.3178 33.3121C27.0345 34.9071 24.734 35.2042 23.263 33.7968C21.0564 31.7171 18.9437 29.5591 16.8467 27.3856C15.9703 26.4786 15.8295 25.3215 16.1268 24.1018C16.2051 23.8046 16.1738 23.3824 16.0173 23.1166C14.3115 20.4583 14.7966 17.1119 17.1597 15.2667C19.5854 13.359 23.0752 13.6405 25.2348 15.9235C25.3757 16.0642 25.5009 16.2362 25.6574 16.4082ZM18.0674 21.8344C19.9766 20.4739 21.8232 19.1448 23.6699 17.8156C22.5588 16.2362 20.3991 15.8766 18.8342 16.9399C17.2536 18.0189 16.9093 20.1299 18.0674 21.8344Z" fill="#1E7243"/>
<path d="M55 49.1835C55 50.8566 55 52.4047 55 53.9997C41.6667 53.9997 28.3803 53.9997 15.0313 53.9997C15.0313 52.436 15.0313 50.8723 15.0313 49.1835C16.0172 49.1835 17.0188 49.1522 18.0204 49.1991C19.4914 49.2617 20.7903 48.8238 21.9953 48.0263C24.3584 46.4626 26.7058 46.447 29.0689 48.0263C30.2426 48.8082 31.5258 49.246 32.9656 49.1991C34.2645 49.1522 35.579 49.1522 36.8779 49.1991C38.2864 49.246 39.554 48.8394 40.7121 48.0732C43.1534 46.4313 45.5634 46.447 48.0047 48.0732C49.1628 48.8394 50.4147 49.2617 51.8388 49.1991C52.8717 49.1522 53.9202 49.1835 55 49.1835Z" fill="#1E7243"/>
<path d="M36.1424 37.5358C40.446 36.9573 43.7168 40.1942 43.169 44.4006C39.6792 45.1043 35.5947 42.3521 36.1424 37.5358Z" fill="#1E7243"/>
<path d="M45.6416 44.4306C44.9374 40.318 48.3802 36.8935 52.5273 37.5346C53.2629 41.6159 49.7887 45.0874 45.6416 44.4306Z" fill="#1E7243"/>
<path d="M24.3114 44.4594C19.8513 44.8034 16.8936 41.8323 17.3787 37.5477C21.4006 36.7503 24.7809 40.0966 24.3114 44.4594Z" fill="#1E7243"/>
<path d="M26.7684 44.4471C26.3928 40.0062 29.3349 37.082 33.6698 37.5199C34.374 41.2415 31.3693 45.057 26.7684 44.4471Z" fill="#1E7243"/>
<path d="M40.8372 30.3695C40.8372 29.5876 40.8372 28.8683 40.8372 28.149C44.3583 27.7581 48.1925 31.5423 47.8482 35.0763C47.1283 35.0763 46.4084 35.0763 45.6416 35.0763C45.2817 32.2772 43.6698 30.7135 40.8372 30.3695Z" fill="#1E7243"/>
</svg>

