<svg width="70" height="70" viewBox="0 0 70 70" fill="none" xmlns="http://www.w3.org/2000/svg">
<path d="M39.511 18.5156V25.0323H46.0282L39.511 18.5156Z" fill="#1E7243"/>
<path d="M38.6319 26.7897C38.1467 26.7897 37.753 26.3961 37.753 25.9106V18H24.2773C23.7919 18 23.3984 18.3934 23.3984 18.8789V47.1211C23.3984 47.6066 23.7919 48 24.2773 48H45.6645C46.15 48 46.5434 47.6066 46.5434 47.1211V26.7897H38.6319ZM26.9836 23.1567C27.4055 22.1592 28.3778 21.5147 29.4606 21.5147C30.9433 21.5147 32.1495 22.7209 32.1495 24.2036C32.1495 25.3785 31.3919 26.3798 30.3395 26.7447V27.3677C30.3395 27.8531 29.9461 28.2466 29.4606 28.2466C28.9754 28.2466 28.5817 27.8531 28.5817 27.3677V26.0134C28.5817 25.5279 28.9754 25.1345 29.4606 25.1345C29.974 25.1345 30.3915 24.7168 30.3915 24.2036C30.3915 23.6902 29.974 23.2725 29.4606 23.2725C29.0855 23.2725 28.7488 23.4959 28.6025 23.8415C28.4135 24.2885 27.8978 24.4977 27.4508 24.3087C27.0036 24.1194 26.7946 23.6037 26.9836 23.1567ZM30.3395 30.8835C30.3395 31.1149 30.2459 31.3413 30.0822 31.5047C29.9188 31.6681 29.692 31.7624 29.4606 31.7624C29.2292 31.7624 29.0031 31.6681 28.839 31.5047C28.6755 31.3413 28.5817 31.1145 28.5817 30.8835C28.5817 30.6521 28.6755 30.4253 28.839 30.2619C29.0031 30.0985 29.2292 30.0046 29.4606 30.0046C29.692 30.0046 29.9184 30.0985 30.0822 30.2619C30.2459 30.4253 30.3395 30.6521 30.3395 30.8835ZM42.1489 44.4274H27.9395C27.4542 44.4274 27.0605 44.0339 27.0605 43.5485C27.0605 43.063 27.4542 42.6696 27.9395 42.6696H42.1489C42.6341 42.6696 43.0278 43.063 43.0278 43.5485C43.0278 44.0339 42.6341 44.4274 42.1489 44.4274ZM42.1489 40.9118H27.9395C27.4542 40.9118 27.0605 40.5181 27.0605 40.0329C27.0605 39.5474 27.4542 39.1539 27.9395 39.1539H42.1489C42.6341 39.1539 43.0278 39.5474 43.0278 40.0329C43.0278 40.5181 42.6341 40.9118 42.1489 40.9118ZM42.1489 37.3961H27.9395C27.4542 37.3961 27.0605 37.0025 27.0605 36.517C27.0605 36.0318 27.4542 35.6381 27.9395 35.6381H42.1489C42.6341 35.6381 43.0278 36.0318 43.0278 36.517C43.0278 37.0025 42.6341 37.3961 42.1489 37.3961ZM42.1489 33.8803H32.8325C32.347 33.8803 31.9534 33.4868 31.9534 33.0014C31.9534 32.5159 32.347 32.1225 32.8325 32.1225H42.1489C42.6344 32.1225 43.0278 32.5159 43.0278 33.0014C43.0278 33.4868 42.6341 33.8803 42.1489 33.8803ZM42.1489 30.3647H32.8325C32.347 30.3647 31.9534 29.9712 31.9534 29.4857C31.9534 29.0003 32.347 28.6068 32.8325 28.6068H42.1489C42.6344 28.6068 43.0278 29.0003 43.0278 29.4857C43.0278 29.9712 42.6341 30.3647 42.1489 30.3647Z" fill="#1E7243"/>
<circle cx="35" cy="35" r="34.5" stroke="#C7D0D9"/>
</svg>

