<svg width="13" height="12" viewBox="0 0 13 12" fill="none" xmlns="http://www.w3.org/2000/svg">
<path d="M6.153 11.807C6.013 11.807 5.894 11.765 5.796 11.681C5.712 11.583 5.67 11.464 5.67 11.324V6.956H1.365C1.225 6.956 1.106 6.914 1.008 6.83C0.924 6.732 0.882 6.613 0.882 6.473V5.801C0.882 5.661 0.924 5.549 1.008 5.465C1.106 5.367 1.225 5.318 1.365 5.318H5.67V1.076C5.67 0.936 5.712 0.824 5.796 0.74C5.894 0.642 6.013 0.592999 6.153 0.592999H6.888C7.028 0.592999 7.14 0.642 7.224 0.74C7.322 0.824 7.371 0.936 7.371 1.076V5.318H11.697C11.837 5.318 11.949 5.367 12.033 5.465C12.131 5.549 12.18 5.661 12.18 5.801V6.473C12.18 6.613 12.131 6.732 12.033 6.83C11.949 6.914 11.837 6.956 11.697 6.956H7.371V11.324C7.371 11.464 7.322 11.583 7.224 11.681C7.14 11.765 7.028 11.807 6.888 11.807H6.153Z" fill="#333333"/>
</svg>
