<svg width="65" height="65" viewBox="0 0 65 65" fill="none" xmlns="http://www.w3.org/2000/svg">
<g filter="url(#filter0_d)">
<circle cx="32.5" cy="32.5" r="22.5" fill="#C9D200"/>
</g>
<path d="M32.153 38.807C32.013 38.807 31.894 38.765 31.796 38.681C31.712 38.583 31.67 38.464 31.67 38.324V33.956H27.365C27.225 33.956 27.106 33.914 27.008 33.83C26.924 33.732 26.882 33.613 26.882 33.473V32.801C26.882 32.661 26.924 32.549 27.008 32.465C27.106 32.367 27.225 32.318 27.365 32.318H31.67V28.076C31.67 27.936 31.712 27.824 31.796 27.74C31.894 27.642 32.013 27.593 32.153 27.593H32.888C33.028 27.593 33.14 27.642 33.224 27.74C33.322 27.824 33.371 27.936 33.371 28.076V32.318H37.697C37.837 32.318 37.949 32.367 38.033 32.465C38.131 32.549 38.18 32.661 38.18 32.801V33.473C38.18 33.613 38.131 33.732 38.033 33.83C37.949 33.914 37.837 33.956 37.697 33.956H33.371V38.324C33.371 38.464 33.322 38.583 33.224 38.681C33.14 38.765 33.028 38.807 32.888 38.807H32.153Z" fill="#333333"/>
<defs>
<filter id="filter0_d" x="0" y="0" width="65" height="65" filterUnits="userSpaceOnUse" color-interpolation-filters="sRGB">
<feFlood flood-opacity="0" result="BackgroundImageFix"/>
<feColorMatrix in="SourceAlpha" type="matrix" values="0 0 0 0 0 0 0 0 0 0 0 0 0 0 0 0 0 0 127 0"/>
<feOffset/>
<feGaussianBlur stdDeviation="5"/>
<feColorMatrix type="matrix" values="0 0 0 0 0 0 0 0 0 0 0 0 0 0 0 0 0 0 0.25 0"/>
<feBlend mode="normal" in2="BackgroundImageFix" result="effect1_dropShadow"/>
<feBlend mode="normal" in="SourceGraphic" in2="effect1_dropShadow" result="shape"/>
</filter>
</defs>
</svg>
