<svg width="22" height="25" viewBox="0 0 22 25" fill="none" xmlns="http://www.w3.org/2000/svg">
<path d="M4.52986 4.27004L4.52987 4.27004C6.25951 2.54035 8.55426 1.58984 11.0004 1.58984C13.4465 1.58984 15.7413 2.54035 17.4709 4.27004C19.2006 5.99979 20.1511 8.2945 20.1511 10.7406C20.1511 13.1671 19.0004 15.465 17.4179 17.5167C15.8399 19.5625 13.917 21.2573 12.5181 22.4878L12.5181 22.4879L12.507 22.4976C12.1282 22.8309 11.7852 23.1327 11.5082 23.3914C11.3679 23.5224 11.1867 23.5898 11.0003 23.5898C10.8138 23.5898 10.6329 23.5225 10.4926 23.3914L10.4925 23.3913C10.2165 23.1334 9.87455 22.8326 9.49716 22.5006L9.48264 22.4878L9.48259 22.4878C8.08371 21.2572 6.16084 19.5625 4.58284 17.5166C3.00033 15.4649 1.84961 13.167 1.84961 10.7406C1.84961 8.29451 2.80011 5.9998 4.52986 4.27004Z" stroke="#C9D200" stroke-width="2"/>
</svg>
