<svg width="22" height="24" viewBox="0 0 22 24" fill="none" xmlns="http://www.w3.org/2000/svg">
<path d="M12.7188 14.6479H9.28125V16.386H12.7188V14.6479ZM12.7188 11.1715H9.28125V12.9097H12.7188V11.1715ZM17.875 11.1715H14.4375V12.9097H17.875V11.1715ZM17.875 14.6479H14.4375V16.386H17.875V14.6479ZM17.875 18.1242H14.4375V19.8624H17.875V18.1242ZM12.7188 18.1242H9.28125V19.8624H12.7188V18.1242ZM7.5625 18.1242H4.125V19.8624H7.5625V18.1242ZM19.4219 2.48075H17.0156V0.917969H15.2969V2.48075H6.70312V0.917969H4.98438V2.48075H2.57812C1.15655 2.48075 0 3.65036 0 5.08799V20.5576C0 21.9952 1.15655 23.1649 2.57812 23.1649H19.4219C20.8435 23.1649 22 21.9952 22 20.5576V5.08799C22 3.65036 20.8435 2.48075 19.4219 2.48075ZM20.2812 20.5576C20.2812 21.0368 19.8957 21.4267 19.4219 21.4267H2.57812C2.10427 21.4267 1.71875 21.0368 1.71875 20.5576V9.43339H20.2812V20.5576ZM20.2812 7.69523H1.71875V5.08799C1.71875 4.60878 2.10427 4.21891 2.57812 4.21891H4.98438V5.95707H6.70312V4.21891H15.2969V5.95707H17.0156V4.21891H19.4219C19.8957 4.21891 20.2812 4.60878 20.2812 5.08799V7.69523ZM7.5625 14.6479H4.125V16.386H7.5625V14.6479ZM7.5625 11.1715H4.125V12.9097H7.5625V11.1715Z" fill="#333333"/>
</svg>
