<svg width="70" height="70" viewBox="0 0 70 70" fill="none" xmlns="http://www.w3.org/2000/svg">
<path d="M50.2296 24.6126C46.1149 24.6126 40.3018 24.9569 37.3311 27.9259C36.045 29.2121 35.4027 31.3088 35.5695 33.6819C35.5911 33.9954 35.7995 34.2624 36.099 34.3613C36.397 34.4586 36.7243 34.3674 36.9281 34.1282C38.5802 32.1843 40.6337 30.6264 43.0362 29.4977C43.24 29.4005 43.4808 29.3927 43.7001 29.47C43.8931 29.5394 44.0443 29.6707 44.1231 29.839C44.2867 30.1849 44.2342 30.6403 43.6908 30.8966C43.6599 30.912 43.6321 30.9321 43.6013 30.946C43.5905 30.9507 43.5781 30.9491 43.5688 30.9538C37.6492 33.7361 34.7388 38.5903 33.4171 43.582C32.4537 37.332 30.4187 33.6526 28.4965 31.3938C27.1054 29.5905 25.7374 28.6347 24.9469 28.0943C24.8002 27.994 24.3571 27.6914 24.1734 27.5076C23.8723 27.2065 23.8723 26.7171 24.1734 26.416C24.4744 26.1164 24.9654 26.1164 25.3004 26.4499C25.3823 26.5225 25.5135 26.6152 25.6803 26.7263L25.8177 26.819C26.9355 27.5848 29.0169 29.0068 30.8634 32.0685C31.0286 32.3418 31.3482 32.4885 31.6586 32.4298C31.9736 32.3742 32.2206 32.1318 32.2824 31.8184C32.6854 29.7603 32.5047 26.7062 30.6689 24.8704C27.6983 21.9029 21.8853 21.5586 17.7721 21.5586C17.3459 21.5585 17 21.9044 17 22.3305C17 26.4452 17.3443 32.2583 20.3134 35.229C21.5516 36.4672 23.4616 37.0231 25.3591 37.0231C26.9077 37.0231 28.4254 36.6355 29.588 35.9639C31.1737 39.2494 32.4398 44.1578 32.4398 51.6662C32.4398 52.0923 32.7857 52.4382 33.2118 52.4382C33.6379 52.4382 33.9838 52.0923 33.9838 51.6662C33.9838 47.4774 34.7018 42.4501 37.3713 38.3123C38.4413 39.3576 40.2833 40.0199 42.3244 40.0817C42.4263 40.0848 42.5266 40.0863 42.627 40.0863C44.7006 40.0863 46.5332 39.4363 47.6866 38.2814C50.6572 35.3108 50.9999 29.4977 50.9999 25.3829C51.0016 24.9569 50.6572 24.6126 50.2296 24.6126Z" fill="#1E7243"/>
<circle cx="35" cy="35" r="34.5" stroke="#C7D0D9"/>
</svg>

