<svg width="34" height="32" viewBox="0 0 34 32" fill="none" xmlns="http://www.w3.org/2000/svg">
<path d="M33.2296 3.61257C29.1149 3.61257 23.3018 3.95685 20.3311 6.92593C19.045 8.21209 18.4027 10.3088 18.5695 12.6819C18.5911 12.9954 18.7995 13.2624 19.099 13.3613C19.397 13.4586 19.7243 13.3674 19.9281 13.1282C21.5802 11.1843 23.6337 9.62642 26.0362 8.49775C26.24 8.40048 26.4808 8.39273 26.7001 8.46996C26.8931 8.53944 27.0443 8.67065 27.1231 8.83899C27.2867 9.18487 27.2342 9.64032 26.6908 9.8966C26.6599 9.91201 26.6321 9.93213 26.6013 9.94603C26.5905 9.95066 26.5781 9.94914 26.5688 9.95377C20.6492 12.7361 17.7388 17.5903 16.4171 22.582C15.4537 16.332 13.4187 12.6526 11.4965 10.3938C10.1054 8.59046 8.73737 7.63469 7.9469 7.09434C7.8002 6.99396 7.35712 6.69136 7.17336 6.5076C6.87229 6.20653 6.87229 5.71706 7.17336 5.41599C7.47444 5.11643 7.96543 5.11643 8.30045 5.44993C8.3823 5.52252 8.51351 5.61516 8.68027 5.72633L8.8177 5.81896C9.93552 6.58476 12.0169 8.00676 13.8634 11.0685C14.0286 11.3418 14.3482 11.4885 14.6586 11.4298C14.9736 11.3742 15.2206 11.1318 15.2824 10.8184C15.6854 8.76025 15.5047 5.70621 13.6689 3.87044C10.6983 0.902878 4.88525 0.558594 0.772087 0.558594C0.345876 0.558521 0 0.904397 0 1.33054C0 5.44522 0.344284 11.2583 3.31336 14.229C4.55161 15.4672 6.46156 16.0231 8.35907 16.0231C9.90766 16.0231 11.4254 15.6355 12.588 14.9639C14.1737 18.2494 15.4398 23.1578 15.4398 30.6662C15.4398 31.0923 15.7857 31.4382 16.2118 31.4382C16.6379 31.4382 16.9838 31.0923 16.9838 30.6662C16.9838 26.4774 17.7018 21.4501 20.3713 17.3123C21.4413 18.3576 23.2833 19.0199 25.3244 19.0817C25.4263 19.0848 25.5266 19.0863 25.627 19.0863C27.7006 19.0863 29.5332 18.4363 30.6866 17.2814C33.6572 14.3108 33.9999 8.49768 33.9999 4.38292C34.0016 3.95685 33.6572 3.61257 33.2296 3.61257Z" fill="#1E7243"/>
</svg>
