<svg width="21" height="24" viewBox="0 0 21 24" fill="none" xmlns="http://www.w3.org/2000/svg">
<path d="M17.6646 8.97757H16.9309V7.2538C16.9309 3.86571 14.1746 1.10938 10.7865 1.10938C7.39841 1.10938 4.64208 3.86571 4.64208 7.2538V8.97757H3.90841C2.30353 8.97757 0.994141 10.2819 0.994141 11.8918V20.7824C0.994141 22.3873 2.29843 23.6967 3.90841 23.6967H17.6646C19.2695 23.6967 20.5789 22.3924 20.5789 20.7824V11.8918C20.5738 10.2819 19.2695 8.97757 17.6646 8.97757ZM6.38962 7.2538C6.38962 4.82864 8.36134 2.85692 10.7865 2.85692C13.2117 2.85692 15.1834 4.82864 15.1834 7.2538V8.97757H6.38962V7.2538ZM18.8262 20.7773C18.8262 21.4193 18.3015 21.9441 17.6595 21.9441H3.90841C3.26646 21.9441 2.74169 21.4193 2.74169 20.7773V11.8918C2.74169 11.2499 3.26646 10.7251 3.90841 10.7251H17.6646C18.3066 10.7251 18.8313 11.2499 18.8313 11.8918V20.7773H18.8262Z" fill="#C9D200" stroke="#C9D200" stroke-width="0.4"/>
<path d="M10.7863 14.3828C10.3023 14.3828 9.91504 14.7751 9.91504 15.2591V17.5162C9.91504 18.0002 10.3073 18.3874 10.7863 18.3874C11.2703 18.3874 11.6626 17.9951 11.6626 17.5162V15.2591C11.6575 14.7751 11.2703 14.3828 10.7863 14.3828Z" fill="#C9D200"/>
</svg>
