<svg width="24" height="28" viewBox="0 0 24 28" fill="none" xmlns="http://www.w3.org/2000/svg">
<path d="M1.69544 6.29499C1.44679 6.28159 1.26963 6.27713 1.09246 6.26075C0.435084 6.19672 0.0372392 5.85721 0.00149537 5.21692C-0.0311403 4.63916 0.473936 4.18798 1.17172 4.17904C2.6481 4.16117 4.12292 4.17309 5.59929 4.17309C5.87747 4.17309 6.15566 4.17309 6.5162 4.17309C6.5162 3.47174 6.50843 2.83293 6.51776 2.19562C6.53641 0.879289 7.43777 0.012657 8.8178 0.00670076C10.8894 -0.00223359 12.961 -0.00223359 15.0326 0.00670076C16.5027 0.012657 17.387 0.873333 17.401 2.28645C17.4072 2.87909 17.4025 3.47323 17.4025 4.17458C18.5619 4.17458 19.6886 4.17458 20.8169 4.17458C21.4121 4.17458 22.0088 4.16564 22.604 4.17606C23.4308 4.18947 23.9266 4.59449 23.9204 5.23032C23.9141 5.83785 23.4619 6.20863 22.66 6.26372C22.5357 6.27266 22.4098 6.28308 22.2171 6.29946C22.1207 7.97316 22.0182 9.62602 21.9296 11.2789C21.6934 15.7386 21.4665 20.1983 21.2318 24.6581C21.1385 26.4241 20.3879 27.1105 18.5619 27.1105C14.1079 27.1105 9.65389 27.112 5.1999 27.1105C3.59298 27.1091 2.77708 26.3615 2.69472 24.804C2.37924 18.882 2.06842 12.9615 1.75605 7.03952C1.74207 6.81616 1.71875 6.5943 1.69544 6.29499ZM19.0172 24.9961C19.3529 18.7212 19.6839 12.5207 20.0149 6.32478C14.5757 6.32478 9.26071 6.32478 3.90535 6.32478C4.24103 12.5907 4.57205 18.7912 4.90307 24.9961C9.65234 24.9961 14.2819 24.9961 19.0172 24.9961ZM8.72921 4.12097C10.922 4.12097 13.0496 4.12097 15.1538 4.12097C15.1538 3.41516 15.1538 2.76295 15.1538 2.13159C12.9812 2.13159 10.8723 2.13159 8.72921 2.13159C8.72921 2.80315 8.72921 3.43749 8.72921 4.12097Z" fill="#98A6B4"/>
</svg>
