<svg width="14" height="16" viewBox="0 0 14 16" fill="none" xmlns="http://www.w3.org/2000/svg">
<path d="M0.954775 3.54595C0.814749 3.53841 0.714979 3.53589 0.61521 3.52667C0.245014 3.49061 0.020971 3.29942 0.000842106 2.93884C-0.0175364 2.61348 0.266893 2.3594 0.659844 2.35437C1.49125 2.34431 2.32179 2.35102 3.1532 2.35102C3.30985 2.35102 3.46651 2.35102 3.66955 2.35102C3.66955 1.95606 3.66517 1.59632 3.67042 1.23742C3.68092 0.496141 4.18852 0.00810425 4.96567 0.00475004C6.13227 -0.000281265 7.29887 -0.000281265 8.46547 0.00475004C9.29338 0.00810425 9.79135 0.492787 9.79922 1.28857C9.80273 1.62232 9.8001 1.9569 9.8001 2.35186C10.453 2.35186 11.0875 2.35186 11.7228 2.35186C12.058 2.35186 12.3941 2.34682 12.7293 2.35269C13.1949 2.36024 13.4741 2.58833 13.4706 2.94639C13.4671 3.28852 13.2124 3.49732 12.7608 3.52834C12.6908 3.53337 12.6199 3.53924 12.5114 3.54847C12.4571 4.491 12.3994 5.42179 12.3495 6.35258C12.2164 8.86405 12.0887 11.3755 11.9565 13.887C11.904 14.8815 11.4813 15.2681 10.453 15.2681C7.94474 15.2681 5.43651 15.2689 2.92828 15.2681C2.02336 15.2672 1.56389 14.8463 1.51751 13.9691C1.33985 10.6342 1.16482 7.30015 0.988907 3.96523C0.981031 3.83945 0.967903 3.7145 0.954775 3.54595ZM10.7094 14.0773C10.8984 10.5437 11.0848 7.05194 11.2713 3.56272C8.20817 3.56272 5.21509 3.56272 2.19926 3.56272C2.3883 7.09135 2.57471 10.5831 2.76112 14.0773C5.43564 14.0773 8.04276 14.0773 10.7094 14.0773ZM4.91579 2.32167C6.15065 2.32167 7.34875 2.32167 8.53373 2.32167C8.53373 1.92419 8.53373 1.55691 8.53373 1.20136C7.31025 1.20136 6.12264 1.20136 4.91579 1.20136C4.91579 1.57955 4.91579 1.93677 4.91579 2.32167Z" fill="#333333"/>
<path d="M7.34722 12.2901C7.34547 12.7756 7.11793 13.0473 6.7346 13.0456C6.35215 13.044 6.12198 12.7689 6.12111 12.2868C6.11848 10.0537 6.11848 7.82147 6.12111 5.58841C6.12198 5.10792 6.35478 4.83119 6.73635 4.83203C7.11618 4.83287 7.34547 5.10959 7.34722 5.5926C7.35072 6.72213 7.35072 11.1874 7.34722 12.2901Z" fill="#333333"/>
<path d="M5.05639 12.291C5.05464 12.7765 4.8271 13.0482 4.44377 13.0465C4.06132 13.0448 3.83115 12.7698 3.83028 12.2876C3.77164 9.94301 3.58961 7.92713 3.51172 5.47688C3.51259 4.99639 3.8014 4.8312 4.18385 4.83203C4.56367 4.83287 4.79296 5.1096 4.79471 5.5926C4.79821 6.72297 5.06076 11.1883 5.05639 12.291Z" fill="#333333"/>
<path d="M8.43363 12.291C8.43538 12.7765 8.66292 13.0482 9.04625 13.0465C9.42869 13.0448 9.65886 12.7698 9.65974 12.2876C9.71838 9.94301 9.90041 7.92713 9.9783 5.47688C9.97742 4.99639 9.68862 4.8312 9.30617 4.83203C8.92635 4.83287 8.69705 5.1096 8.6953 5.5926C8.69268 6.72297 8.43013 11.1883 8.43363 12.291Z" fill="#333333"/>
</svg>
