<svg width="18" height="17" viewBox="0 0 18 17" fill="none" xmlns="http://www.w3.org/2000/svg">
<path d="M16.7917 2.125H14.6667V0.708333C14.6667 0.317332 14.3493 0 13.9583 0C13.5673 0 13.25 0.317332 13.25 0.708333V2.125H4.75V0.708333C4.75 0.317332 4.43267 0 4.04167 0C3.65067 0 3.33333 0.317332 3.33333 0.708333V2.125H1.20833C0.817332 2.125 0.5 2.44233 0.5 2.83333V16.2917C0.5 16.6827 0.817332 17 1.20833 17H16.7917C17.1827 17 17.5 16.6827 17.5 16.2917V2.83333C17.5 2.44233 17.1827 2.125 16.7917 2.125ZM1.91667 15.5833V7.79167H11.8333C12.2243 7.79167 12.5417 7.47433 12.5417 7.08333C12.5417 6.69233 12.2243 6.375 11.8333 6.375H1.91667V3.54167H3.33333V4.25C3.33333 4.641 3.65067 4.95833 4.04167 4.95833C4.43267 4.95833 4.75 4.641 4.75 4.25V3.54167H13.25V4.25C13.25 4.641 13.5673 4.95833 13.9583 4.95833C14.3493 4.95833 14.6667 4.641 14.6667 4.25V3.54167H16.0833V6.375H14.6667C14.2757 6.375 13.9583 6.69233 13.9583 7.08333C13.9583 7.47433 14.2757 7.79167 14.6667 7.79167H16.0833V15.5833H1.91667Z" fill="#1E7243"/>
<path d="M4.75016 9.20703H4.04183C3.65083 9.20703 3.3335 9.52436 3.3335 9.91536C3.3335 10.3064 3.65083 10.6237 4.04183 10.6237H4.75016C5.14116 10.6237 5.4585 10.3064 5.4585 9.91536C5.4585 9.52436 5.14116 9.20703 4.75016 9.20703Z" fill="#1E7243"/>
<path d="M7.93766 9.20703H7.22933C6.83833 9.20703 6.521 9.52436 6.521 9.91536C6.521 10.3064 6.83833 10.6237 7.22933 10.6237H7.93766C8.32866 10.6237 8.646 10.3064 8.646 9.91536C8.646 9.52436 8.32866 9.20703 7.93766 9.20703Z" fill="#1E7243"/>
<path d="M10.7707 9.20703H10.0623C9.67134 9.20703 9.354 9.52436 9.354 9.91536C9.354 10.3064 9.67134 10.6237 10.0623 10.6237H10.7707C11.1617 10.6237 11.479 10.3064 11.479 9.91536C11.479 9.52436 11.1617 9.20703 10.7707 9.20703Z" fill="#1E7243"/>
<path d="M13.9582 9.20703H13.2498C12.8588 9.20703 12.5415 9.52436 12.5415 9.91536C12.5415 10.3064 12.8588 10.6237 13.2498 10.6237H13.9582C14.3492 10.6237 14.6665 10.3064 14.6665 9.91536C14.6665 9.52436 14.3492 9.20703 13.9582 9.20703Z" fill="#1E7243"/>
<path d="M4.75016 12.043H4.04183C3.65083 12.043 3.3335 12.3603 3.3335 12.7513C3.3335 13.1423 3.65083 13.4596 4.04183 13.4596H4.75016C5.14116 13.4596 5.4585 13.1423 5.4585 12.7513C5.4585 12.3603 5.14116 12.043 4.75016 12.043Z" fill="#1E7243"/>
<path d="M7.93766 12.043H7.22933C6.83833 12.043 6.521 12.3603 6.521 12.7513C6.521 13.1423 6.83833 13.4596 7.22933 13.4596H7.93766C8.32866 13.4596 8.646 13.1423 8.646 12.7513C8.646 12.3603 8.32866 12.043 7.93766 12.043Z" fill="#1E7243"/>
<path d="M10.7707 12.043H10.0623C9.67134 12.043 9.354 12.3603 9.354 12.7513C9.354 13.1423 9.67134 13.4596 10.0623 13.4596H10.7707C11.1617 13.4596 11.479 13.1423 11.479 12.7513C11.479 12.3603 11.1617 12.043 10.7707 12.043Z" fill="#1E7243"/>
<path d="M13.9582 12.043H13.2498C12.8588 12.043 12.5415 12.3603 12.5415 12.7513C12.5415 13.1423 12.8588 13.4596 13.2498 13.4596H13.9582C14.3492 13.4596 14.6665 13.1423 14.6665 12.7513C14.6665 12.3603 14.3492 12.043 13.9582 12.043Z" fill="#1E7243"/>
</svg>

