<svg width="23" height="22" viewBox="0 0 23 22" fill="none" xmlns="http://www.w3.org/2000/svg">
<path d="M20.501 8.46673C20.1774 8.37143 19.9322 8.13282 19.8279 7.81206C19.7237 7.49134 19.7819 7.1541 19.9876 6.88682C20.6205 6.0645 20.6354 4.9906 20.0254 4.15111C19.4154 3.31154 18.3895 2.99389 17.4119 3.34168C17.0942 3.45475 16.7554 3.40589 16.4826 3.20763C16.2098 3.00946 16.0586 2.7024 16.0679 2.36525C16.0966 1.32793 15.4774 0.450388 14.4905 0.12971C13.5036 -0.190795 12.4869 0.155049 11.9004 1.0111C11.7098 1.28927 11.4071 1.44887 11.0698 1.44887C10.7325 1.44887 10.4298 1.28931 10.2392 1.0111C9.65269 0.154963 8.63595 -0.191011 7.64905 0.12971C6.66211 0.450388 6.0429 1.32793 6.07165 2.36525C6.08099 2.70235 5.92982 3.00941 5.65701 3.20763C5.38416 3.40585 5.0454 3.45475 4.72771 3.34172C3.74994 2.9938 2.72412 3.31154 2.11416 4.15111C1.50415 4.99065 1.51903 6.0645 2.15199 6.88687C2.35774 7.15405 2.41594 7.49134 2.31168 7.81206C2.20747 8.13278 1.96216 8.37147 1.63863 8.46673C0.643215 8.76 0 9.61998 0 10.6577C0 11.6955 0.643215 12.5555 1.63863 12.8487C1.96216 12.944 2.20743 13.1826 2.31168 13.5034C2.4159 13.8241 2.35769 14.1614 2.15199 14.4286C1.51907 15.251 1.50419 16.3249 2.11416 17.1643C2.72412 18.0039 3.75002 18.3215 4.72771 17.9738C5.0454 17.8607 5.3842 17.9096 5.65701 18.1078C5.92982 18.306 6.08099 18.6131 6.07165 18.9502C6.04294 19.9875 6.66216 20.8651 7.64905 21.1857C7.89358 21.2651 8.13984 21.3037 8.381 21.3037C9.11325 21.3037 9.79798 20.9483 10.2392 20.3043C10.4298 20.0261 10.7326 19.8665 11.0698 19.8665C11.4071 19.8665 11.7099 20.0261 11.9005 20.3043C12.4869 21.1604 13.5036 21.5063 14.4906 21.1857C15.4775 20.865 16.0967 19.9875 16.068 18.9502C16.0586 18.6131 16.2098 18.306 16.4826 18.1078C16.7554 17.9096 17.0942 17.8606 17.4119 17.9737C18.3896 18.3215 19.4155 18.0039 20.0255 17.1643C20.6355 16.3248 20.6206 15.2509 19.9876 14.4285C19.7819 14.1614 19.7237 13.8241 19.8279 13.5034C19.9322 13.1826 20.1775 12.9439 20.501 12.8487C21.4964 12.5555 22.1396 11.6955 22.1396 10.6577C22.1396 9.61998 21.4964 8.76 20.501 8.46673ZM20.14 11.6235C19.4168 11.8366 18.8461 12.3918 18.6132 13.1087C18.3802 13.8257 18.5157 14.6103 18.9754 15.2078C19.3141 15.6477 19.2061 16.1192 18.9921 16.4136C18.7781 16.7081 18.3631 16.9566 17.84 16.7704C17.1298 16.5178 16.3417 16.6314 15.7318 17.0745C15.1219 17.5177 14.7703 18.2321 14.7912 18.9856C14.8065 19.5405 14.4421 19.8585 14.0958 19.971C13.7496 20.0836 13.2679 20.0405 12.9541 19.5825C12.5281 18.9606 11.8236 18.5893 11.0698 18.5893C10.316 18.5893 9.61152 18.9606 9.18546 19.5825C8.87166 20.0405 8.38991 20.0834 8.04376 19.971C7.69757 19.8585 7.33309 19.5406 7.3484 18.9856C7.36924 18.232 7.01764 17.5176 6.40777 17.0745C6.01198 16.787 5.54117 16.6382 5.06525 16.6382C4.80784 16.6382 4.54886 16.6817 4.29953 16.7704C3.7764 16.9565 3.36145 16.7081 3.1475 16.4136C2.93349 16.1191 2.82552 15.6477 3.16419 15.2078C3.62397 14.6104 3.75941 13.8257 3.52646 13.1087C3.29352 12.3918 2.72274 11.8366 1.99961 11.6235C1.46705 11.4666 1.27726 11.0217 1.27726 10.6577C1.27726 10.2937 1.46701 9.84881 1.99961 9.69193C2.72274 9.47888 3.29348 8.92366 3.52642 8.20672C3.75936 7.48978 3.62393 6.70512 3.16414 6.1077C2.82548 5.66776 2.93349 5.1963 3.14745 4.90183C3.36141 4.60731 3.7764 4.35889 4.29953 4.54509C5.00977 4.79775 5.79793 4.68411 6.40777 4.24093C7.01764 3.79783 7.36928 3.0834 7.3484 2.32987C7.33309 1.77491 7.69753 1.45692 8.04376 1.34445C8.38995 1.23185 8.8717 1.27496 9.18546 1.73297C9.61148 2.35491 10.3159 2.72622 11.0697 2.72622C11.8236 2.72622 12.528 2.35491 12.9541 1.73306C13.2679 1.27504 13.7497 1.23206 14.0958 1.34453C14.442 1.457 14.8065 1.77491 14.7911 2.32996C14.7703 3.08353 15.1219 3.79796 15.7318 4.24101C16.3417 4.68406 17.1297 4.79787 17.84 4.54513C18.363 4.35898 18.7781 4.6074 18.9921 4.90191C19.2061 5.19643 19.3141 5.66785 18.9754 6.10779C18.5156 6.70517 18.3802 7.48987 18.6131 8.20681C18.8461 8.92375 19.4168 9.47897 20.14 9.69202C20.6725 9.84881 20.8622 10.2937 20.8622 10.6577C20.8623 11.0217 20.6725 11.4666 20.14 11.6235Z" fill="white"/>
<path d="M15.7434 7.19283C15.4756 6.96326 15.0723 6.99431 14.8429 7.2621L10.1231 12.7684L7.1957 10.5729C6.91355 10.3613 6.51327 10.4185 6.3016 10.7006C6.08994 10.9828 6.14719 11.383 6.42934 11.5947L9.83542 14.1493C9.95001 14.2353 10.0846 14.277 10.2183 14.277C10.3988 14.277 10.5777 14.2008 10.7035 14.054L15.8126 8.09338C16.0422 7.8255 16.0112 7.42236 15.7434 7.19283Z" fill="white"/>
</svg>
