<svg width="19" height="13" viewBox="0 0 19 13" fill="none" xmlns="http://www.w3.org/2000/svg">
<path d="M16.1776 0.238281H1.98672C0.891259 0.238281 0 1.12954 0 2.22501V10.7395C0 11.835 0.891259 12.7263 1.98672 12.7263H16.1776C17.2731 12.7263 18.1643 11.835 18.1643 10.7395V2.22501C18.1643 1.12954 17.2731 0.238281 16.1776 0.238281ZM1.98672 1.37355H16.1776C16.6471 1.37355 17.0291 1.75554 17.0291 2.22501V3.36028H1.13527V2.22501C1.13527 1.75554 1.51725 1.37355 1.98672 1.37355ZM16.1776 11.591H1.98672C1.51725 11.591 1.13527 11.209 1.13527 10.7395V4.49555H17.0291V10.7395C17.0291 11.209 16.6471 11.591 16.1776 11.591Z" fill="#C9D200"/>
</svg>
