<svg width="23" height="23" viewBox="0 0 23 23" fill="none" xmlns="http://www.w3.org/2000/svg">
<path d="M22.9356 19.4507C22.3962 16.8005 20.9698 14.3844 18.9126 12.6612C17.8703 11.7809 16.6909 11.116 15.42 10.6478C16.6543 9.53339 17.4406 7.90391 17.4406 6.08713C17.4406 2.72516 14.7799 0 11.4976 0C8.21516 0 5.55451 2.72516 5.55451 6.08713C5.55451 7.90391 6.34082 9.53339 7.57514 10.6478C6.30425 11.116 5.12478 11.7809 4.08246 12.6612C2.0344 14.3937 0.598926 16.8005 0.0594806 19.4507C-0.114239 20.3217 0.0960532 21.2207 0.644642 21.9137C1.19323 22.5973 1.99783 23 2.86643 23H20.1287C20.9973 23 21.8019 22.6067 22.3505 21.9137C22.9082 21.2207 23.1185 20.3217 22.9356 19.4507ZM11.5067 2.23819C13.573 2.23819 15.2554 3.96132 15.2554 6.07777C15.2554 8.19422 13.573 9.91735 11.5067 9.91735C9.44034 9.91735 7.75801 8.19422 7.75801 6.07777C7.75801 3.96132 9.44034 2.23819 11.5067 2.23819ZM20.7047 20.5277C20.6224 20.6307 20.4395 20.7993 20.1378 20.7993H2.87557C2.57384 20.7993 2.39098 20.6307 2.30869 20.5277C2.17155 20.3498 2.11669 20.1156 2.1624 19.8909C3.04015 15.5737 6.75226 12.3616 11.0313 12.1368C11.1867 12.1555 11.3513 12.1649 11.5067 12.1649C11.6621 12.1649 11.8176 12.1555 11.973 12.1368C16.2611 12.3522 19.9732 15.5737 20.851 19.8909C20.8967 20.1156 20.8418 20.3498 20.7047 20.5277Z" fill="#C9D200"/>
</svg>
