<svg width="11" height="11" viewBox="0 0 11 11" fill="none" xmlns="http://www.w3.org/2000/svg">
<path d="M10.7071 1.70711C11.0976 1.31658 11.0976 0.683417 10.7071 0.292893C10.3166 -0.0976311 9.68342 -0.0976311 9.29289 0.292893L10.7071 1.70711ZM0.292893 9.29289C-0.0976311 9.68342 -0.0976311 10.3166 0.292893 10.7071C0.683417 11.0976 1.31658 11.0976 1.70711 10.7071L0.292893 9.29289ZM9.29289 10.7071C9.68342 11.0976 10.3166 11.0976 10.7071 10.7071C11.0976 10.3166 11.0976 9.68342 10.7071 9.29289L9.29289 10.7071ZM1.70711 0.292893C1.31658 -0.0976311 0.683417 -0.0976311 0.292893 0.292893C-0.0976311 0.683417 -0.0976311 1.31658 0.292893 1.70711L1.70711 0.292893ZM9.29289 0.292893L0.292893 9.29289L1.70711 10.7071L10.7071 1.70711L9.29289 0.292893ZM10.7071 9.29289L1.70711 0.292893L0.292893 1.70711L9.29289 10.7071L10.7071 9.29289Z" fill="#919EAB"/>
</svg>
