<svg width="28" height="28" viewBox="0 0 28 28" fill="none" xmlns="http://www.w3.org/2000/svg">
<path d="M27.0607 3.06066C27.6464 2.47487 27.6464 1.52513 27.0607 0.93934C26.4749 0.353553 25.5251 0.353553 24.9393 0.93934L27.0607 3.06066ZM0.93934 24.9393C0.353553 25.5251 0.353553 26.4749 0.93934 27.0607C1.52513 27.6464 2.47487 27.6464 3.06066 27.0607L0.93934 24.9393ZM24.9393 27.0607C25.5251 27.6464 26.4749 27.6464 27.0607 27.0607C27.6464 26.4749 27.6464 25.5251 27.0607 24.9393L24.9393 27.0607ZM3.06066 0.93934C2.47487 0.353553 1.52513 0.353553 0.93934 0.93934C0.353553 1.52513 0.353553 2.47487 0.93934 3.06066L3.06066 0.93934ZM24.9393 0.93934L0.93934 24.9393L3.06066 27.0607L27.0607 3.06066L24.9393 0.93934ZM27.0607 24.9393L3.06066 0.93934L0.93934 3.06066L24.9393 27.0607L27.0607 24.9393Z" fill="#919EAB"/>
</svg>
