<svg width="24" height="17" viewBox="0 0 24 17" fill="none" xmlns="http://www.w3.org/2000/svg">
<path d="M21.2521 0.546875H2.63046C1.19297 0.546875 0.0234375 1.71641 0.0234375 3.1539V14.3269C0.0234375 15.7644 1.19297 16.9339 2.63046 16.9339H21.2521C22.6896 16.9339 23.8591 15.7644 23.8591 14.3269V3.1539C23.8591 1.71641 22.6896 0.546875 21.2521 0.546875ZM2.63046 2.0366H21.2521C21.8681 2.0366 22.3694 2.53785 22.3694 3.1539V4.64363H1.51317V3.1539C1.51317 2.53785 2.01441 2.0366 2.63046 2.0366ZM21.2521 15.4442H2.63046C2.01441 15.4442 1.51317 14.9429 1.51317 14.3269V6.13336H22.3694V14.3269C22.3694 14.9429 21.8681 15.4442 21.2521 15.4442Z" fill="#C9D200"/>
<path d="M5.23778 13.2112H4.49291C4.08156 13.2112 3.74805 12.8776 3.74805 12.4663V11.7214C3.74805 11.3101 4.08156 10.9766 4.49291 10.9766H5.23778C5.64913 10.9766 5.98264 11.3101 5.98264 11.7214V12.4663C5.98264 12.8776 5.64913 13.2112 5.23778 13.2112Z" fill="#C9D200"/>
</svg>
