<svg width="26" height="26" viewBox="0 0 26 26" fill="none" xmlns="http://www.w3.org/2000/svg">
<path d="M15.7024 16.7539C15.427 17.0506 15.0774 17.273 14.8019 17.5697C14.4523 17.9299 14.4841 18.4595 14.8125 18.8197C15.1303 19.1693 15.5965 19.2117 16.0096 18.9363C16.1685 18.8303 16.3274 18.7138 16.4652 18.5761C17.4928 17.5485 17.8953 17.0082 17.8953 15.5251C17.8953 15.1225 17.9059 14.7093 17.8953 14.3068C17.8847 13.6288 17.5563 13.2368 16.9948 13.2156C16.4228 13.1944 16.052 13.6076 16.0308 14.2962C16.0202 14.9 16.0626 15.4933 16.0202 16.0971C15.999 16.3196 15.8613 16.5738 15.7024 16.7539Z" fill="#333333"/>
<path d="M23.9339 18.3639C24.4605 18.3639 24.8873 17.937 24.8873 17.4105C24.8873 16.8839 24.4605 16.457 23.9339 16.457C23.4073 16.457 22.9805 16.8839 22.9805 17.4105C22.9805 17.937 23.4073 18.3639 23.9339 18.3639Z" fill="#333333"/>
<path d="M22.7689 21.7545C23.2955 21.7545 23.7224 21.3277 23.7224 20.8011C23.7224 20.2745 23.2955 19.8477 22.7689 19.8477C22.2423 19.8477 21.8154 20.2745 21.8154 20.8011C21.8154 21.3277 22.2423 21.7545 22.7689 21.7545Z" fill="#333333"/>
<path d="M20.3851 13.2583C19.7601 13.2795 19.3787 13.6291 19.3787 14.1693C19.3787 14.7096 19.7706 15.0698 20.3957 15.0804C20.9995 15.091 21.5928 15.091 22.1966 15.0804C23.6797 15.038 24.8345 13.8939 24.8874 12.4108C24.9086 11.7963 24.898 11.1713 24.8874 10.5569C24.8768 9.93183 24.5273 9.55046 23.9764 9.55046C23.4149 9.55046 23.0653 9.91065 23.0335 10.5357C23.0229 10.9171 23.0335 11.2984 23.0335 11.6798C21.8364 10.5675 20.5864 9.76233 19.0821 9.31739C13.9229 7.79189 8.59421 12.1247 9.04974 17.4746C9.38874 21.4049 12.3338 24.4135 16.2429 24.7949C17.779 24.9432 19.241 24.6466 20.6076 23.9368C20.9889 23.8097 21.2644 23.4495 21.2644 23.0257C21.2644 22.4961 20.8406 22.0723 20.3109 22.0723C20.0673 22.0723 19.8342 22.1676 19.6647 22.3266C18.8702 22.5914 18.0333 22.8774 17.2175 22.941C14.7068 23.1211 12.3868 21.6486 11.3804 19.3497C10.3846 17.0932 10.9037 14.3918 12.6622 12.6438C14.4314 10.8853 17.1328 10.398 19.4211 11.4362C20.2897 11.8281 21.0525 12.3684 21.6775 13.2583C21.1796 13.2583 20.7771 13.2477 20.3851 13.2583Z" fill="#333333"/>
<path d="M8.55182 22.9727C7.41828 22.9621 6.29534 22.9727 5.16181 22.9727C3.71046 22.9621 3.02186 22.2735 3.02186 20.8221C3.02186 18.4703 3.02186 16.1291 3.02186 13.7773C3.02186 11.4678 3.01127 9.1478 3.02186 6.83836C3.03246 5.72601 3.61512 4.98445 4.60034 4.84673C4.67449 4.83614 5.20418 4.82554 6.0199 4.82554V5.71542C6.0199 6.21333 6.42247 6.61589 6.92037 6.61589C7.41828 6.61589 7.82085 6.21333 7.82085 5.71542V4.80435C9.06032 4.80435 10.5329 4.79376 12.0584 4.79376V5.70482C12.0584 6.20273 12.4609 6.6053 12.9588 6.6053C13.4567 6.6053 13.8593 6.20273 13.8593 5.70482V4.79376C15.3742 4.79376 16.8573 4.79376 18.0968 4.80435V5.70482C18.0968 6.20273 18.4994 6.6053 18.9973 6.6053C19.4952 6.6053 19.8978 6.20273 19.8978 5.70482V4.81495C20.7876 4.82554 21.3597 4.83614 21.4444 4.84673C22.3025 4.96326 22.8852 5.60948 23.0017 6.47817C23.0123 6.6053 23.0229 6.72183 23.0441 6.84895C23.15 7.31508 23.542 7.6117 24.0081 7.56933C24.4955 7.52695 24.7815 7.24092 24.8556 6.7748C24.8874 6.55233 24.8662 6.31926 24.8239 6.0862C24.506 4.26407 23.0759 3.0246 21.222 2.95044C21.1584 2.95044 20.6605 2.95044 19.8978 2.93985V1.98641C19.8978 1.4885 19.4952 1.08594 18.9973 1.08594C18.4994 1.08594 18.0968 1.4885 18.0968 1.98641V2.93985C16.8679 2.93985 15.3848 2.93985 13.8593 2.93985V1.98641C13.8593 1.4885 13.4567 1.08594 12.9588 1.08594C12.4609 1.08594 12.0584 1.4885 12.0584 1.98641V2.93985C10.5329 2.93985 9.04972 2.93985 7.82085 2.93985V1.98641C7.82085 1.4885 7.41828 1.08594 6.92037 1.08594C6.42247 1.08594 6.0199 1.4885 6.0199 1.98641V2.93985C5.27834 2.93985 4.82281 2.93985 4.80162 2.93985C2.71464 3.03519 1.15736 4.61367 1.15736 6.72183C1.14677 11.4996 1.14677 16.288 1.15736 21.0658C1.16795 23.2057 2.77821 24.8054 4.92874 24.8266C6.12584 24.8372 7.33353 24.8266 8.53063 24.8266C9.27219 24.8266 9.68535 24.477 9.67476 23.8838C9.66416 23.3117 9.2616 22.9727 8.55182 22.9727Z" fill="#333333" stroke="#333333" stroke-width="0.4"/>
</svg>
