<svg width="23" height="23" viewBox="0 0 23 23" fill="none" xmlns="http://www.w3.org/2000/svg">
<g clip-path="url(#clip0)">
<path d="M18.2809 14.4316C19.8696 14.4316 21.1621 15.724 21.1621 17.3128C21.1621 18.9017 19.8695 20.194 18.2809 20.194C16.6923 20.194 15.3997 18.9015 15.3997 17.3128C15.3997 15.7242 16.6923 14.4316 18.2809 14.4316ZM18.2809 18.704C19.0479 18.704 19.6718 18.0801 19.6718 17.3131C19.6718 16.5461 19.0479 15.9219 18.2809 15.9219C17.5139 15.9219 16.89 16.5461 16.89 17.3131C16.89 18.0801 17.5139 18.704 18.2809 18.704Z" fill="#1E7243"/>
<path d="M5.41372 14.4316C7.00261 14.4316 8.29492 15.724 8.29492 17.3128C8.29492 18.9017 7.00234 20.194 5.41372 20.194C3.82506 20.194 2.53252 18.9015 2.53252 17.3128C2.53248 15.7242 3.82484 14.4316 5.41372 14.4316ZM5.41372 18.704C6.18072 18.704 6.80464 18.0801 6.80464 17.3131C6.80464 16.5461 6.18072 15.9219 5.41372 15.9219C4.64673 15.9219 4.02254 16.5461 4.02254 17.3131C4.02254 18.0801 4.64673 18.704 5.41372 18.704Z" fill="#1E7243"/>
<path d="M20.1685 6.50781C20.4474 6.50781 20.703 6.66356 20.8309 6.91166L22.9173 10.9603C22.9717 11.0658 23 11.1828 23 11.3016V17.3124C23 17.724 22.6664 18.0575 22.2549 18.0575H20.4417V16.5672H21.5097V11.4824L19.7142 7.9981H14.0335V6.50781H20.1685Z" fill="#1E7243"/>
<path d="M7.57572 16.5664H16.0703V18.0567H7.57572V16.5664Z" fill="#1E7243"/>
<path d="M0.745839 2.80664H14.0342C14.4458 2.80664 14.7793 3.14023 14.7793 3.55176V17.312H13.289V4.29692H1.49096V16.5669H3.2793V18.0572H0.745839C0.334265 18.0572 0.000718117 17.7236 0.000718117 17.312V3.5518C0.000718117 3.14023 0.33431 2.80664 0.745839 2.80664Z" fill="#1E7243"/>
<path d="M14.0345 10.5801H22.2559V12.0704H14.0345V10.5801Z" fill="#1E7243"/>
</g>
<defs>
<clipPath id="clip0">
<rect width="23" height="23" fill="white" transform="matrix(-1 0 0 1 23 0)"/>
</clipPath>
</defs>
</svg>
