<svg width="24" height="18" viewBox="0 0 24 18" fill="none" xmlns="http://www.w3.org/2000/svg">
<path d="M21.3769 0.589844H2.89259C1.71648 0.589844 0.759766 1.54656 0.759766 2.72267V15.5195C0.759766 16.6957 1.71648 17.6524 2.89259 17.6524H21.3769C22.5531 17.6524 23.5098 16.6957 23.5098 15.5195V2.72267C23.5098 1.54656 22.5531 0.589844 21.3769 0.589844ZM21.3769 2.01171C21.4735 2.01171 21.5654 2.03175 21.6494 2.06675L12.1348 10.3132L2.62005 2.06675C2.70406 2.0318 2.79595 2.01171 2.89255 2.01171H21.3769ZM21.3769 16.2305H2.89259C2.50033 16.2305 2.18163 15.9118 2.18163 15.5195V3.56897L11.6689 11.7913C11.8029 11.9072 11.9688 11.9648 12.1348 11.9648C12.3007 11.9648 12.4666 11.9072 12.6006 11.7913L22.0879 3.56897V15.5195C22.0878 15.9118 21.7692 16.2305 21.3769 16.2305Z" fill="#C9D200" stroke="#C9D200" stroke-width="0.5"/>
</svg>
