<svg width="138" height="52" viewBox="0 0 138 52" fill="none" xmlns="http://www.w3.org/2000/svg">
<path d="M137.189 40.2461C136.427 40.2461 135.282 40.8941 134.901 41.0238C134.011 41.1534 132.867 40.7645 132.231 35.7101C131.85 32.7293 132.231 29.6188 132.359 26.5084C132.359 25.7308 124.477 26.8972 124.477 29.3596C124.35 33.1181 123.841 37.0061 124.731 40.6349C124.731 40.7645 124.731 40.7645 124.858 40.8941C121.045 41.931 117.231 39.8573 115.833 35.7101C115.451 34.5437 115.324 33.2477 115.324 31.9517C115.324 31.5628 115.451 29.1004 115.705 28.3228C121.045 27.286 126.13 25.4716 130.833 22.8796C131.342 22.6204 132.613 21.9723 132.486 21.1947C131.087 10.1786 120.282 12.2522 112.782 15.7515C110.875 16.6587 110.366 17.1771 110.493 18.4731C110.62 19.6395 111.892 19.8987 112.909 19.6395C114.18 19.2507 114.816 17.8251 116.341 17.1771C121.299 14.8443 123.587 18.7323 124.477 23.1388C121.426 24.4348 112.909 25.99 109.985 26.5084C108.714 26.7676 108.459 27.6748 108.205 28.4524C107.824 30.2668 107.57 32.0813 107.57 33.8957C107.442 36.0989 107.188 40.3757 105.281 40.6349C103.374 41.0238 103.756 32.4701 103.756 30.6556C103.883 26.5084 104.264 22.6204 103.374 18.4731C101.976 11.993 94.7301 12.9002 89.518 15.2331C86.7213 11.993 81.255 12.5114 76.2972 13.9371C75.0259 14.3259 71.8479 15.1035 71.5936 16.7883C70.5766 26.7676 69.8139 37.5245 71.4665 47.5038C65.3646 45.171 60.1525 38.5613 58.7542 31.9517C64.0933 31.174 68.7969 29.1004 68.1613 22.4908C67.0172 11.0858 55.1947 10.049 44.5163 14.8443C43.3722 15.3627 42.9909 16.1403 42.6095 17.8251C41.084 23.5276 40.067 34.2845 41.5925 43.227C41.7196 43.875 43.3722 44.7822 45.9147 44.7822C48.4572 44.7822 50.2369 44.1342 50.1098 43.227C47.4402 32.5997 48.9657 20.5467 50.364 16.0107C61.4237 14.9739 60.661 26.7676 60.5339 28.4524C60.2796 30.1372 58.1185 30.3964 57.4829 28.582C56.8473 26.8972 50.364 28.1932 50.4911 31.6924C50.8725 44.2638 62.8221 53.3359 74.6446 51.5215C75.5344 51.3919 80.6194 50.0958 80.3651 48.5406C77.5684 38.4317 77.8227 27.5452 78.8396 17.1771C86.8484 13.5483 83.1618 37.3949 83.0347 43.4862C83.0347 43.875 84.1788 44.523 87.1027 44.523C89.7723 44.523 90.9164 44.2638 90.9164 43.0974C91.0435 37.9133 91.1706 31.6924 91.1706 25.99C91.1706 24.3052 91.2977 19.7691 90.2808 17.8251C96.6369 14.7147 96.0013 26.7676 95.8742 29.1004C95.8742 33.2477 94.7301 39.9869 98.0353 43.3566C100.578 45.9486 106.425 44.523 109.604 41.5422C110.239 42.3198 111.129 43.0974 112.146 43.6158C115.96 45.819 121.299 44.7822 125.875 42.9678C127.782 44.523 130.96 44.3934 133.503 43.7454C134.774 43.4862 137.062 42.7086 137.825 41.283C138.206 40.7645 137.952 40.2461 137.189 40.2461Z" fill="white"/>
<path d="M38.0325 38.4331C37.9054 37.2667 36.2528 37.2667 35.3629 37.3963C33.5832 37.6555 32.9476 39.7291 30.6594 40.7659C29.261 41.4139 27.4813 41.5435 26.3372 41.1547C22.9048 39.9883 22.1421 37.1371 21.6336 34.0267C20.998 29.4906 21.2522 23.5289 22.7777 19.1225C23.1591 17.9561 16.8029 16.4009 15.2774 20.1593C12.6079 27.0282 11.5909 37.9147 17.5657 43.0987C22.3964 47.246 29.8966 44.7836 35.2358 41.4139C36.2528 40.7659 38.1597 39.3403 38.0325 38.4331Z" fill="white"/>
<path d="M7.26912 12.2527C10.3201 11.3455 10.7015 10.8271 10.7015 9.91987C10.7015 7.71665 10.9557 5.51342 12.0998 3.82861C13.6253 3.69901 15.7864 4.21741 17.5661 4.60621C19.6001 4.99502 20.9984 4.47661 22.2697 3.82861C22.3968 3.82861 25.5749 1.75498 24.3037 1.49578C15.1508 -1.35545 3.20117 0.847775 3.20117 12.1231C3.20117 13.0303 4.34528 13.1599 7.26912 12.2527Z" fill="white"/>
<path d="M10.8281 16.3988C18.2013 14.714 27.0999 13.5476 30.1509 21.3236C30.7865 22.8789 31.0407 24.5637 31.0407 26.2485C31.0407 27.6741 30.6594 28.8405 28.4983 28.4517C27.6084 28.3221 25.3202 27.1557 24.049 27.9333C22.7777 28.7109 23.032 31.8214 24.3032 31.6918C28.6254 31.4326 38.2868 30.1365 38.9224 24.3045C39.3038 20.546 38.6681 17.1764 35.1087 14.3252C28.7525 9.14112 11.4637 12.8996 1.29388 16.1396C0.149771 16.5284 -0.358723 17.8244 0.276894 18.4724C1.03963 19.1204 2.94648 18.3428 2.81936 18.4724C1.9295 24.8229 1.9295 38.3014 2.56511 44.9111C2.56511 45.4295 3.45498 45.6887 5.99745 45.6887C8.53991 45.6887 10.4468 45.0407 10.3196 44.0039C10.0654 35.7094 9.30265 24.9525 10.8281 16.3988Z" fill="white"/>
</svg>
