<svg width="33" height="33" viewBox="0 0 33 33" fill="none" xmlns="http://www.w3.org/2000/svg">
<path d="M27.8914 7.24881H13.1663C12.7615 6.04643 11.6242 5.17773 10.2871 5.17773C8.94994 5.17773 7.81267 6.04643 7.40784 7.24881H5.10938C4.57545 7.24881 4.14258 7.68167 4.14258 8.2156C4.14258 8.74953 4.57545 9.1824 5.10938 9.1824H7.4079C7.81273 10.3848 8.95001 11.2535 10.2872 11.2535C11.6243 11.2535 12.7616 10.3848 13.1664 9.1824H27.8914C28.4254 9.1824 28.8582 8.74953 28.8582 8.2156C28.8582 7.68167 28.4254 7.24881 27.8914 7.24881ZM10.2871 9.31988C9.6782 9.31988 9.18281 8.82449 9.18281 8.2156C9.18281 7.60671 9.6782 7.11133 10.2871 7.11133C10.896 7.11133 11.3914 7.60671 11.3914 8.2156C11.3914 8.82449 10.896 9.31988 10.2871 9.31988Z" fill="#333333"/>
<path d="M27.8914 15.534H25.5928C25.188 14.3316 24.0507 13.4629 22.7136 13.4629C21.3765 13.4629 20.2392 14.3316 19.8344 15.534H5.10938C4.57545 15.534 4.14258 15.9668 4.14258 16.5008C4.14258 17.0347 4.57545 17.4676 5.10938 17.4676H19.8344C20.2392 18.6699 21.3766 19.5386 22.7136 19.5386C24.0507 19.5386 25.1881 18.6699 25.5929 17.4676H27.8914C28.4254 17.4676 28.8582 17.0347 28.8582 16.5008C28.8582 15.9668 28.4254 15.534 27.8914 15.534ZM22.7136 17.605C22.1048 17.605 21.6094 17.1096 21.6094 16.5008C21.6094 15.8919 22.1048 15.3965 22.7136 15.3965C23.3225 15.3965 23.8179 15.8919 23.8179 16.5008C23.8179 17.1096 23.3225 17.605 22.7136 17.605Z" fill="#333333"/>
<path d="M27.8914 23.8172H17.3085C16.9037 22.6148 15.7664 21.7461 14.4293 21.7461C13.0922 21.7461 11.9549 22.6148 11.55 23.8172H5.10938C4.57545 23.8172 4.14258 24.25 4.14258 24.784C4.14258 25.3179 4.57545 25.7508 5.10938 25.7508H11.55C11.9549 26.9531 13.0922 27.8218 14.4293 27.8218C15.7664 27.8218 16.9037 26.9531 17.3085 25.7508H27.8914C28.4254 25.7508 28.8582 25.3179 28.8582 24.784C28.8582 24.25 28.4254 23.8172 27.8914 23.8172ZM14.4293 25.8883C13.8204 25.8883 13.325 25.3929 13.325 24.784C13.325 24.1751 13.8204 23.6798 14.4293 23.6798C15.0382 23.6798 15.5336 24.1751 15.5336 24.784C15.5336 25.3929 15.0382 25.8883 14.4293 25.8883Z" fill="#333333"/>
</svg>
