<svg width="26" height="27" viewBox="0 0 26 27" fill="none" xmlns="http://www.w3.org/2000/svg">
<path d="M24.79 6.68281C24.6119 6.45469 24.3447 6.32227 24.0625 6.32227H7.08138L7.01181 5.65664L7.00933 5.63525C6.67652 2.99277 4.49608 1 1.9375 1C1.41972 1 1 1.43721 1 1.97656C1 2.51592 1.41972 2.95312 1.9375 2.95312C3.55497 2.95312 4.93389 4.2104 5.149 5.8793L6.26336 16.5434C5.28883 17.0042 4.60938 18.0274 4.60938 19.2129C4.60938 19.221 4.60947 19.2292 4.60966 19.2373C4.60947 19.2454 4.60938 19.2536 4.60938 19.2617C4.60938 20.8771 5.87106 22.1914 7.42188 22.1914H7.80334C7.708 22.4826 7.65625 22.7947 7.65625 23.1191C7.65625 24.7076 8.89689 26 10.4219 26C11.9469 26 13.1875 24.7076 13.1875 23.1191C13.1875 22.7947 13.1358 22.4826 13.0404 22.1914H17.0846C16.9893 22.4826 16.9375 22.7947 16.9375 23.1191C16.9375 24.7076 18.1782 26 19.7032 26C21.2282 26 22.4688 24.7076 22.4688 23.1191C22.4688 21.5307 21.2282 20.2383 19.7032 20.2383H7.42188C6.90494 20.2383 6.48438 19.8002 6.48438 19.2617C6.48438 19.2536 6.48428 19.2454 6.48409 19.2373C6.48428 19.2292 6.48438 19.221 6.48438 19.2129C6.48438 18.6744 6.90494 18.2363 7.42188 18.2363H19.3905C21.0547 18.2363 22.582 17.1638 23.2814 15.5038C23.4895 15.01 23.2739 14.4339 22.7998 14.2171C22.3257 14.0003 21.7727 14.225 21.5645 14.7188C21.1703 15.6545 20.2966 16.2832 19.3905 16.2832H8.12224L7.28547 8.27539H22.9093L22.4506 10.5662C22.3449 11.0942 22.67 11.6115 23.1769 11.7216C23.2414 11.7356 23.3058 11.7424 23.3693 11.7424C23.8039 11.7424 24.1938 11.4258 24.2861 10.965L24.9802 7.49824C25.0379 7.21045 24.968 6.91094 24.79 6.68281ZM19.7031 22.1914C20.1942 22.1914 20.5938 22.6076 20.5938 23.1191C20.5938 23.6307 20.1942 24.0469 19.7031 24.0469C19.212 24.0469 18.8125 23.6307 18.8125 23.1191C18.8125 22.6076 19.212 22.1914 19.7031 22.1914ZM10.4219 22.1914C10.913 22.1914 11.3125 22.6076 11.3125 23.1191C11.3125 23.6307 10.913 24.0469 10.4219 24.0469C9.93077 24.0469 9.53125 23.6307 9.53125 23.1191C9.53125 22.6076 9.93077 22.1914 10.4219 22.1914Z" fill="#333333" stroke="#333333" stroke-width="0.3"/>
</svg>
