<svg width="60" height="60" viewBox="0 0 60 60" fill="none" xmlns="http://www.w3.org/2000/svg">
<circle cx="30" cy="30" r="30" fill="#DEEDDD"/>
<path d="M46.7082 39.2645L41.3207 33.8764L41.2098 32.5108L42.6945 31.606C43.1145 31.3501 43.2848 30.826 43.0956 30.372L42.4265 28.7673L43.5589 27.4479C43.8792 27.0748 43.8792 26.5237 43.559 26.1504L42.4265 24.8306L43.0956 23.2258C43.2848 22.7719 43.1145 22.2478 42.6945 21.9918L41.2098 21.087L41.3505 19.3542C41.3904 18.864 41.0664 18.418 40.5879 18.3043L38.8964 17.9027L38.4946 16.2107C38.381 15.7321 37.9341 15.4084 37.4449 15.448L35.7115 15.5888L34.8066 14.104C34.5507 13.6839 34.0263 13.5138 33.5725 13.703L31.9679 14.3725L30.6488 13.2402C30.2756 12.9199 29.7244 12.9199 29.3513 13.2402L28.032 14.3725L26.4273 13.7031C25.9733 13.5137 25.4492 13.684 25.1932 14.104L24.2883 15.5889L22.555 15.4481C22.0648 15.4088 21.6189 15.7322 21.5052 16.2108L21.1034 17.9027L19.4119 18.3044C18.9335 18.4181 18.6095 18.864 18.6493 19.3542L18.7901 21.087L17.3053 21.9919C16.8854 22.2478 16.715 22.7719 16.9043 23.2258L17.5734 24.8307L16.4408 26.1505C16.1206 26.5237 16.1207 27.0748 16.441 27.448L17.5733 28.7673L16.9043 30.3721C16.715 30.826 16.8854 31.3501 17.3053 31.6061L18.7901 32.5109L18.6791 33.8765L13.2918 39.2645C13.0477 39.5086 12.9473 39.8617 13.0267 40.1977C13.106 40.5337 13.3537 40.8046 13.6811 40.9138L17.7351 42.265L19.0863 46.319C19.1954 46.6465 19.4664 46.8941 19.8024 46.9734C20.1384 47.0527 20.4915 46.9524 20.7356 46.7083L28.1326 39.3118L29.3511 40.3581C29.7225 40.6769 30.2737 40.6802 30.6489 40.3581L31.8674 39.3118L39.2645 46.7082C39.5086 46.9523 39.8616 47.0527 40.1977 46.9733C40.5337 46.894 40.8046 46.6463 40.9138 46.3189L42.265 42.2649L46.3189 40.9137C46.6464 40.8046 46.8941 40.5336 46.9734 40.1976C47.0526 39.8617 46.9523 39.5085 46.7082 39.2645ZM20.4669 44.16L19.4675 41.162C19.3683 40.8645 19.1349 40.6311 18.8375 40.532L15.8402 39.533L19.9515 35.4216L21.1035 35.6952L21.5054 37.3872C21.6191 37.8658 22.0663 38.1895 22.5551 38.1499L24.2885 38.0091L25.1705 39.4565L20.4669 44.16ZM34.3299 36.4482L33.5505 37.727L32.1685 37.1504C31.8212 37.0055 31.4217 37.0688 31.1361 37.314L30 38.2894L28.8639 37.314C28.4645 36.971 28.0152 37.0738 27.8315 37.1504L26.4494 37.727L25.6701 36.4482C25.4743 36.1269 25.1148 35.9434 24.739 35.9737L23.2461 36.095L22.9 34.6378C22.813 34.2716 22.5272 33.9858 22.1611 33.8988L20.7043 33.5527L20.8256 32.0603C20.856 31.6852 20.6724 31.325 20.351 31.1291L19.072 30.3497L19.6483 28.9676C19.7931 28.6203 19.7299 28.2211 19.4848 27.9355L18.5094 26.7992L19.4848 25.6624C19.7298 25.3769 19.7931 24.9777 19.6482 24.6304L19.072 23.2483L20.351 22.4689C20.6724 22.273 20.8559 21.9127 20.8255 21.5377L20.7042 20.0453L22.161 19.6993C22.5271 19.6124 22.813 19.3265 22.8999 18.9603L23.246 17.5031L24.7389 17.6243C25.114 17.655 25.4742 17.4712 25.67 17.1498L26.4494 15.871L27.8314 16.4476C28.1786 16.5924 28.5781 16.5292 28.8637 16.2841L30 15.3088L31.1362 16.2841C31.4219 16.5293 31.8212 16.5924 32.1685 16.4476L33.5505 15.871L34.3299 17.1498C34.5257 17.4711 34.8854 17.6552 35.261 17.6243L36.7539 17.5031L37.1 18.9603C37.1869 19.3265 37.4728 19.6124 37.8389 19.6993L39.2957 20.0453L39.1744 21.5377C39.1439 21.9128 39.3275 22.2731 39.6489 22.4689L40.9279 23.2483L40.3517 24.6304C40.2068 24.9776 40.27 25.3769 40.5151 25.6624L41.4905 26.7992L40.5152 27.9355C40.27 28.2211 40.2068 28.6203 40.3516 28.9676L40.9279 30.3497L39.6489 31.1291C39.3275 31.325 39.1439 31.6853 39.1743 32.0603L39.2956 33.5527L37.8388 33.8988C37.4727 33.9858 37.1869 34.2716 37.0999 34.6378L36.7538 36.095L35.261 35.9737C34.8859 35.9432 34.5257 36.1268 34.3299 36.4482ZM41.1625 40.532C40.865 40.6311 40.6316 40.8645 40.5325 41.162L39.5331 44.16L34.8296 39.4565L35.7117 38.009L37.445 38.1498C37.9337 38.1894 38.3811 37.8657 38.4947 37.3871L38.8966 35.6951L40.0486 35.4215L44.1599 39.5329L41.1625 40.532Z" fill="#1E7243"/>
<path d="M38.1722 23.9619L35.1545 20.9441C34.7655 20.5551 34.1348 20.5551 33.7458 20.9441L28.9325 25.7574L26.7866 23.6114C26.3976 23.2224 25.7669 23.2224 25.3779 23.6114L22.3601 26.6293C21.9711 27.0183 21.9711 27.6489 22.3601 28.038L28.2282 33.9061C28.6172 34.2952 29.248 34.295 29.6369 33.9061L38.1723 25.3706C38.5613 24.9815 38.5613 24.3509 38.1722 23.9619ZM28.9325 31.793L24.4731 27.3336L26.0822 25.7245L28.2282 27.8704C28.6171 28.2594 29.2478 28.2594 29.6368 27.8704L34.4501 23.0571L36.0592 24.6662L28.9325 31.793Z" fill="#1E7243"/>
</svg>


