<svg width="60" height="60" viewBox="0 0 60 60" fill="none" xmlns="http://www.w3.org/2000/svg">
<circle cx="30" cy="30" r="30" fill="#DEEDDD"/>
<path d="M44.8205 30.8515L43.6019 30.4453C43.3979 29.7924 41.7778 24.6082 41.5738 23.9554C41.1558 22.6176 39.9331 21.7188 38.5315 21.7188H34.25V19.0625C34.25 18.4757 33.7743 18 33.1875 18H14.0625C13.4757 18 13 18.4757 13 19.0625V38.7188C13 39.3055 13.4757 39.7812 14.0625 39.7812H16.343C16.8013 41.3156 18.2248 42.4375 19.9062 42.4375C21.5877 42.4375 23.0111 41.3156 23.4695 39.7812H34.4055C34.8639 41.3156 36.2874 42.4375 37.9688 42.4375C39.6502 42.4375 41.0737 41.3156 41.5321 39.7812H45.9375C46.5243 39.7812 47 39.3055 47 38.7188V33.8753C47 32.5012 46.1241 31.286 44.8205 30.8515ZM41.3048 30.2188H38.5V27.0312H40.3087L41.3048 30.2188ZM15.125 20.125H32.125V37.6562H23.4695C23.0112 36.1219 21.5877 35 19.9062 35C18.2248 35 16.8014 36.1219 16.343 37.6562H15.125V20.125ZM19.9062 40.3125C19.0274 40.3125 18.3125 39.5976 18.3125 38.7188C18.3125 37.8399 19.0274 37.125 19.9062 37.125C20.7851 37.125 21.5 37.8399 21.5 38.7188C21.5 39.5976 20.7851 40.3125 19.9062 40.3125ZM37.9688 40.3125C37.0899 40.3125 36.375 39.5976 36.375 38.7188C36.375 37.8399 37.0899 37.125 37.9688 37.125C38.8476 37.125 39.5625 37.8399 39.5625 38.7188C39.5625 39.5976 38.8476 40.3125 37.9688 40.3125ZM41.532 37.6562C41.0737 36.1219 39.6502 35 37.9688 35C36.2873 35 34.8639 36.1219 34.4055 37.6562H34.25V23.8438H38.5315C38.9987 23.8438 39.4062 24.1434 39.5456 24.5894L39.6446 24.9062H37.4375C36.8507 24.9062 36.375 25.382 36.375 25.9688V31.2812C36.375 31.868 36.8507 32.3438 37.4375 32.3438H42.5776L44.1485 32.8674C44.5831 33.0123 44.875 33.4173 44.875 33.8754V34.4688H43.8125C43.2257 34.4688 42.75 34.9445 42.75 35.5312C42.75 36.118 43.2257 36.5938 43.8125 36.5938H44.875V37.6562H41.532Z" fill="#1E7243"/>
</svg>

