<svg width="60" height="60" viewBox="0 0 60 60" fill="none" xmlns="http://www.w3.org/2000/svg">
<circle cx="30" cy="30" r="30" fill="#DEEDDD"/>
<path d="M42.2812 18H17.7188C15.6683 18 14 19.6683 14 21.7188V37.6562C14 39.7067 15.6683 41.375 17.7188 41.375H42.2812C44.3317 41.375 46 39.7067 46 37.6562V21.7188C46 19.6683 44.3317 18 42.2812 18ZM17.7188 20.125H42.2812C43.16 20.125 43.875 20.84 43.875 21.7188V23.8438H16.125V21.7188C16.125 20.84 16.84 20.125 17.7188 20.125ZM42.2812 39.25H17.7188C16.84 39.25 16.125 38.535 16.125 37.6562V25.9688H43.875V37.6562C43.875 38.535 43.16 39.25 42.2812 39.25Z" fill="#1E7243"/>
<path d="M21.4375 36.0625H20.375C19.7882 36.0625 19.3125 35.5868 19.3125 35V33.9375C19.3125 33.3507 19.7882 32.875 20.375 32.875H21.4375C22.0243 32.875 22.5 33.3507 22.5 33.9375V35C22.5 35.5868 22.0243 36.0625 21.4375 36.0625Z" fill="#1E7243"/>
</svg>
