<svg width="51" height="51" viewBox="0 0 51 51" xmlns="http://www.w3.org/2000/svg">
<path d="M49.793 25.3906C49.793 38.6925 39.0948 49.3906 25.793 49.3906C12.4911 49.3906 1.79297 38.6925 1.79297 25.3906C1.79297 12.0887 12.4911 1.39062 25.793 1.39062C39.0948 1.39062 49.793 12.0887 49.793 25.3906Z" stroke="#C9D200" stroke-width="2"/>
<path fill-rule="evenodd" clip-rule="evenodd" d="M25.293 13.6406C22.1992 13.6406 21.8242 13.6406 20.6992 13.7344C19.4805 13.8281 18.7305 14.0156 17.9805 14.2969C17.2305 14.5781 16.5742 14.9531 16.0117 15.6094C15.3555 16.2656 14.9805 16.8281 14.6992 17.5781C14.418 18.3281 14.2305 19.0781 14.1367 20.2969C14.043 21.4219 14.043 21.7969 14.043 24.8906C14.043 27.9844 14.043 28.3594 14.1367 29.4844C14.2305 30.7031 14.418 31.4531 14.6992 32.2031C14.9805 32.9531 15.3555 33.6094 16.0117 34.1719C16.668 34.8281 17.2305 35.2031 17.9805 35.4844C18.7305 35.7656 19.4805 35.9531 20.6992 36.0469C21.8242 36.1406 22.1992 36.1406 25.2928 36.1406H25.293H25.2932C28.3867 36.1406 28.7617 36.1406 29.8867 36.0469C31.1055 35.9531 31.8555 35.7656 32.6055 35.4844C33.3555 35.2031 34.0117 34.8281 34.5742 34.1719C35.2305 33.5156 35.6055 32.9531 35.8867 32.2031C36.168 31.4531 36.3555 30.7031 36.4492 29.4844C36.543 28.3594 36.543 27.9844 36.543 24.8908V24.8906V24.8904C36.543 21.7969 36.543 21.4219 36.4492 20.2969C36.3555 19.0781 36.168 18.3281 35.8867 17.5781C35.6055 16.8281 35.2305 16.1719 34.5742 15.6094C33.918 14.9531 33.3555 14.5781 32.6055 14.2969C31.8555 14.0156 31.1055 13.8281 29.8867 13.7344C28.7617 13.6406 28.3867 13.6406 25.293 13.6406ZM25.293 19.0781C22.1055 19.0781 19.4805 21.7031 19.4805 24.8906C19.4805 28.0781 22.1055 30.7031 25.293 30.7031C28.4805 30.7031 31.1055 28.0781 31.1055 24.8906C31.1055 21.7031 28.4805 19.0781 25.293 19.0781ZM25.293 28.6406C23.2305 28.6406 21.543 26.9531 21.543 24.8906C21.543 22.8281 23.2305 21.1406 25.293 21.1406C27.3555 21.1406 29.043 22.8281 29.043 24.8906C29.043 26.9531 27.3555 28.6406 25.293 28.6406ZM32.6055 18.8906C32.6055 19.6155 32.0178 20.2031 31.293 20.2031C30.5681 20.2031 29.9805 19.6155 29.9805 18.8906C29.9805 18.1658 30.5681 17.5781 31.293 17.5781C32.0178 17.5781 32.6055 18.1658 32.6055 18.8906Z" fill="white"/>
</svg>
