<svg width="27" height="24" viewBox="0 0 27 24" fill="none" xmlns="http://www.w3.org/2000/svg">
<path d="M24.7577 2.28705C21.8298 -0.761937 17.0669 -0.761937 14.1399 2.28705L13.46 2.99482L12.7805 2.28705C9.85352 -0.762349 5.09017 -0.762349 2.16314 2.28705C-0.704456 5.27413 -0.723077 10.009 2.11996 13.301C4.713 16.3026 12.3606 22.7872 12.6851 23.0617C12.9053 23.2482 13.1704 23.339 13.4339 23.339C13.4426 23.339 13.4513 23.339 13.4596 23.3386C13.7322 23.3518 14.0067 23.2544 14.2342 23.0617C14.5586 22.7872 22.207 16.3026 24.8008 13.3006C27.6435 10.009 27.6249 5.27413 24.7577 2.28705ZM23.0339 11.6445C21.0121 13.984 15.4548 18.8093 13.4596 20.5215C11.4644 18.8097 5.90829 13.9849 3.88695 11.6449C1.90364 9.34866 1.88502 6.07847 3.84377 4.03811C4.84414 2.99647 6.15789 2.47524 7.47165 2.47524C8.7854 2.47524 10.0992 2.99606 11.0995 4.03811L12.5939 5.59479C12.7718 5.78009 12.9961 5.89069 13.2314 5.92949C13.6133 6.01492 14.0277 5.9039 14.3249 5.5952L15.8201 4.03811C17.8212 1.95442 21.0763 1.95483 23.0762 4.03811C25.035 6.07847 25.0164 9.34866 23.0339 11.6445Z" fill="#98A6B4"/>
</svg>
