<svg width="27" height="24" viewBox="0 0 27 24" fill="none" xmlns="http://www.w3.org/2000/svg">
<path d="M24.7572 2.28701C21.8294 -0.761922 17.0666 -0.761922 14.1396 2.28701L13.4598 2.99476L12.7803 2.28701C9.85333 -0.762335 5.09007 -0.762335 2.1631 2.28701C-0.704443 5.27403 -0.723063 10.0088 2.11992 13.3008C4.71291 16.3022 12.3604 22.7868 12.6848 23.0612C12.9051 23.2478 13.1701 23.3386 13.4336 23.3386C13.4423 23.3386 13.451 23.3386 13.4594 23.3381C13.7319 23.3513 14.0065 23.254 14.2339 23.0612C14.5584 22.7868 22.2066 16.3022 24.8004 13.3004C27.643 10.0088 27.6243 5.27403 24.7572 2.28701Z" fill="#333333"/>
</svg>
