<svg width="33" height="28" viewBox="0 0 33 28" fill="none" xmlns="http://www.w3.org/2000/svg">
<path class="bg" d="M29.6046 2.73479C26.1036 -0.911104 20.4081 -0.911104 16.9081 2.73479L16.0951 3.58113L15.2826 2.73479C11.7826 -0.911598 6.08669 -0.911598 2.58663 2.73479C-0.84237 6.30667 -0.864637 11.9685 2.53499 15.905C5.63568 19.4942 14.7805 27.2484 15.1685 27.5765C15.4319 27.7996 15.7488 27.9082 16.0639 27.9082C16.0743 27.9082 16.0847 27.9082 16.0947 27.9077C16.4206 27.9235 16.7489 27.807 17.0208 27.5765C17.4088 27.2484 26.5546 19.4942 29.6562 15.9045C33.0554 11.9685 33.0331 6.30667 29.6046 2.73479Z" fill="#333333"/>
<path class="border" d="M29.6046 2.73479C26.1036 -0.911104 20.4081 -0.911104 16.9081 2.73479L16.0951 3.58113L15.2826 2.73479C11.7826 -0.911598 6.08669 -0.911598 2.58663 2.73479C-0.84237 6.30667 -0.864637 11.9685 2.53499 15.905C5.63568 19.4942 14.7805 27.2484 15.1685 27.5765C15.4319 27.7996 15.7488 27.9082 16.0639 27.9082C16.0743 27.9082 16.0847 27.9082 16.0947 27.9077C16.4206 27.9235 16.7489 27.807 17.0208 27.5765C17.4088 27.2484 26.5546 19.4942 29.6562 15.9045C33.0554 11.9685 33.0331 6.30667 29.6046 2.73479ZM27.5433 13.9242C25.1257 16.7218 18.4805 22.4916 16.0947 24.5391C13.7089 22.4921 7.06499 16.7227 4.64792 13.9247C2.27632 11.1789 2.25406 7.26848 4.59628 4.82867C5.79249 3.5831 7.36345 2.95982 8.9344 2.95982C10.5054 2.95982 12.0763 3.58261 13.2725 4.82867L15.0595 6.69011C15.2722 6.91169 15.5404 7.04394 15.8218 7.09033C16.2785 7.19248 16.774 7.05973 17.1293 6.6906L18.9173 4.82867C21.3102 2.33704 25.2025 2.33754 27.594 4.82867C29.9362 7.26848 29.9139 11.1789 27.5433 13.9242Z" fill="#333333"/>
</svg>
