<svg width="28" height="23" viewBox="0 0 28 23" fill="none" xmlns="http://www.w3.org/2000/svg">
<path d="M25.1135 2.32148C22.2617 -0.648424 17.6223 -0.648424 14.7711 2.32148L14.1089 3.01089L13.4471 2.32148C10.596 -0.648826 5.95619 -0.648826 3.10508 2.32148C0.311863 5.23108 0.293725 9.84311 3.06302 13.0498C5.5888 15.9734 13.038 22.2899 13.3541 22.5572C13.5687 22.7389 13.8268 22.8274 14.0835 22.8274C14.0919 22.8274 14.1004 22.8274 14.1085 22.827C14.374 22.8398 14.6415 22.745 14.863 22.5572C15.1791 22.2899 22.6291 15.9735 25.1556 13.0494C27.9245 9.84311 27.9064 5.23108 25.1135 2.32148ZM23.4344 11.4362C21.4651 13.7151 16.052 18.4151 14.1085 20.083C12.1651 18.4155 6.75309 13.7159 4.78418 11.4366C2.85231 9.19992 2.83417 6.01456 4.74211 4.02712C5.71654 3.0125 6.99621 2.50478 8.27589 2.50478C9.55557 2.50478 10.8352 3.0121 11.8097 4.02712L13.2653 5.54342C13.4386 5.72392 13.657 5.83165 13.8863 5.86944C14.2583 5.95265 14.6619 5.84451 14.9514 5.54383L16.4078 4.02712C18.357 1.99747 21.5277 1.99788 23.4757 4.02712C25.3837 6.01456 25.3655 9.19992 23.4344 11.4362Z" fill="#333333"/>
</svg>
