<svg width="263" height="41" viewBox="0 0 263 41" fill="none" xmlns="http://www.w3.org/2000/svg">
<g clip-path="url(#logo-white)">
<path d="M31.8784 17.3256H32.8846V12.4453H31.8784C26.6689 12.4453 23.1045 15.8061 22.2372 20.6864H19.2663V12.4913H14.1937V20.6864H11.2228C10.3554 15.8061 6.78921 12.4453 1.58155 12.4453H0.575395V17.3256H1.58155C4.36987 17.3256 6.06074 19.167 6.47158 22.1599L0.255859 33.438H6.05884L10.6293 24.967L14.1937 24.921V33.438H19.2663V24.921L22.8306 24.967L27.4011 33.438H33.2041L27.034 22.1599C27.4449 19.167 29.0901 17.3256 31.8784 17.3256Z" fill="white"/>
<path d="M129.305 10.1C133.326 10.1 136.342 7.01511 136.342 3.14844H132.276C132.276 5.03579 131.041 6.18736 129.305 6.18736C127.568 6.18736 126.334 5.03579 126.334 3.14844H122.268C122.268 7.15306 125.375 10.1 129.305 10.1Z" fill="white"/>
<path d="M43.9874 24.8759V12.4922H38.8691V33.4389H42.6161L54.4521 21.0092V33.4389H59.5248V12.4922H55.7778L43.9874 24.8759Z" fill="white"/>
<path d="M102.024 11.8477C95.4887 11.8477 90.7832 16.59 90.7832 22.9418C90.7832 29.4795 95.7189 34.082 102.024 34.082C108.514 34.082 113.31 29.2936 113.31 22.9418C113.31 16.452 108.42 11.8477 102.024 11.8477ZM102.024 29.0656C98.5509 29.0656 96.0384 26.7184 96.0384 22.9437C96.0384 19.215 98.5509 16.8218 102.024 16.8218C105.543 16.8218 108.01 19.215 108.01 22.9437C108.01 26.7165 105.543 29.0656 102.024 29.0656Z" fill="white"/>
<path d="M83.8816 22.2547C84.6576 21.7949 85.4812 20.4134 85.4812 18.572C85.4812 15.0272 82.7841 12.4961 78.7633 12.4961H66.8359V33.4428H79.4937C83.7427 33.4428 86.3941 30.6338 86.3941 26.9511C86.3941 24.6479 85.0684 22.9445 83.8816 22.2547ZM71.9542 17.0526H78.1699C79.313 17.0526 80.0434 17.8803 80.0434 18.9399C80.0434 19.9995 79.313 20.8272 78.1699 20.8272H71.9542V17.0526ZM78.672 28.8844H71.9542V24.5119H78.672C79.8608 24.5119 80.7281 25.5255 80.7281 26.7211C80.7281 27.9168 79.8589 28.8844 78.672 28.8844Z" fill="white"/>
<path d="M228.317 14.6126C226.655 12.8747 224.369 11.8477 221.626 11.8477C215.549 11.8477 210.979 16.544 210.979 22.9418C210.979 29.4795 215.777 34.082 221.626 34.082C224.344 34.082 226.64 33.0415 228.313 31.2787L228.524 33.4362H233.095V12.4934H228.524L228.317 14.6126ZM222.08 29.2055C218.562 29.2055 216.049 26.5824 216.049 22.9437C216.049 19.353 218.562 16.6819 222.08 16.6819C225.553 16.6819 228.066 19.353 228.066 22.9437C228.068 26.5805 225.553 29.2055 222.08 29.2055Z" fill="white"/>
<path d="M259.6 28.7876V12.4453L243.241 12.4913V14.9765C243.241 22.02 242.052 26.3006 239.996 28.7876H237.529V38.5942H241.915L242.372 33.438H257.727L258.183 38.5942H262.569V28.7876H259.6ZM254.527 28.7876H245.845C247.262 26.9463 248.129 22.2499 248.266 17.0937H254.527V28.7876Z" fill="white"/>
<path d="M196.628 16.8659C199.553 16.8659 201.427 18.3854 202.477 20.5946L206.91 18.2014C204.9 14.1048 201.244 11.8477 196.628 11.8477C190.139 11.8477 185.342 16.544 185.342 22.9418C185.342 29.2036 190.049 34.082 196.628 34.082C201.107 34.082 205.037 31.6888 206.865 27.7282L202.477 25.335C201.425 27.5443 199.506 29.0177 196.628 29.0177C192.79 29.0177 190.506 26.5326 190.506 22.9418C190.506 19.397 192.79 16.8659 196.628 16.8659Z" fill="white"/>
<path d="M123.547 24.8759V12.4922H118.475V33.4389H122.222L134.012 21.0092V33.4389H139.085V12.4922H135.338L123.547 24.8759Z" fill="white"/>
<path d="M167.574 32.2744C167.009 33.2344 166.298 34.1254 165.419 34.8343C164.548 35.549 163.506 36.0645 162.408 36.3136C161.311 36.5703 160.164 36.5492 159.084 36.327C158.001 36.0989 156.976 35.6851 156.042 35.1294C155.109 34.5718 154.26 33.861 153.551 33.0121C152.843 32.1633 152.282 31.1669 151.966 30.0805C151.655 28.9941 151.588 27.8368 151.734 26.712C151.875 25.5834 152.275 24.4913 152.843 23.5141C153.421 22.5388 154.194 21.6823 155.095 21.0021C155.995 20.3161 157.031 19.8256 158.117 19.5305C159.205 19.2412 160.352 19.155 161.476 19.2987C162.602 19.4366 163.698 19.8237 164.676 20.4004C165.647 20.9906 166.509 21.7704 167.169 22.6978C167.835 23.6195 168.31 24.6733 168.571 25.7731C168.829 26.873 168.873 28.0226 168.696 29.132C168.519 30.2376 168.135 31.3106 167.574 32.2744ZM166.587 31.6881C167.584 30.0192 167.804 27.9441 167.289 26.1027C167.032 25.1811 166.593 24.315 166.013 23.5696C165.431 22.8262 164.714 22.192 163.901 21.7168C163.093 21.2358 162.197 20.9139 161.269 20.7606C160.341 20.6112 159.379 20.6438 158.46 20.8737C157.539 21.0998 156.672 21.5309 155.915 22.1C155.158 22.6729 154.527 23.4049 154.047 24.2269C153.566 25.0508 153.262 25.9648 153.113 26.9036C152.969 27.8444 153.02 28.8121 153.224 29.749C153.425 30.686 153.779 31.6057 154.317 32.4258C154.852 33.2478 155.582 33.9491 156.43 34.4588C157.284 34.9608 158.251 35.254 159.221 35.3172C160.193 35.3881 161.155 35.2482 162.064 34.9838C162.973 34.7098 163.835 34.3055 164.62 33.7632C165.402 33.2229 166.094 32.5235 166.587 31.6881Z" fill="black"/>
<path d="M162.119 33.4005C166.855 33.4005 170.693 29.5332 170.693 24.7627C170.693 19.9922 166.855 16.125 162.119 16.125C157.384 16.125 153.545 19.9922 153.545 24.7627C153.545 29.5332 157.384 33.4005 162.119 33.4005Z" fill="black"/>
<path d="M170.71 16.5977C172.814 16.5977 174.52 14.8794 174.52 12.7598C174.52 10.6402 172.814 8.92188 170.71 8.92188C168.606 8.92188 166.9 10.6402 166.9 12.7598C166.9 14.8794 168.606 16.5977 170.71 16.5977Z" fill="black"/>
<path d="M149.594 27.6299C149.594 27.6299 149.088 21.2436 151.471 17.1796C153.854 13.1136 160.557 7.33853 170.204 13.0772C179.851 18.8159 176.56 27.8254 174.38 31.5445C172.201 35.2636 169.46 37.1088 164.937 38.0304C164.937 38.0304 159.077 31.2686 162.74 23.8859C162.742 23.884 158.442 29.751 149.594 27.6299Z" fill="#FF0000"/>
<path d="M168.985 40.753L168.804 40.5787C166.507 38.3656 164.293 35.7386 163.648 31.5462C163.233 28.8541 163.511 25.8324 164.496 22.4295C161.653 24.4778 158.29 26.047 154.414 26.4973C149.414 27.076 145.971 25.522 145.828 25.455L145.473 25.2902L145.497 24.8955C145.507 24.7537 145.748 21.3488 148.59 16.5011C150.433 13.3549 153.596 11.0345 157.267 10.1339C160.211 9.41156 164.896 9.25061 170.497 12.5827C173.879 14.5946 176.418 18.1623 177.46 22.3739C178.562 26.8211 177.894 31.4447 175.577 35.3976C172.61 40.4599 169.375 40.7281 169.238 40.7377L168.985 40.753ZM166.102 21.1783C162.301 32.3395 166.64 36.8921 169.386 39.5478C170.1 39.3792 172.397 38.561 174.594 34.8132C176.757 31.1228 177.38 26.8039 176.353 22.6537C175.594 19.5898 173.991 16.8958 171.834 14.9816C170.324 17.0318 168.413 19.2411 166.102 21.1783ZM146.684 24.5582C147.683 24.9242 150.566 25.796 154.347 25.3438C158.119 24.8936 161.754 23.2515 165.111 20.5115C165.946 18.1336 167.098 15.5794 168.576 12.8337C163.905 10.4654 160.038 10.6359 157.535 11.2491C154.161 12.0768 151.259 14.2018 149.571 17.0836C147.42 20.7529 146.834 23.5504 146.684 24.5582ZM169.58 13.3779C168.523 15.3457 167.663 17.166 166.975 18.8502C168.355 17.5109 169.683 15.978 170.942 14.2554C170.609 14.0102 170.267 13.7802 169.913 13.5714C169.803 13.5062 169.693 13.4411 169.58 13.3779Z" fill="black"/>
<path d="M171.065 23.4154C172.264 23.4154 173.237 22.4357 173.237 21.2272C173.237 20.0188 172.264 19.0391 171.065 19.0391C169.865 19.0391 168.893 20.0188 168.893 21.2272C168.893 22.4357 169.865 23.4154 171.065 23.4154Z" fill="black"/>
<path d="M155.92 17.7826C157.12 17.7826 158.092 16.8029 158.092 15.5944C158.092 14.3859 157.12 13.4062 155.92 13.4062C154.72 13.4062 153.748 14.3859 153.748 15.5944C153.748 16.8029 154.72 17.7826 155.92 17.7826Z" fill="black"/>
<path d="M154.434 24.1068C155.633 24.1068 156.606 23.1271 156.606 21.9186C156.606 20.7102 155.633 19.7305 154.434 19.7305C153.234 19.7305 152.262 20.7102 152.262 21.9186C152.262 23.1271 153.234 24.1068 154.434 24.1068Z" fill="black"/>
<path d="M162.604 16.3093C163.646 16.3093 164.49 15.4583 164.49 14.4086C164.49 13.3588 163.646 12.5078 162.604 12.5078C161.561 12.5078 160.717 13.3588 160.717 14.4086C160.717 15.4583 161.561 16.3093 162.604 16.3093Z" fill="black"/>
<path d="M172.34 29.7234C173.382 29.7234 174.227 28.8725 174.227 27.8226C174.227 26.7728 173.382 25.9219 172.34 25.9219C171.298 25.9219 170.453 26.7728 170.453 27.8226C170.453 28.8725 171.298 29.7234 172.34 29.7234Z" fill="black"/>
<path d="M161.134 20.8513C162.024 20.8513 162.745 20.1247 162.745 19.2284C162.745 18.3321 162.024 17.6055 161.134 17.6055C160.245 17.6055 159.523 18.3321 159.523 19.2284C159.523 20.1247 160.245 20.8513 161.134 20.8513Z" fill="black"/>
<path d="M167.883 33.5203C168.925 33.5203 169.77 32.6693 169.77 31.6195C169.77 30.5697 168.925 29.7188 167.883 29.7188C166.841 29.7188 165.996 30.5697 165.996 31.6195C165.996 32.6693 166.841 33.5203 167.883 33.5203Z" fill="black"/>
<path d="M172.11 10.2346L171.454 9.84566L173.945 5.59386C174.468 4.70096 174.683 3.84255 174.567 3.11252C174.463 2.46105 174.099 1.93221 173.514 1.5854C172.755 1.13512 172.093 1.18302 171.671 1.30373C171.163 1.44936 170.714 1.78276 170.472 2.19663C170.231 2.61051 170.132 3.10294 170.204 3.55131C170.259 3.89429 170.442 4.37139 170.999 4.70288C171.359 4.91556 171.709 4.99221 172.013 4.92323C172.262 4.86766 172.47 4.71629 172.597 4.49594C172.812 4.12805 172.858 3.73334 172.715 3.46317C172.612 3.26964 172.42 3.15851 172.158 3.14318L172.203 2.37866C172.728 2.41124 173.16 2.67566 173.386 3.10486C173.656 3.61646 173.605 4.28134 173.251 4.88682C173.015 5.2892 172.635 5.56895 172.179 5.67242C171.832 5.75098 171.279 5.76056 170.611 5.36393C169.978 4.98837 169.567 4.38864 169.451 3.67585C169.35 3.05504 169.483 2.37483 169.814 1.80958C170.159 1.22134 170.76 0.769145 171.461 0.569872C172.026 0.408921 172.909 0.339944 173.9 0.928182C174.674 1.38996 175.178 2.12191 175.317 2.99373C175.461 3.90195 175.214 4.93856 174.6 5.98666L172.11 10.2346Z" fill="black"/>
<path d="M172.111 3.97645C172.445 3.97645 172.716 3.70365 172.716 3.36713C172.716 3.03061 172.445 2.75781 172.111 2.75781C171.777 2.75781 171.506 3.03061 171.506 3.36713C171.506 3.70365 171.777 3.97645 172.111 3.97645Z" fill="black"/>
<path d="M172.108 4.35943C171.933 4.35943 171.761 4.31345 171.607 4.22147C171.14 3.94364 170.984 3.33433 171.259 2.86297C171.535 2.39161 172.14 2.23449 172.608 2.51232C173.076 2.79016 173.232 3.39947 172.956 3.87083C172.823 4.09884 172.608 4.26171 172.353 4.32686C172.273 4.34794 172.189 4.35943 172.108 4.35943ZM171.916 3.25193C171.853 3.35923 171.889 3.49719 171.995 3.56042C172.047 3.59108 172.108 3.59875 172.165 3.58533C172.222 3.57 172.271 3.5336 172.302 3.48186C172.364 3.37456 172.328 3.2366 172.222 3.17146C172.115 3.10823 171.978 3.14463 171.916 3.25193Z" fill="black"/>
<path d="M173.426 11.0134L172.77 10.6245L175.261 6.37266C176.488 4.2822 178.346 3.56559 179.995 4.54662C181.629 5.51808 181.893 7.39585 181.201 8.57616C180.87 9.14141 180.341 9.58594 179.754 9.79862C179.078 10.042 178.359 9.96724 177.726 9.59169C176.577 8.90764 176.423 7.78673 176.865 7.03371C177.218 6.43014 177.773 6.06417 178.348 6.05459C178.355 6.05459 178.361 6.05459 178.369 6.05459C178.842 6.05459 179.272 6.30559 179.55 6.74821L178.907 7.15825C178.766 6.93407 178.576 6.81911 178.359 6.82102C178.057 6.82485 177.736 7.0567 177.519 7.42459C177.27 7.85188 177.355 8.48227 178.11 8.93255C178.667 9.26403 179.172 9.19506 179.495 9.07817C179.919 8.9268 180.301 8.60107 180.543 8.18911C180.967 7.46483 180.963 6.01818 179.605 5.20959C178.335 4.45274 176.918 5.04864 175.912 6.76546L173.426 11.0134Z" fill="black"/>
<path d="M178.74 7.91785C179.074 7.91785 179.345 7.64506 179.345 7.30854C179.345 6.97201 179.074 6.69922 178.74 6.69922C178.406 6.69922 178.135 6.97201 178.135 7.30854C178.135 7.64506 178.406 7.91785 178.74 7.91785Z" fill="black"/>
<path d="M178.739 8.30308C178.57 8.30308 178.397 8.25901 178.241 8.16512C178.014 8.03099 177.853 7.81447 177.788 7.55772C177.721 7.30096 177.759 7.03462 177.894 6.80469C178.028 6.57668 178.242 6.41381 178.497 6.34867C178.752 6.2816 179.017 6.31992 179.243 6.45597C179.711 6.7338 179.867 7.34311 179.591 7.81447C179.405 8.12871 179.075 8.30308 178.739 8.30308ZM178.741 7.08444C178.665 7.08444 178.589 7.12468 178.547 7.19558C178.516 7.24731 178.507 7.30863 178.522 7.36611C178.537 7.42359 178.573 7.47341 178.625 7.50407C178.731 7.5673 178.87 7.53281 178.931 7.42359C178.994 7.31629 178.958 7.17833 178.851 7.1151C178.819 7.09402 178.779 7.08444 178.741 7.08444Z" fill="black"/>
</g>
<defs>
<clipPath id="logo-white">
<rect width="262.475" height="40.6211" fill="white" transform="translate(0.111328 0.273438)"/>
</clipPath>
</defs>
</svg>
