<svg width="252" height="40" viewBox="0 0 252 40" fill="none" xmlns="http://www.w3.org/2000/svg">
<g clip-path="url(#clip0)">
<path d="M30.4992 16.873H31.4652V12.1875H30.4992C25.4976 12.1875 22.0755 15.4142 21.2428 20.0997H18.3905V12.2317H13.5202V20.0997H10.6679C9.8352 15.4142 6.41129 12.1875 1.41146 12.1875H0.445455V16.873H1.41146C4.08851 16.873 5.7119 18.6409 6.10633 21.5144L0.138672 32.3424H5.71007L10.0982 24.2094L13.5202 24.1653V32.3424H18.3905V24.1653L21.8125 24.2094L26.2006 32.3424H31.772L25.8482 21.5144C26.2426 18.6409 27.8222 16.873 30.4992 16.873Z" fill="black"/>
<path d="M124.037 9.93196C127.897 9.93196 130.793 6.97017 130.793 3.25781H126.889C126.889 5.06984 125.704 6.17545 124.037 6.17545C122.37 6.17545 121.184 5.06984 121.184 3.25781H117.28C117.28 7.10262 120.264 9.93196 124.037 9.93196Z" fill="black"/>
<path d="M42.1259 24.12V12.2305H37.2119V32.3412H40.8093L52.173 20.4076V32.3412H57.0432V12.2305H53.4458L42.1259 24.12Z" fill="black"/>
<path d="M97.8459 11.6133C91.5715 11.6133 87.0537 16.1663 87.0537 22.2647C87.0537 28.5415 91.7924 32.9603 97.8459 32.9603C104.077 32.9603 108.682 28.363 108.682 22.2647C108.682 16.0339 103.987 11.6133 97.8459 11.6133ZM97.8459 28.1441C94.5115 28.1441 92.0992 25.8906 92.0992 22.2665C92.0992 18.6866 94.5115 16.3889 97.8459 16.3889C101.224 16.3889 103.593 18.6866 103.593 22.2665C103.593 25.8888 101.224 28.1441 97.8459 28.1441Z" fill="black"/>
<path d="M80.4279 21.6036C81.1729 21.1621 81.9636 19.8357 81.9636 18.0678C81.9636 14.6645 79.3742 12.2344 75.5139 12.2344H64.0625V32.3451H76.2151C80.2946 32.3451 82.8402 29.6482 82.8402 26.1125C82.8402 23.9013 81.5674 22.2658 80.4279 21.6036ZM68.9765 16.609H74.9442C76.0416 16.609 76.7429 17.4037 76.7429 18.421C76.7429 19.4383 76.0416 20.2331 74.9442 20.2331H68.9765V16.609ZM75.4262 27.9687H68.9765V23.7706H75.4262C76.5676 23.7706 77.4002 24.7438 77.4002 25.8917C77.4002 27.0397 76.5657 27.9687 75.4262 27.9687Z" fill="black"/>
<path d="M219.1 14.2679C217.504 12.5993 215.309 11.6133 212.676 11.6133C206.841 11.6133 202.453 16.1222 202.453 22.2647C202.453 28.5415 207.06 32.9603 212.676 32.9603C215.285 32.9603 217.489 31.9613 219.096 30.2689L219.299 32.3403H223.687V12.2332H219.299L219.1 14.2679ZM213.112 28.2784C209.734 28.2784 207.321 25.76 207.321 22.2665C207.321 18.8191 209.734 16.2546 213.112 16.2546C216.446 16.2546 218.859 18.8191 218.859 22.2665C218.861 25.7581 216.446 28.2784 213.112 28.2784Z" fill="black"/>
<path d="M249.133 27.8776V12.1875L233.427 12.2317V14.6176C233.427 21.3801 232.286 25.4898 230.312 27.8776H227.943V37.2928H232.154L232.593 32.3424H247.335L247.773 37.2928H251.984V27.8776H249.133ZM244.263 27.8776H235.927C237.287 26.1098 238.12 21.6009 238.252 16.6504H244.263V27.8776Z" fill="black"/>
<path d="M188.675 16.4313C191.483 16.4313 193.282 17.8901 194.29 20.0112L198.547 17.7135C196.617 13.7804 193.107 11.6133 188.675 11.6133C182.444 11.6133 177.839 16.1222 177.839 22.2647C177.839 28.2766 182.358 32.9603 188.675 32.9603C192.975 32.9603 196.748 30.6626 198.503 26.8601L194.29 24.5624C193.28 26.6835 191.438 28.0981 188.675 28.0981C184.99 28.0981 182.797 25.7121 182.797 22.2647C182.797 18.8614 184.99 16.4313 188.675 16.4313Z" fill="black"/>
<path d="M118.51 24.12V12.2305H113.64V32.3412H117.237L128.557 20.4076V32.3412H133.427V12.2305H129.83L118.51 24.12Z" fill="black"/>
<path d="M160.78 31.2265C160.238 32.1482 159.555 33.0036 158.711 33.6843C157.875 34.3705 156.874 34.8653 155.82 35.1045C154.767 35.351 153.665 35.3307 152.628 35.1173C151.589 34.8984 150.605 34.5011 149.708 33.9676C148.812 33.4322 147.997 32.7497 147.316 31.9348C146.637 31.1198 146.098 30.1632 145.795 29.1202C145.496 28.0771 145.432 26.966 145.572 25.8861C145.707 24.8026 146.091 23.754 146.637 22.8158C147.192 21.8794 147.933 21.0571 148.799 20.404C149.663 19.7454 150.658 19.2745 151.701 18.9912C152.745 18.7134 153.846 18.6306 154.925 18.7686C156.007 18.9011 157.058 19.2727 157.997 19.8264C158.93 20.393 159.757 21.1417 160.391 22.0321C161.03 22.917 161.487 23.9288 161.737 24.9847C161.985 26.0406 162.027 27.1444 161.857 28.2096C161.687 29.271 161.319 30.3012 160.78 31.2265ZM159.832 30.6636C160.789 29.0613 161.001 27.069 160.506 25.3011C160.259 24.4163 159.838 23.5847 159.281 22.8691C158.722 22.1554 158.033 21.5464 157.254 21.0902C156.478 20.6285 155.618 20.3194 154.727 20.1722C153.835 20.0287 152.911 20.06 152.029 20.2808C151.145 20.4979 150.313 20.9118 149.586 21.4581C148.859 22.0082 148.253 22.7109 147.793 23.5001C147.331 24.2912 147.039 25.1687 146.896 26.0701C146.757 26.9733 146.807 27.9023 147.002 28.8019C147.196 29.7015 147.535 30.5845 148.052 31.3719C148.565 32.1611 149.266 32.8344 150.081 33.3237C150.901 33.8057 151.828 34.0871 152.76 34.1479C153.693 34.2159 154.617 34.0816 155.49 33.8278C156.363 33.5647 157.19 33.1765 157.944 32.6559C158.695 32.1371 159.359 31.4657 159.832 30.6636Z" fill="black"/>
<path d="M155.543 32.3048C160.089 32.3048 163.775 28.5919 163.775 24.0118C163.775 19.4317 160.089 15.7188 155.543 15.7188C150.996 15.7188 147.311 19.4317 147.311 24.0118C147.311 28.5919 150.996 32.3048 155.543 32.3048Z" fill="black"/>
<path d="M163.79 16.1742C165.81 16.1742 167.448 14.5245 167.448 12.4895C167.448 10.4544 165.81 8.80469 163.79 8.80469C161.77 8.80469 160.133 10.4544 160.133 12.4895C160.133 14.5245 161.77 16.1742 163.79 16.1742Z" fill="black"/>
<path d="M143.518 26.7654C143.518 26.7654 143.032 20.6339 145.32 16.732C147.608 12.8284 154.043 7.28375 163.305 12.7934C172.567 18.3031 169.408 26.953 167.315 30.5237C165.223 34.0944 162.591 35.866 158.249 36.7508C158.249 36.7508 152.623 30.2588 156.14 23.1707C156.141 23.1689 152.013 28.8018 143.518 26.7654Z" fill="#FF0000"/>
<path d="M162.135 39.3656L161.961 39.1982C159.755 37.0734 157.63 34.5513 157.011 30.5262C156.613 27.9416 156.879 25.0405 157.825 21.7733C155.095 23.7399 151.867 25.2465 148.145 25.6788C143.344 26.2344 140.039 24.7425 139.902 24.6781L139.561 24.5199L139.584 24.1409C139.593 24.0048 139.825 20.7358 142.554 16.0815C144.323 13.0609 147.36 10.8331 150.884 9.96845C153.711 9.27491 158.209 9.12038 163.586 12.3195C166.833 14.2511 169.271 17.6765 170.272 21.72C171.329 25.9897 170.688 30.4287 168.464 34.2239C165.615 39.0842 162.509 39.3417 162.377 39.3509L162.135 39.3656ZM159.366 20.572C155.718 31.2878 159.883 35.6588 162.52 38.2085C163.205 38.0466 165.411 37.2611 167.52 33.6628C169.596 30.1197 170.195 25.9732 169.209 21.9885C168.48 19.047 166.941 16.4605 164.87 14.6227C163.42 16.5911 161.585 18.7122 159.366 20.572ZM140.724 23.8171C141.682 24.1685 144.451 25.0055 148.081 24.5714C151.702 24.1391 155.192 22.5625 158.415 19.9318C159.217 17.6489 160.323 15.1967 161.742 12.5605C157.257 10.2867 153.545 10.4504 151.142 11.0391C147.902 11.8338 145.115 13.874 143.496 16.6408C141.43 20.1636 140.868 22.8495 140.724 23.8171ZM162.706 13.0829C161.691 14.9722 160.865 16.7199 160.204 18.3369C161.53 17.051 162.805 15.5793 164.014 13.9255C163.694 13.69 163.365 13.4693 163.026 13.2687C162.92 13.2062 162.814 13.1436 162.706 13.0829Z" fill="black"/>
<path d="M164.13 22.7173C165.282 22.7173 166.216 21.7767 166.216 20.6165C166.216 19.4562 165.282 18.5156 164.13 18.5156C162.979 18.5156 162.045 19.4562 162.045 20.6165C162.045 21.7767 162.979 22.7173 164.13 22.7173Z" fill="black"/>
<path d="M149.591 17.3072C150.743 17.3072 151.676 16.3666 151.676 15.2063C151.676 14.046 150.743 13.1055 149.591 13.1055C148.439 13.1055 147.506 14.046 147.506 15.2063C147.506 16.3666 148.439 17.3072 149.591 17.3072Z" fill="black"/>
<path d="M148.163 23.3814C149.315 23.3814 150.249 22.4408 150.249 21.2805C150.249 20.1203 149.315 19.1797 148.163 19.1797C147.012 19.1797 146.078 20.1203 146.078 21.2805C146.078 22.4408 147.012 23.3814 148.163 23.3814Z" fill="black"/>
<path d="M156.008 15.8959C157.008 15.8959 157.819 15.0789 157.819 14.071C157.819 13.0631 157.008 12.2461 156.008 12.2461C155.007 12.2461 154.196 13.0631 154.196 14.071C154.196 15.0789 155.007 15.8959 156.008 15.8959Z" fill="black"/>
<path d="M165.355 28.7748C166.356 28.7748 167.167 27.9578 167.167 26.9499C167.167 25.942 166.356 25.125 165.355 25.125C164.355 25.125 163.544 25.942 163.544 26.9499C163.544 27.9578 164.355 28.7748 165.355 28.7748Z" fill="black"/>
<path d="M154.596 20.2569C155.451 20.2569 156.143 19.5594 156.143 18.6988C156.143 17.8382 155.451 17.1406 154.596 17.1406C153.742 17.1406 153.05 17.8382 153.05 18.6988C153.05 19.5594 153.742 20.2569 154.596 20.2569Z" fill="black"/>
<path d="M161.075 32.4193C162.076 32.4193 162.887 31.6024 162.887 30.5944C162.887 29.5865 162.076 28.7695 161.075 28.7695C160.075 28.7695 159.264 29.5865 159.264 30.5944C159.264 31.6024 160.075 32.4193 161.075 32.4193Z" fill="black"/>
<path d="M165.134 10.0632L164.504 9.68973L166.896 5.60761C167.399 4.75035 167.605 3.9262 167.494 3.2253C167.393 2.59983 167.044 2.09209 166.482 1.75912C165.753 1.32681 165.118 1.3728 164.713 1.48869C164.225 1.62851 163.794 1.9486 163.562 2.34596C163.33 2.74332 163.235 3.2161 163.305 3.64657C163.358 3.97587 163.533 4.43393 164.068 4.75219C164.413 4.95638 164.749 5.02997 165.041 4.96374C165.281 4.91039 165.48 4.76506 165.602 4.55351C165.808 4.2003 165.852 3.82134 165.715 3.56195C165.617 3.37615 165.432 3.26945 165.18 3.25473L165.224 2.52072C165.728 2.552 166.142 2.80587 166.36 3.21794C166.619 3.70912 166.57 4.34747 166.23 4.92879C166.004 5.31511 165.638 5.5837 165.2 5.68303C164.868 5.75846 164.336 5.76766 163.696 5.38686C163.087 5.02629 162.693 4.45049 162.581 3.76615C162.485 3.17011 162.613 2.51704 162.93 1.97435C163.261 1.40959 163.838 0.975439 164.512 0.784119C165.054 0.629591 165.901 0.563366 166.853 1.12813C167.596 1.57148 168.08 2.27421 168.213 3.11124C168.352 3.98322 168.115 4.97846 167.525 5.98473L165.134 10.0632Z" fill="black"/>
<path d="M165.134 4.05281C165.455 4.05281 165.715 3.79091 165.715 3.46781C165.715 3.14472 165.455 2.88281 165.134 2.88281C164.814 2.88281 164.554 3.14472 164.554 3.46781C164.554 3.79091 164.814 4.05281 165.134 4.05281Z" fill="black"/>
<path d="M165.133 4.42086C164.965 4.42086 164.8 4.37671 164.653 4.28841C164.203 4.02167 164.054 3.43667 164.318 2.98412C164.583 2.53157 165.164 2.38072 165.613 2.64747C166.062 2.91421 166.212 3.49921 165.947 3.95176C165.819 4.17068 165.613 4.32704 165.368 4.38959C165.292 4.40983 165.211 4.42086 165.133 4.42086ZM164.948 3.35756C164.888 3.46058 164.923 3.59303 165.025 3.65374C165.074 3.68317 165.133 3.69053 165.188 3.67766C165.242 3.66294 165.29 3.62799 165.319 3.57832C165.379 3.4753 165.345 3.34284 165.242 3.2803C165.14 3.21959 165.009 3.25454 164.948 3.35756Z" fill="black"/>
<path d="M166.396 10.8123L165.767 10.4388L168.159 6.35671C169.337 4.34968 171.121 3.66166 172.704 4.60355C174.272 5.53624 174.526 7.33907 173.861 8.47227C173.544 9.01496 173.036 9.44176 172.472 9.64595C171.824 9.87959 171.133 9.80784 170.525 9.44727C169.422 8.79053 169.274 7.71435 169.698 6.99138C170.038 6.4119 170.571 6.06053 171.122 6.05133C171.13 6.05133 171.135 6.05133 171.142 6.05133C171.597 6.05133 172.01 6.29232 172.277 6.71727L171.659 7.11095C171.524 6.89572 171.342 6.78534 171.133 6.78718C170.843 6.79086 170.534 7.01345 170.326 7.36666C170.087 7.7769 170.169 8.38213 170.894 8.81444C171.429 9.1327 171.913 9.06647 172.224 8.95426C172.631 8.80893 172.998 8.49619 173.23 8.10067C173.637 7.40529 173.633 6.01638 172.329 5.24006C171.11 4.51341 169.749 5.08553 168.783 6.73383L166.396 10.8123Z" fill="black"/>
<path d="M171.501 7.84188C171.822 7.84188 172.081 7.57997 172.081 7.25688C172.081 6.93378 171.822 6.67188 171.501 6.67188C171.18 6.67188 170.92 6.93378 170.92 7.25688C170.92 7.57997 171.18 7.84188 171.501 7.84188Z" fill="black"/>
<path d="M171.498 8.20817C171.336 8.20817 171.17 8.16586 171.02 8.07571C170.803 7.94694 170.648 7.73906 170.585 7.49255C170.522 7.24604 170.558 6.99034 170.688 6.76958C170.816 6.55067 171.022 6.3943 171.267 6.33175C171.511 6.26737 171.765 6.30416 171.982 6.43477C172.432 6.70152 172.581 7.28652 172.317 7.73906C172.138 8.04076 171.822 8.20817 171.498 8.20817ZM171.5 7.03817C171.427 7.03817 171.354 7.0768 171.314 7.14487C171.285 7.19454 171.276 7.2534 171.29 7.30859C171.305 7.36378 171.34 7.41161 171.389 7.44104C171.491 7.50175 171.624 7.46864 171.683 7.36378C171.743 7.26076 171.708 7.12831 171.606 7.0676C171.575 7.04737 171.537 7.03817 171.5 7.03817Z" fill="black"/>
</g>
<defs>
<clipPath id="clip0">
<rect width="252" height="39" fill="white" transform="translate(0 0.5)"/>
</clipPath>
</defs>
</svg>
