<svg width="263" height="42" viewBox="0 0 263 42" fill="none" xmlns="http://www.w3.org/2000/svg">
<g clip-path="url(#clip0)">
<path d="M31.8784 17.7982H32.8846V12.918H31.8784C26.6689 12.918 23.1045 16.2788 22.2372 21.1591H19.2663V12.964H14.1937V21.1591H11.2228C10.3554 16.2788 6.78921 12.918 1.58155 12.918H0.575395V17.7982H1.58155C4.36987 17.7982 6.06074 19.6396 6.47158 22.6325L0.255859 33.9106H6.05884L10.6293 25.4396L14.1937 25.3936V33.9106H19.2663V25.3936L22.8306 25.4396L27.4011 33.9106H33.2041L27.034 22.6325C27.4449 19.6396 29.0901 17.7982 31.8784 17.7982Z" fill="white"/>
<path d="M129.304 10.5727C133.325 10.5727 136.341 7.48776 136.341 3.62109H132.275C132.275 5.50844 131.04 6.66001 129.304 6.66001C127.567 6.66001 126.333 5.50844 126.333 3.62109H122.267C122.267 7.62572 125.374 10.5727 129.304 10.5727Z" fill="white"/>
<path d="M43.9884 25.3485V12.9648H38.8701V33.9115H42.617L54.4531 21.4819V33.9115H59.5257V12.9648H55.7788L43.9884 25.3485Z" fill="white"/>
<path d="M102.024 12.3203C95.4887 12.3203 90.7832 17.0626 90.7832 23.4145C90.7832 29.9522 95.7189 34.5546 102.024 34.5546C108.514 34.5546 113.31 29.7663 113.31 23.4145C113.31 16.9247 108.42 12.3203 102.024 12.3203ZM102.024 29.5383C98.5509 29.5383 96.0384 27.1911 96.0384 23.4164C96.0384 19.6877 98.5509 17.2945 102.024 17.2945C105.543 17.2945 108.01 19.6877 108.01 23.4164C108.01 27.1892 105.543 29.5383 102.024 29.5383Z" fill="white"/>
<path d="M83.8826 22.7274C84.6586 22.2675 85.4821 20.886 85.4821 19.0447C85.4821 15.4999 82.7851 12.9688 78.7643 12.9688H66.8369V33.9154H79.4947C83.7437 33.9154 86.3951 31.1064 86.3951 27.4237C86.3951 25.1206 85.0694 23.4172 83.8826 22.7274ZM71.9552 17.5252H78.1709C79.314 17.5252 80.0443 18.353 80.0443 19.4126C80.0443 20.4722 79.314 21.2999 78.1709 21.2999H71.9552V17.5252ZM78.673 29.3571H71.9552V24.9845H78.673C79.8618 24.9845 80.7291 25.9982 80.7291 27.1938C80.7291 28.3894 79.8599 29.3571 78.673 29.3571Z" fill="white"/>
<path d="M228.318 15.0852C226.656 13.3473 224.37 12.3203 221.627 12.3203C215.55 12.3203 210.979 17.0166 210.979 23.4145C210.979 29.9522 215.778 34.5546 221.627 34.5546C224.345 34.5546 226.64 33.5142 228.314 31.7514L228.525 33.9089H233.096V12.966H228.525L228.318 15.0852ZM222.081 29.6782C218.563 29.6782 216.05 27.055 216.05 23.4164C216.05 19.8256 218.563 17.1546 222.081 17.1546C225.554 17.1546 228.067 19.8256 228.067 23.4164C228.069 27.0531 225.554 29.6782 222.081 29.6782Z" fill="white"/>
<path d="M259.6 29.2603V12.918L243.241 12.964V15.4491C243.241 22.4927 242.052 26.7732 239.996 29.2603H237.529V39.0668H241.915L242.372 33.9106H257.727L258.183 39.0668H262.569V29.2603H259.6ZM254.527 29.2603H245.845C247.262 27.4189 248.129 22.7226 248.266 17.5664H254.527V29.2603Z" fill="white"/>
<path d="M196.629 17.3386C199.554 17.3386 201.428 18.858 202.478 21.0673L206.911 18.6741C204.901 14.5775 201.245 12.3203 196.629 12.3203C190.14 12.3203 185.343 17.0166 185.343 23.4145C185.343 29.6762 190.05 34.5546 196.629 34.5546C201.108 34.5546 205.038 32.1614 206.866 28.2009L202.478 25.8077C201.426 28.0169 199.507 29.4904 196.629 29.4904C192.791 29.4904 190.507 27.0052 190.507 23.4145C190.507 19.8697 192.791 17.3386 196.629 17.3386Z" fill="white"/>
<path d="M123.546 25.3485V12.9648H118.474V33.9115H122.221L134.011 21.4819V33.9115H139.084V12.9648H135.337L123.546 25.3485Z" fill="white"/>
<path d="M167.574 32.7471C167.009 33.7071 166.298 34.598 165.419 35.307C164.548 36.0217 163.506 36.5371 162.408 36.7862C161.311 37.043 160.164 37.0219 159.084 36.7996C158.001 36.5716 156.976 36.1577 156.042 35.6021C155.109 35.0445 154.26 34.3336 153.551 33.4848C152.843 32.636 152.282 31.6396 151.966 30.5532C151.655 29.4667 151.588 28.3094 151.734 27.1847C151.875 26.0561 152.275 24.9639 152.843 23.9867C153.421 23.0114 154.194 22.1549 155.095 21.4747C155.995 20.7888 157.031 20.2983 158.117 20.0032C159.205 19.7138 160.352 19.6276 161.476 19.7713C162.602 19.9093 163.698 20.2963 164.676 20.8731C165.647 21.4632 166.509 22.2431 167.169 23.1705C167.835 24.0921 168.31 25.146 168.571 26.2458C168.829 27.3456 168.873 28.4953 168.696 29.6047C168.519 30.7103 168.135 31.7833 167.574 32.7471ZM166.587 32.1608C167.584 30.4919 167.804 28.4167 167.289 26.5754C167.032 25.6537 166.593 24.7877 166.013 24.0423C165.431 23.2988 164.714 22.6646 163.901 22.1894C163.093 21.7085 162.197 21.3866 161.269 21.2333C160.341 21.0839 159.379 21.1164 158.46 21.3464C157.539 21.5725 156.672 22.0036 155.915 22.5727C155.158 23.1456 154.527 23.8775 154.047 24.6995C153.566 25.5234 153.262 26.4374 153.113 27.3763C152.969 28.3171 153.02 29.2847 153.224 30.2217C153.425 31.1587 153.779 32.0784 154.317 32.8985C154.852 33.7205 155.582 34.4218 156.43 34.9314C157.284 35.4334 158.251 35.7266 159.221 35.7898C160.193 35.8607 161.155 35.7209 162.064 35.4564C162.973 35.1824 163.835 34.7781 164.62 34.2359C165.402 33.6956 166.094 32.9962 166.587 32.1608Z" fill="black"/>
<path d="M162.119 33.8731C166.855 33.8731 170.693 30.0059 170.693 25.2354C170.693 20.4649 166.855 16.5977 162.119 16.5977C157.384 16.5977 153.545 20.4649 153.545 25.2354C153.545 30.0059 157.384 33.8731 162.119 33.8731Z" fill="black"/>
<path d="M170.71 17.0704C172.814 17.0704 174.52 15.3521 174.52 13.2325C174.52 11.1128 172.814 9.39453 170.71 9.39453C168.606 9.39453 166.9 11.1128 166.9 13.2325C166.9 15.3521 168.606 17.0704 170.71 17.0704Z" fill="black"/>
<path d="M149.595 28.1026C149.595 28.1026 149.089 21.7162 151.472 17.6522C153.855 13.5863 160.558 7.81119 170.205 13.5499C179.852 19.2886 176.561 28.298 174.381 32.0171C172.202 35.7363 169.461 37.5815 164.938 38.5031C164.938 38.5031 159.078 31.7412 162.741 24.3585C162.743 24.3566 158.443 30.2237 149.595 28.1026Z" fill="#FF0000"/>
<path d="M168.985 41.2257L168.804 41.0513C166.507 38.8382 164.293 36.2113 163.648 32.0189C163.233 29.3268 163.511 26.3051 164.496 22.9021C161.653 24.9504 158.29 26.5197 154.414 26.97C149.414 27.5486 145.971 25.9947 145.828 25.9276L145.473 25.7628L145.497 25.3681C145.507 25.2263 145.748 21.8215 148.59 16.9737C150.433 13.8275 153.596 11.5071 157.267 10.6066C160.211 9.88421 164.896 9.72326 170.497 13.0553C173.879 15.0672 176.418 18.635 177.46 22.8466C178.562 27.2938 177.894 31.9173 175.577 35.8702C172.61 40.9325 169.375 41.2008 169.238 41.2104L168.985 41.2257ZM166.102 21.6509C162.301 32.8121 166.64 37.3648 169.386 40.0205C170.1 39.8518 172.397 39.0337 174.594 35.2858C176.757 31.5954 177.38 27.2766 176.353 23.1263C175.594 20.0625 173.991 17.3685 171.834 15.4543C170.324 17.5045 168.413 19.7138 166.102 21.6509ZM146.684 25.0309C147.683 25.3969 150.566 26.2687 154.347 25.8165C158.119 25.3662 161.754 23.7241 165.111 20.9841C165.946 18.6063 167.098 16.0521 168.576 13.3063C163.905 10.9381 160.038 11.1086 157.535 11.7217C154.161 12.5495 151.259 14.6744 149.571 17.5562C147.42 21.2255 146.834 24.023 146.684 25.0309ZM169.58 13.8505C168.523 15.8183 167.663 17.6386 166.975 19.3229C168.355 17.9835 169.683 16.4507 170.942 14.7281C170.609 14.4828 170.267 14.2529 169.913 14.044C169.803 13.9789 169.693 13.9137 169.58 13.8505Z" fill="black"/>
<path d="M171.065 23.8881C172.264 23.8881 173.237 22.9084 173.237 21.6999C173.237 20.4914 172.264 19.5117 171.065 19.5117C169.865 19.5117 168.893 20.4914 168.893 21.6999C168.893 22.9084 169.865 23.8881 171.065 23.8881Z" fill="black"/>
<path d="M155.92 18.2553C157.12 18.2553 158.092 17.2756 158.092 16.0671C158.092 14.8586 157.12 13.8789 155.92 13.8789C154.72 13.8789 153.748 14.8586 153.748 16.0671C153.748 17.2756 154.72 18.2553 155.92 18.2553Z" fill="black"/>
<path d="M154.433 24.5795C155.632 24.5795 156.605 23.5998 156.605 22.3913C156.605 21.1828 155.632 20.2031 154.433 20.2031C153.233 20.2031 152.261 21.1828 152.261 22.3913C152.261 23.5998 153.233 24.5795 154.433 24.5795Z" fill="black"/>
<path d="M162.605 16.782C163.647 16.782 164.491 15.931 164.491 14.8812C164.491 13.8315 163.647 12.9805 162.605 12.9805C161.562 12.9805 160.718 13.8315 160.718 14.8812C160.718 15.931 161.562 16.782 162.605 16.782Z" fill="black"/>
<path d="M172.34 30.1961C173.382 30.1961 174.227 29.3451 174.227 28.2953C174.227 27.2455 173.382 26.3945 172.34 26.3945C171.298 26.3945 170.453 27.2455 170.453 28.2953C170.453 29.3451 171.298 30.1961 172.34 30.1961Z" fill="black"/>
<path d="M161.133 21.324C162.023 21.324 162.744 20.5974 162.744 19.7011C162.744 18.8047 162.023 18.0781 161.133 18.0781C160.244 18.0781 159.522 18.8047 159.522 19.7011C159.522 20.5974 160.244 21.324 161.133 21.324Z" fill="black"/>
<path d="M167.882 33.9929C168.924 33.9929 169.769 33.142 169.769 32.0922C169.769 31.0423 168.924 30.1914 167.882 30.1914C166.84 30.1914 165.995 31.0423 165.995 32.0922C165.995 33.142 166.84 33.9929 167.882 33.9929Z" fill="black"/>
<path d="M172.11 10.7073L171.454 10.3183L173.945 6.06652C174.468 5.17362 174.683 4.31521 174.567 3.58518C174.463 2.93371 174.099 2.40487 173.514 2.05806C172.755 1.60778 172.093 1.65568 171.671 1.77639C171.163 1.92201 170.714 2.25541 170.472 2.66929C170.231 3.08316 170.132 3.5756 170.204 4.02396C170.259 4.36694 170.442 4.84405 170.999 5.17553C171.359 5.38822 171.709 5.46486 172.013 5.39588C172.262 5.34032 172.47 5.18895 172.597 4.9686C172.812 4.60071 172.858 4.20599 172.715 3.93582C172.612 3.7423 172.42 3.63117 172.158 3.61584L172.203 2.85132C172.728 2.88389 173.16 3.14831 173.386 3.57752C173.656 4.08911 173.605 4.75399 173.251 5.35948C173.015 5.76186 172.635 6.04161 172.179 6.14507C171.832 6.22363 171.279 6.23321 170.611 5.83658C169.978 5.46103 169.567 4.8613 169.451 4.14851C169.35 3.5277 169.483 2.84749 169.814 2.28224C170.159 1.694 170.76 1.2418 171.461 1.04253C172.026 0.881577 172.909 0.8126 173.9 1.40084C174.674 1.86262 175.178 2.59456 175.317 3.46638C175.461 4.37461 175.214 5.41121 174.6 6.45931L172.11 10.7073Z" fill="black"/>
<path d="M172.111 4.4491C172.445 4.4491 172.716 4.17631 172.716 3.83979C172.716 3.50326 172.445 3.23047 172.111 3.23047C171.777 3.23047 171.506 3.50326 171.506 3.83979C171.506 4.17631 171.777 4.4491 172.111 4.4491Z" fill="black"/>
<path d="M172.109 4.83209C171.934 4.83209 171.762 4.7861 171.608 4.69413C171.141 4.4163 170.985 3.80698 171.26 3.33562C171.536 2.86427 172.141 2.70715 172.609 2.98498C173.077 3.26281 173.233 3.87213 172.957 4.34349C172.824 4.5715 172.609 4.73437 172.354 4.79952C172.274 4.82059 172.19 4.83209 172.109 4.83209ZM171.917 3.72459C171.854 3.83189 171.89 3.96985 171.996 4.03308C172.048 4.06374 172.109 4.0714 172.166 4.05799C172.223 4.04266 172.272 4.00625 172.303 3.95452C172.365 3.84722 172.329 3.70926 172.223 3.64411C172.116 3.58088 171.979 3.61729 171.917 3.72459Z" fill="black"/>
<path d="M173.425 11.4861L172.769 11.0971L175.26 6.84531C176.487 4.75486 178.345 4.03824 179.994 5.01928C181.628 5.99074 181.892 7.8685 181.2 9.04882C180.869 9.61406 180.34 10.0586 179.753 10.2713C179.077 10.5146 178.358 10.4399 177.725 10.0643C176.576 9.3803 176.422 8.25939 176.864 7.50636C177.217 6.9028 177.772 6.53682 178.347 6.52724C178.354 6.52724 178.36 6.52724 178.368 6.52724C178.841 6.52724 179.271 6.77825 179.549 7.22087L178.906 7.63091C178.766 7.40673 178.575 7.29176 178.358 7.29368C178.056 7.29751 177.735 7.52936 177.518 7.89725C177.269 8.32453 177.354 8.95493 178.109 9.40521C178.666 9.73669 179.171 9.66771 179.494 9.55083C179.918 9.39946 180.3 9.07372 180.542 8.66177C180.966 7.93748 180.962 6.49084 179.604 5.68225C178.334 4.92539 176.917 5.5213 175.911 7.23811L173.425 11.4861Z" fill="black"/>
<path d="M178.741 8.39051C179.075 8.39051 179.345 8.11771 179.345 7.78119C179.345 7.44467 179.075 7.17188 178.741 7.17188C178.407 7.17188 178.136 7.44467 178.136 7.78119C178.136 8.11771 178.407 8.39051 178.741 8.39051Z" fill="black"/>
<path d="M178.739 8.77573C178.57 8.77573 178.397 8.73166 178.241 8.63777C178.014 8.50365 177.853 8.28713 177.788 8.03037C177.721 7.77362 177.759 7.50728 177.894 7.27735C178.028 7.04934 178.242 6.88647 178.497 6.82132C178.752 6.75426 179.017 6.79258 179.243 6.92862C179.711 7.20645 179.867 7.81577 179.591 8.28713C179.405 8.60137 179.075 8.77573 178.739 8.77573ZM178.741 7.5571C178.665 7.5571 178.589 7.59734 178.547 7.66823C178.516 7.71997 178.507 7.78128 178.522 7.83876C178.537 7.89625 178.573 7.94607 178.625 7.97672C178.731 8.03995 178.87 8.00546 178.931 7.89625C178.994 7.78895 178.958 7.65099 178.851 7.58776C178.819 7.56668 178.779 7.5571 178.741 7.5571Z" fill="black"/>
</g>
<defs>
<clipPath id="clip0">
<rect width="262.475" height="40.6211" fill="white" transform="translate(0.111328 0.746094)"/>
</clipPath>
</defs>
</svg>
