<svg width="46" height="33" viewBox="0 0 46 33" fill="none" xmlns="http://www.w3.org/2000/svg">
<path d="M42.6215 17.3399L41.0085 16.8022C40.7384 15.938 38.5939 9.07558 38.3238 8.21149C37.7705 6.44058 36.152 5.25072 34.2966 5.25072H28.6291V1.73458C28.6291 0.957866 27.9994 0.328125 27.2227 0.328125H1.90646C1.12974 0.328125 0.5 0.957866 0.5 1.73458V27.754C0.5 28.5307 1.12974 29.1605 1.90646 29.1605H4.92515C5.53186 31.1915 7.41625 32.6766 9.64196 32.6766C11.8677 32.6766 13.752 31.1915 14.3588 29.1605H28.835C29.4417 31.1915 31.3261 32.6766 33.5518 32.6766C35.7775 32.6766 37.6618 31.1915 38.2686 29.1605H44.1001C44.8769 29.1605 45.5066 28.5307 45.5066 27.754V21.3427C45.5066 19.5237 44.3471 17.9151 42.6215 17.3399ZM37.9677 16.5024H34.2549V12.283H36.6492L37.9677 16.5024ZM3.31291 3.14104H25.8162V26.3476H14.3588C13.7521 24.3166 11.8677 22.8314 9.64196 22.8314C7.41625 22.8314 5.53195 24.3166 4.92515 26.3476H3.31291V3.14104ZM9.64196 29.8637C8.47865 29.8637 7.53228 28.9173 7.53228 27.754C7.53228 26.5907 8.47865 25.6443 9.64196 25.6443C10.8053 25.6443 11.7516 26.5907 11.7516 27.754C11.7516 28.9173 10.8053 29.8637 9.64196 29.8637ZM33.5517 29.8637C32.3884 29.8637 31.442 28.9173 31.442 27.754C31.442 26.5907 32.3884 25.6443 33.5517 25.6443C34.715 25.6443 35.6614 26.5907 35.6614 27.754C35.6614 28.9173 34.715 29.8637 33.5517 29.8637ZM38.2685 26.3476C37.6618 24.3166 35.7774 22.8314 33.5517 22.8314C31.326 22.8314 29.4417 24.3166 28.8349 26.3476H28.6291V8.06363H34.2966C34.9151 8.06363 35.4546 8.46025 35.639 9.05061L35.77 9.47009H32.8485C32.0718 9.47009 31.442 10.0998 31.442 10.8765V17.9088C31.442 18.6855 32.0718 19.3153 32.8485 19.3153H39.6526L41.732 20.0085C42.3073 20.2002 42.6937 20.7364 42.6937 21.3428V22.1282H41.2872C40.5105 22.1282 39.8808 22.7579 39.8808 23.5346C39.8808 24.3114 40.5105 24.9411 41.2872 24.9411H42.6937V26.3476H38.2685Z" fill="#1E7243"/>
</svg>
