<svg width="35" height="34" viewBox="0 0 35 34" fill="none" xmlns="http://www.w3.org/2000/svg">
<g clip-path="url(#clip0)">
<path d="M31.3021 23.9151L27.8488 21.9214L30.8414 20.1567C31.3934 19.8312 31.577 19.1199 31.2516 18.568C30.9261 18.0161 30.2149 17.8325 29.6628 18.1578L25.5404 20.5886L19.3247 16.9999L25.5393 13.4118L29.663 15.8423C29.8478 15.9514 30.0508 16.003 30.251 16.003C30.6482 16.003 31.0351 15.7988 31.2516 15.4317C31.5769 14.8798 31.3931 14.1685 30.8411 13.843L27.848 12.0789L31.3021 10.0847C31.8571 9.76432 32.0472 9.05471 31.7268 8.49981C31.4064 7.94474 30.6968 7.75462 30.1419 8.07516L26.6885 10.0691L26.6571 6.59437C26.6514 5.95361 26.1257 5.43583 25.4865 5.44465C24.8458 5.45037 24.3309 5.97449 24.3368 6.61526L24.38 11.4018L18.1646 14.9904V7.81387L22.3317 5.45872C22.8896 5.14345 23.0862 4.4357 22.7709 3.8777C22.4557 3.31985 21.7478 3.12307 21.1899 3.4385L18.1646 5.1484V1.16025C18.1646 0.519481 17.6451 0 17.0044 0C16.3636 0 15.8441 0.519481 15.8441 1.16025V5.1484L12.8188 3.43866C12.2607 3.12323 11.5532 3.31985 11.2378 3.87785C10.9225 4.4357 11.1191 5.1436 11.677 5.45888L15.844 7.81402V14.9904L9.6286 11.4018L9.67176 6.61526C9.67764 5.97449 9.1628 5.45037 8.52203 5.44465C8.51847 5.44465 8.51507 5.44465 8.51136 5.44465C7.87554 5.44465 7.35714 5.95717 7.35142 6.59453L7.32002 10.0691L3.86666 8.07516C3.31175 7.75462 2.60215 7.9449 2.28176 8.49981C1.96138 9.05471 2.15151 9.76432 2.70641 10.0847L6.16039 12.0789L3.1668 13.8433C2.61483 14.1686 2.43105 14.8799 2.75638 15.432C2.97281 15.7991 3.35971 16.0033 3.75713 16.0033C3.95731 16.0033 4.16013 15.9515 4.34515 15.8426L8.46928 13.4121L14.684 17.0002L8.4682 20.5889L4.34515 18.1577C3.79349 17.8324 3.08187 18.0158 2.75638 18.5678C2.4309 19.1198 2.61452 19.8311 3.16649 20.1564L6.15962 21.9212L2.70626 23.915C2.15135 24.2354 1.96123 24.945 2.28161 25.4999C2.49649 25.8721 2.88648 26.0802 3.28747 26.0802C3.48424 26.0802 3.68381 26.03 3.86651 25.9245L7.31986 23.9306L7.35127 27.4055C7.35699 28.0427 7.87539 28.5554 8.5112 28.5554C8.51476 28.5554 8.51832 28.5554 8.52188 28.5552C9.16264 28.5495 9.67748 28.0254 9.6716 27.3846L9.62844 22.5979L15.844 19.0093V26.186L11.677 28.5411C11.1191 28.8564 10.9225 29.5641 11.2378 30.1221C11.4511 30.4996 11.8442 30.7117 12.2489 30.7117C12.4423 30.7117 12.6384 30.6633 12.8188 30.5613L15.8441 28.8516V32.8398C15.8441 33.4805 16.3636 34 17.0044 34C17.6451 34 18.1646 33.4805 18.1646 32.8398V28.8516L21.1899 30.5613C21.3703 30.6633 21.5663 30.7117 21.7598 30.7117C22.1645 30.7117 22.5576 30.4996 22.7709 30.1221C23.0862 29.5643 22.8896 28.8564 22.3317 28.5411L18.1646 26.186V19.0095L24.38 22.5979L24.3357 27.3844C24.3297 28.0252 24.8444 28.5495 25.4851 28.5554C25.4888 28.5555 25.4924 28.5555 25.4961 28.5555C26.1318 28.5555 26.6502 28.043 26.6561 27.4059L26.6882 23.9306L30.1421 25.9247C30.3248 26.0302 30.5243 26.0803 30.7211 26.0803C31.1221 26.0803 31.5121 25.8721 31.7269 25.5C32.0473 24.9451 31.8572 24.2355 31.3021 23.9151Z" fill="#1E7243" stroke="#1E7243" stroke-width="0.4"/>
</g>
<defs>
<clipPath id="clip0">
<rect width="34" height="34" fill="white" transform="translate(0.00390625)"/>
</clipPath>
</defs>
</svg>
