<svg width="37" height="36" viewBox="0 0 37 36" fill="none" xmlns="http://www.w3.org/2000/svg">
<g clip-path="url(#clip0)">
<path d="M33.1412 3.27938C32.9921 5.33789 32.3732 9.26075 29.8746 11.69C29.1863 12.3591 28.4861 12.8289 27.7933 13.0865C27.0681 13.3562 26.705 14.1462 26.9824 14.8512C27.1965 15.3957 27.7298 15.7302 28.2957 15.7302C28.4626 15.7302 28.6324 15.7011 28.7976 15.6396C29.862 15.2439 30.8932 14.5653 31.8627 13.6228C35.9882 9.61184 36.0169 2.91961 35.9976 1.93325C35.9979 1.92744 35.9981 1.92163 35.9983 1.91582C36.0238 1.1636 35.4189 0.532914 34.6451 0.505092C34.33 0.493402 26.8726 0.276567 22.5056 4.52229C20.825 6.15628 19.979 7.93451 19.9913 9.80749C20.0013 11.3512 20.6078 12.5847 21.0018 13.3186C19.7042 14.7557 18.6695 16.3802 17.9216 18.1606C17.7611 18.5426 17.6154 18.9285 17.4841 19.3178C16.8802 18.3328 16.0909 17.1813 15.0782 15.9292C15.4701 15.1839 16.0098 14.0042 16.0193 12.5488C16.0315 10.6758 15.1856 8.89756 13.5049 7.26357C9.13785 3.01784 1.6806 3.23529 1.36525 3.24643C0.59645 3.27405 -0.00394749 3.89694 0.01349 4.64295C-0.00654905 5.50748 -0.0249005 12.3073 4.14779 16.3641C5.81623 17.9862 7.64224 18.8087 9.57506 18.8087C9.59974 18.8087 11.5469 18.7974 13.1921 18.0347C13.6973 18.6798 14.1234 19.2748 14.4766 19.8014C15.9694 22.0272 16.5261 23.5504 16.5358 23.5772C16.5616 23.6501 16.5934 23.7193 16.6301 23.7849C16.6147 24.08 16.6064 24.3761 16.6064 24.6732V26.3899C15.9762 26.1007 15.2836 25.9467 14.5717 25.9467C12.1247 25.9467 10.1018 27.7465 9.83015 30.056C7.71396 30.2736 6.05965 32.0191 6.05965 34.1333C6.05965 34.8882 6.68902 35.5 7.4654 35.5C8.24179 35.5 8.87116 34.8882 8.87116 34.1333C8.87116 33.3797 9.50179 32.7666 10.2769 32.7666C10.468 32.7666 10.6527 32.8029 10.8259 32.8745C11.3342 33.0845 11.922 32.9856 12.3283 32.6219C12.7346 32.258 12.884 31.6966 12.7103 31.1868C12.6441 30.9927 12.6106 30.7908 12.6106 30.5867C12.6106 29.5354 13.4903 28.6802 14.5716 28.6802C15.5832 28.6802 16.4412 29.4468 16.5248 30.4256C16.5758 31.0222 17.0203 31.5173 17.6215 31.6468C18.2226 31.7764 18.8407 31.5105 19.1463 30.9906C19.4934 30.4 20.1422 30.0331 20.8395 30.0331C21.8242 30.0331 22.6555 30.7485 22.7732 31.6972C22.8235 32.1029 23.0579 32.4654 23.4121 32.6853C23.7664 32.9053 24.2033 32.9597 24.6029 32.8334C24.7434 32.789 24.8897 32.7666 25.0375 32.7666C25.8126 32.7666 26.4433 33.3797 26.4433 34.1333C26.4433 34.8881 27.0726 35.5 27.849 35.5C28.6254 35.5 29.2548 34.8881 29.2548 34.1333C29.2548 31.9202 27.4421 30.111 25.1843 30.0355C24.4354 28.4104 22.7564 27.2997 20.8395 27.2997C20.4321 27.2997 20.0316 27.3513 19.6463 27.4488C20.7169 25.7029 23.1285 23.5411 24.3446 23.1373C25.0793 22.8932 25.4714 22.1164 25.2204 21.4021C24.9694 20.6879 24.1704 20.3066 23.4357 20.5506C22.2785 20.935 20.7916 22.018 19.4836 23.3071C19.8002 20.0031 21.2618 16.9263 23.6796 14.5286L29.554 8.70314C30.0975 8.16413 30.0887 7.29884 29.5343 6.77042C28.9799 6.242 28.0898 6.25062 27.5464 6.78956L23.0942 11.2047C22.9317 10.7854 22.8062 10.3078 22.8028 9.79019C22.7955 8.65939 23.3485 7.56852 24.4938 6.45508C26.9914 4.02676 31.024 3.42465 33.1412 3.27938ZM13.0332 13.6104C11.7299 12.2507 10.1759 10.8293 8.33088 9.41449C7.72134 8.94698 6.83737 9.04849 6.35658 9.64117C5.87578 10.2338 5.9802 11.0933 6.58974 11.5606C8.48079 13.0107 10.033 14.4656 11.2908 15.8143C10.6663 15.9877 9.98245 16.0752 9.57506 16.0752C8.39866 16.0752 7.27366 15.5375 6.13587 14.4312C3.63683 12.0016 3.01822 8.07827 2.86923 6.02079C4.98739 6.16613 9.01945 6.76844 11.5168 9.19642C12.662 10.3098 13.2152 11.4007 13.2078 12.5314C13.2052 12.9156 13.1354 13.2777 13.0332 13.6104Z" fill="#1E7243"/>
</g>
<defs>
<clipPath id="clip0">
<rect width="36" height="35" fill="white" transform="translate(0.00390625 0.5)"/>
</clipPath>
</defs>
</svg>
