<svg width="25" height="25" viewBox="0 0 25 25" fill="none" xmlns="http://www.w3.org/2000/svg">
<path d="M23.1492 12.6232C22.6298 12.6232 22.2087 12.2021 22.2087 11.6827C22.2087 6.49677 17.9896 2.27769 12.8037 2.27769C12.2843 2.27769 11.8632 1.85663 11.8632 1.33719C11.8632 0.817753 12.2843 0.396692 12.8037 0.396692C18.8701 0.27137 24.2151 5.61632 24.0896 11.6828C24.0897 12.2021 23.6687 12.6232 23.1492 12.6232ZM16.5657 11.6827C16.5657 9.60832 14.8781 7.92068 12.8037 7.92068C12.2843 7.92068 11.8632 8.34175 11.8632 8.86118C11.8632 9.38062 12.2843 9.80168 12.8037 9.80168C13.8409 9.80168 14.6847 10.6455 14.6847 11.6827C14.6847 12.2021 15.1058 12.6232 15.6252 12.6232C16.1447 12.6232 16.5657 12.2021 16.5657 11.6827ZM20.3277 11.6827C20.3277 7.53395 16.9525 4.15869 12.8037 4.15869C12.2843 4.15869 11.8632 4.57975 11.8632 5.09919C11.8632 5.61863 12.2843 6.03969 12.8037 6.03969C15.9153 6.03969 18.4467 8.57113 18.4467 11.6827C18.4467 12.2021 18.8678 12.6232 19.3872 12.6232C19.9067 12.6232 20.3277 12.2021 20.3277 11.6827ZM16.5862 24.4737C16.8284 24.4683 17.0591 24.3697 17.2304 24.1985L20.6162 20.8127C20.9834 20.4454 20.9834 19.8499 20.6162 19.4826L15.5023 14.3687C15.135 14.0013 14.5394 14.0013 14.1722 14.3687L12.8967 15.6442C11.6208 15.0308 9.43233 12.8343 8.83892 11.5608L10.1016 10.2981C10.4659 9.94788 10.4659 9.31827 10.1016 8.96807L4.95687 3.82326C4.58956 3.45595 3.99408 3.45595 3.62682 3.82326L0.288043 7.16203C0.115556 7.33452 0.0168035 7.56729 0.0127123 7.81121C-0.0018654 14.7046 9.3467 24.3879 16.5446 24.4741C16.5646 24.4741 16.5786 24.4738 16.5862 24.4737ZM4.29184 5.81839L8.10655 9.6331L7.05959 10.6801C6.8224 10.9173 6.72948 11.2629 6.81577 11.5871C7.30957 13.573 10.9181 17.1767 12.8652 17.6703C13.1897 17.7575 13.5363 17.6647 13.774 17.427L14.8372 16.3638L18.6211 20.1477L16.1946 22.5741C10.9786 22.2686 2.58996 15.0173 1.91553 8.19465L4.29184 5.81839Z" fill="#005827"/>
</svg>
