<svg width="22" height="25" viewBox="0 0 22 25" fill="none" xmlns="http://www.w3.org/2000/svg">
<path d="M8.27148 10.7578C8.27148 9.22513 9.52001 7.97656 11.0527 7.97656C12.5854 7.97656 13.8339 9.22514 13.8339 10.7578C13.8339 12.2905 12.5854 13.539 11.0527 13.539C9.52001 13.539 8.27148 12.2905 8.27148 10.7578Z" stroke="#005827" stroke-width="2"/>
<path d="M4.58161 4.67239L4.58162 4.67238C6.31127 2.94269 8.60602 1.99219 11.0521 1.99219C13.4983 1.99219 15.793 2.94269 17.5227 4.67238C19.2524 6.40213 20.2029 8.69685 20.2029 11.143C20.2029 13.5694 19.0522 15.8673 17.4697 17.919C15.8916 19.9649 13.9688 21.6596 12.5699 22.8902L12.5699 22.8902L12.5588 22.9C12.1799 23.2332 11.8369 23.535 11.56 23.7937C11.4196 23.9248 11.2385 23.9922 11.0521 23.9922C10.8656 23.9922 10.6847 23.9248 10.5444 23.7938L10.5443 23.7937C10.2682 23.5358 9.92631 23.235 9.54892 22.9029L9.5344 22.8902L9.53435 22.8901C8.13547 21.6596 6.2126 19.9648 4.6346 17.919C3.05209 15.8673 1.90137 13.5694 1.90137 11.1429C1.90137 8.69685 2.85186 6.40214 4.58161 4.67239Z" stroke="#005827" stroke-width="2"/>
</svg>
