<svg width="26" height="25" viewBox="0 0 26 25" fill="none" xmlns="http://www.w3.org/2000/svg">
<path d="M21.4576 4.54719C21.8465 4.54719 22.1625 4.54719 22.4785 4.54719C24.4231 4.5715 25.9787 6.11501 25.9787 8.08389C25.9909 12.5564 25.9909 17.029 25.9787 21.5136C25.9787 23.5433 24.5082 25.0017 22.4785 25.0017C16.4868 25.0139 10.495 25.0139 4.50329 25.0017C2.48579 25.0017 1.0152 23.5798 1.0152 21.5744C0.990892 15.5098 0.978738 9.45725 1.0152 3.40475C1.0152 1.44802 2.44933 0.0260429 4.40606 0.0260429C8.93936 0.00173569 13.4727 0.00173569 18.0181 0.0260429C20.0113 0.0381966 21.4333 1.50878 21.4576 3.51413C21.4576 3.83013 21.4576 4.14612 21.4576 4.54719ZM19.1606 22.7169C19.1606 21.9633 19.1606 21.3192 19.1606 20.675C19.1606 15.0115 19.1606 9.33572 19.1606 3.67213C19.1606 2.67553 18.7595 2.27446 17.7629 2.27446C13.4119 2.27446 9.0609 2.27446 4.7099 2.27446C3.64038 2.27446 3.26362 2.65122 3.26362 3.74505C3.26362 9.53017 3.26362 15.3275 3.26362 21.1126C3.26362 22.3887 3.57961 22.7047 4.8922 22.7047C9.48627 22.7047 14.0803 22.7047 18.6744 22.7047C18.8689 22.7169 19.0633 22.7169 19.1606 22.7169ZM21.5062 6.85638C21.4819 6.97791 21.4576 7.05084 21.4576 7.13591C21.4576 11.9487 21.4454 16.7616 21.4576 21.5866C21.4576 22.2793 21.8951 22.6925 22.5514 22.7047C23.232 22.7169 23.6817 22.2915 23.6817 21.5623C23.6939 17.0654 23.6939 12.5807 23.6939 8.08389C23.6939 7.46406 23.2685 6.94145 22.7094 6.86853C22.3327 6.81992 21.9194 6.85638 21.5062 6.85638Z" fill="#C9D200"/>
</svg>
