<svg width="25" height="26" viewBox="0 0 25 26" fill="none" xmlns="http://www.w3.org/2000/svg">
<path d="M20.4664 4.53938C20.8553 4.53938 21.1713 4.53938 21.4873 4.53938C23.4319 4.56368 24.9875 6.10719 24.9875 8.07608C24.9997 12.5486 24.9997 17.0211 24.9875 21.5058C24.9875 23.5355 23.5169 24.9939 21.4873 24.9939C15.4955 25.0061 9.50381 25.0061 3.51208 24.9939C1.49458 24.9939 0.0239881 23.5719 0.0239881 21.5666C-0.000319123 15.5019 -0.0124727 9.44944 0.0239881 3.39694C0.0239881 1.4402 1.45812 0.0182304 3.41485 0.0182304C7.94815 -0.00607681 12.4815 -0.00607681 17.0269 0.0182304C19.0201 0.0303841 20.4421 1.50097 20.4664 3.50632C20.4664 3.82231 20.4664 4.13831 20.4664 4.53938ZM18.1693 22.709C18.1693 21.9555 18.1693 21.3114 18.1693 20.6672C18.1693 15.0036 18.1693 9.3279 18.1693 3.66432C18.1693 2.66772 17.7683 2.26665 16.7717 2.26665C12.4207 2.26665 8.06969 2.26665 3.71869 2.26665C2.64917 2.26665 2.27241 2.64341 2.27241 3.73724C2.27241 9.52236 2.27241 15.3196 2.27241 21.1048C2.27241 22.3809 2.5884 22.6969 3.90099 22.6969C8.49506 22.6969 13.0891 22.6969 17.6832 22.6969C17.8777 22.709 18.0721 22.709 18.1693 22.709ZM20.515 6.84857C20.4907 6.9701 20.4664 7.04302 20.4664 7.1281C20.4664 11.9409 20.4542 16.7538 20.4664 21.5788C20.4664 22.2715 20.9039 22.6847 21.5602 22.6969C22.2408 22.709 22.6905 22.2837 22.6905 21.5544C22.7026 17.0576 22.7026 12.5729 22.7026 8.07608C22.7026 7.45625 22.2773 6.93364 21.7182 6.86072C21.3414 6.8121 20.9282 6.84857 20.515 6.84857Z" fill="#C9D200"/>
<path d="M10.233 11.3569C11.6914 11.3569 13.1498 11.3569 14.6083 11.3569C15.4469 11.3569 15.8966 11.7458 15.9087 12.4629C15.9209 13.2042 15.459 13.6418 14.6083 13.6418C11.6793 13.6539 8.73807 13.6539 5.80905 13.6418C4.8003 13.6418 4.21693 12.8153 4.60584 11.9889C4.83676 11.5149 5.23783 11.3447 5.74828 11.3447C7.23102 11.3569 8.72592 11.3569 10.233 11.3569Z" fill="#C9D200"/>
<path d="M10.1843 18.1749C8.72588 18.1749 7.26744 18.187 5.82116 18.1749C4.99472 18.1749 4.53288 17.7616 4.52073 17.0567C4.50857 16.3518 5.00687 15.9021 5.84547 15.89C8.76234 15.8778 11.6671 15.8778 14.5839 15.89C15.4711 15.89 15.9573 16.3397 15.933 17.081C15.9087 17.7738 15.4711 18.1627 14.6812 18.1749C13.1741 18.1749 11.6792 18.1749 10.1843 18.1749Z" fill="#C9D200"/>
<path d="M8.0329 6.82376C8.76212 6.82376 9.49134 6.81161 10.2206 6.82376C10.9619 6.83591 11.3752 7.24914 11.3752 7.94189C11.3752 8.6225 10.9498 9.06003 10.2327 9.07218C8.71351 9.08433 7.20646 9.08433 5.68726 9.07218C4.97019 9.06003 4.52051 8.61034 4.52051 7.95405C4.52051 7.2856 4.94588 6.84807 5.6751 6.83591C6.46509 6.81161 7.25507 6.82376 8.0329 6.82376Z" fill="#C9D200"/>
</svg>
