<svg width="51" height="51" viewBox="0 0 51 51" xmlns="http://www.w3.org/2000/svg">
<path d="M49.793 25.3906C49.793 38.6925 39.0948 49.3906 25.793 49.3906C12.4911 49.3906 1.79297 38.6925 1.79297 25.3906C1.79297 12.0887 12.4911 1.39062 25.793 1.39062C39.0948 1.39062 49.793 12.0887 49.793 25.3906Z" stroke="#C9D200" stroke-width="2"/>
<path d="M24.0744 30.0466C22.1057 29.8591 20.3244 29.3903 18.7307 28.1716C18.5432 27.9841 18.3557 27.8903 18.1682 27.7028C17.5119 27.0466 17.4182 26.2966 17.9807 25.5466C18.4494 24.8903 19.1994 24.7028 19.9494 25.0778C20.1369 25.1716 20.2307 25.2653 20.4182 25.3591C23.2307 27.3278 27.1682 27.3278 30.0744 25.4528C30.3557 25.2653 30.6369 25.0778 31.0119 24.9841C31.6682 24.7966 32.3244 25.0778 32.6994 25.6403C33.0744 26.2966 33.0744 26.9528 32.6057 27.5153C31.8557 28.3591 30.8244 28.9216 29.7932 29.2966C28.7619 29.6716 27.7307 29.8591 26.6057 30.0466C26.7932 30.2341 26.8869 30.3278 26.9807 30.4216C28.4807 31.9216 29.9807 33.3278 31.3869 34.8278C31.8557 35.2966 31.9494 35.9528 31.7619 36.5153C31.4807 37.1716 30.8244 37.5466 30.1682 37.5466C29.7932 37.5466 29.4182 37.2653 29.1369 36.9841C28.0119 35.8591 26.8869 34.8278 25.7619 33.7028C25.4807 33.4216 25.2932 33.4216 25.0119 33.7028C23.8869 34.8278 22.7619 35.9528 21.6369 37.0778C21.1682 37.5466 20.5119 37.6403 19.9494 37.3591C19.2932 37.0778 18.9182 36.4216 18.9182 35.7653C18.9182 35.2966 19.1994 35.0153 19.4807 34.7341C20.9807 33.3278 22.3869 31.8278 23.8869 30.4216C23.7932 30.3278 23.8869 30.2341 24.0744 30.0466Z" fill="white"/>
<path d="M25.1992 25.0781C21.6367 25.0781 18.7305 22.1719 18.7305 18.7031C18.7305 15.1406 21.6367 12.3281 25.1992 12.3281C28.7617 12.3281 31.668 15.2344 31.668 18.7969C31.7617 22.2656 28.8555 25.0781 25.1992 25.0781ZM28.4805 18.6094C28.4805 16.8281 27.0742 15.5156 25.293 15.5156C23.5117 15.5156 22.1055 16.9219 22.1055 18.7031C22.1055 20.3906 23.5117 21.7969 25.293 21.7969C27.0742 21.7969 28.4805 20.3906 28.4805 18.6094Z" fill="white"/>
</svg>
