<svg width="46" height="45" viewBox="0 0 46 45" fill="none" xmlns="http://www.w3.org/2000/svg">
<circle cx="22.7852" cy="22.5" r="22" stroke="#C7D0D9"/>
<path d="M29.8025 25.6419C30.3928 25.0516 30.4772 24.2083 29.9712 23.365C29.5495 22.6903 28.7905 22.353 27.9472 22.5217C27.6099 22.606 27.2726 22.7747 26.9352 23.0277C24.321 24.7986 20.7791 24.7143 18.1648 22.9433C17.9961 22.859 17.8275 22.7747 17.6588 22.6903C16.7312 22.2687 15.8035 22.4374 15.2976 23.2807C14.7072 24.124 14.7916 25.0516 15.5505 25.8106C15.7192 25.9793 15.8879 26.0636 15.9722 26.2323L16.0565 26.3166C17.2372 27.2442 18.6708 27.8346 20.5261 28.0875L19.4298 29.1838C18.5021 30.1115 17.4902 31.1235 16.5625 32.0511C16.3095 32.3041 15.9722 32.7258 15.9722 33.3161C15.9722 34.0751 16.3939 34.834 17.1528 35.1714C17.4058 35.34 17.6588 35.34 17.9118 35.34C18.3335 35.34 18.8395 35.1714 19.1768 34.7497C20.4417 33.4847 21.4537 32.4728 22.4657 31.4608C22.55 31.3765 22.55 31.3765 22.55 31.3765C22.55 31.3765 22.6344 31.3765 22.6344 31.4608C23.309 32.2198 24.068 32.8944 24.7426 33.6534C25.08 33.9907 25.4173 34.328 25.7546 34.6654C26.1763 35.087 26.5136 35.2557 27.0196 35.2557C27.7786 35.34 28.6219 34.834 28.9592 34.075C29.2965 33.4004 29.1279 32.5571 28.5375 32.0511C27.6942 31.2078 26.8509 30.2801 25.9233 29.4368L24.4896 28.0032C25.2486 27.9189 26.0919 27.7502 26.8509 27.4129C28.1159 26.9912 29.0435 26.4009 29.8025 25.6419Z" fill="#1E7243"/>
<path d="M22.55 23.2807C26.1763 23.2807 29.1279 20.4134 29.1279 16.7872C29.1279 15.0162 28.4532 13.3296 27.1882 12.0646C25.9233 10.7997 24.321 10.125 22.6344 10.125C19.0081 10.125 16.1409 13.0766 16.0565 16.6185C16.0565 18.3894 16.7312 19.9917 17.9961 21.2567C19.1768 22.606 20.7791 23.2807 22.55 23.2807ZM20.6947 14.8475C21.2007 14.3416 21.8754 14.0886 22.55 14.0886C24.068 14.0886 25.1643 15.2692 25.1643 16.7028C25.1643 18.2208 23.9837 19.3171 22.55 19.3171C21.0321 19.3171 19.9358 18.1365 19.9358 16.7028C19.9358 16.0282 20.1888 15.3535 20.6947 14.8475Z" fill="#1E7243"/>
<path d="M29.8025 25.6419C30.3928 25.0516 30.4772 24.2083 29.9712 23.365C29.5495 22.6903 28.7905 22.353 27.9472 22.5217C27.6099 22.606 27.2726 22.7747 26.9352 23.0277C24.321 24.7986 20.7791 24.7143 18.1648 22.9433C17.9961 22.859 17.8275 22.7747 17.6588 22.6903C16.7312 22.2687 15.8035 22.4374 15.2976 23.2807C14.7072 24.124 14.7916 25.0516 15.5505 25.8106C15.7192 25.9793 15.8879 26.0636 15.9722 26.2323L16.0565 26.3166C17.2372 27.2442 18.6708 27.8346 20.5261 28.0875L19.4298 29.1838C18.5021 30.1115 17.4902 31.1235 16.5625 32.0511C16.3095 32.3041 15.9722 32.7258 15.9722 33.3161C15.9722 34.0751 16.3939 34.834 17.1528 35.1714C17.4058 35.34 17.6588 35.34 17.9118 35.34C18.3335 35.34 18.8395 35.1714 19.1768 34.7497C20.4417 33.4847 21.4537 32.4728 22.4657 31.4608C22.55 31.3765 22.55 31.3765 22.55 31.3765C22.55 31.3765 22.6344 31.3765 22.6344 31.4608C23.309 32.2198 24.068 32.8944 24.7426 33.6534C25.08 33.9907 25.4173 34.328 25.7546 34.6654C26.1763 35.087 26.5136 35.2557 27.0196 35.2557C27.7786 35.34 28.6219 34.834 28.9592 34.075C29.2965 33.4004 29.1279 32.5571 28.5375 32.0511C27.6942 31.2078 26.8509 30.2801 25.9233 29.4368L24.4896 28.0032C25.2486 27.9189 26.0919 27.7502 26.8509 27.4129C28.1159 26.9912 29.0435 26.4009 29.8025 25.6419Z" fill="#1E7243"/>
</svg>
