<svg width="17" height="26" viewBox="0 0 17 26" fill="none" xmlns="http://www.w3.org/2000/svg">
<path d="M15.8025 15.6419C16.3928 15.0516 16.4772 14.2083 15.9712 13.365C15.5495 12.6903 14.7905 12.353 13.9472 12.5217C13.6099 12.606 13.2726 12.7747 12.9352 13.0277C10.321 14.7986 6.77907 14.7143 4.16481 12.9433C3.99615 12.859 3.82748 12.7747 3.65882 12.6903C2.73118 12.2687 1.80354 12.4374 1.29756 13.2807C0.707239 14.124 0.791559 15.0516 1.55054 15.8106C1.7192 15.9793 1.88786 16.0636 1.9722 16.2323L2.05653 16.3166C3.23717 17.2442 4.6708 17.8346 6.52608 18.0875L5.42978 19.1838C4.50213 20.1115 3.49017 21.1235 2.56252 22.0511C2.30953 22.3041 1.9722 22.7258 1.9722 23.3161C1.9722 24.0751 2.39386 24.834 3.15284 25.1714C3.40583 25.34 3.65882 25.34 3.91181 25.34C4.33347 25.34 4.83946 25.1714 5.17678 24.7497C6.44175 23.4847 7.45373 22.4728 8.4657 21.4608C8.55003 21.3765 8.55003 21.3765 8.55003 21.3765C8.55003 21.3765 8.63436 21.3765 8.63436 21.4608C9.30901 22.2198 10.068 22.8944 10.7426 23.6534C11.08 23.9907 11.4173 24.328 11.7546 24.6654C12.1763 25.087 12.5136 25.2557 13.0196 25.2557C13.7786 25.34 14.6219 24.834 14.9592 24.075C15.2965 23.4004 15.1279 22.5571 14.5375 22.0511C13.6942 21.2078 12.8509 20.2801 11.9233 19.4368L10.4896 18.0032C11.2486 17.9189 12.0919 17.7502 12.8509 17.4129C14.1159 16.9912 15.0435 16.4009 15.8025 15.6419Z" fill="#1E7243"/>
<path d="M8.55002 13.2807C12.1763 13.2807 15.1279 10.4134 15.1279 6.78715C15.1279 5.0162 14.4532 3.32959 13.1882 2.06462C11.9233 0.799652 10.321 0.125 8.63436 0.125C5.00812 0.125 2.14086 3.07659 2.05653 6.61849C2.05653 8.38945 2.73118 9.99174 3.99615 11.2567C5.17678 12.606 6.77907 13.2807 8.55002 13.2807ZM6.69474 4.84755C7.20073 4.34156 7.87538 4.08856 8.55002 4.08856C10.068 4.08856 11.1643 5.2692 11.1643 6.70283C11.1643 8.22079 9.98365 9.31709 8.55002 9.31709C7.03206 9.31709 5.93577 8.13646 5.93577 6.70283C5.93577 6.02818 6.18876 5.35354 6.69474 4.84755Z" fill="#1E7243"/>
<path d="M15.8025 15.6419C16.3928 15.0516 16.4772 14.2083 15.9712 13.365C15.5495 12.6903 14.7905 12.353 13.9472 12.5217C13.6099 12.606 13.2726 12.7747 12.9352 13.0277C10.321 14.7986 6.77907 14.7143 4.16481 12.9433C3.99615 12.859 3.82748 12.7747 3.65882 12.6903C2.73118 12.2687 1.80354 12.4374 1.29756 13.2807C0.707239 14.124 0.791559 15.0516 1.55054 15.8106C1.7192 15.9793 1.88786 16.0636 1.9722 16.2323L2.05653 16.3166C3.23717 17.2442 4.6708 17.8346 6.52608 18.0875L5.42978 19.1838C4.50213 20.1115 3.49017 21.1235 2.56252 22.0511C2.30953 22.3041 1.9722 22.7258 1.9722 23.3161C1.9722 24.0751 2.39386 24.834 3.15284 25.1714C3.40583 25.34 3.65882 25.34 3.91181 25.34C4.33347 25.34 4.83946 25.1714 5.17678 24.7497C6.44175 23.4847 7.45373 22.4728 8.4657 21.4608C8.55003 21.3765 8.55003 21.3765 8.55003 21.3765C8.55003 21.3765 8.63436 21.3765 8.63436 21.4608C9.30901 22.2198 10.068 22.8944 10.7426 23.6534C11.08 23.9907 11.4173 24.328 11.7546 24.6654C12.1763 25.087 12.5136 25.2557 13.0196 25.2557C13.7786 25.34 14.6219 24.834 14.9592 24.075C15.2965 23.4004 15.1279 22.5571 14.5375 22.0511C13.6942 21.2078 12.8509 20.2801 11.9233 19.4368L10.4896 18.0032C11.2486 17.9189 12.0919 17.7502 12.8509 17.4129C14.1159 16.9912 15.0435 16.4009 15.8025 15.6419Z" fill="#1E7243"/>
</svg>
