<svg width="35" height="35" viewBox="0 0 35 35" fill="none" xmlns="http://www.w3.org/2000/svg">
<g clip-path="url(#clip0)">
<path d="M10.3088 22.5177C10.3088 21.9365 9.90547 21.5898 9.19384 21.5898C8.90325 21.5898 8.70645 21.6185 8.60352 21.646V23.5109C8.7254 23.5383 8.87523 23.5475 9.08176 23.5475C9.84028 23.5475 10.3088 23.1642 10.3088 22.5177Z" fill="#1E7243"/>
<path d="M14.7148 21.6094C14.3961 21.6094 14.1902 21.6369 14.0684 21.6654V25.7957C14.1902 25.8243 14.387 25.8243 14.565 25.8243C15.8578 25.8334 16.7009 25.1218 16.7009 23.6139C16.7101 22.3026 15.9418 21.6094 14.7148 21.6094Z" fill="#1E7243"/>
<path d="M22.8994 0H8.84198C6.78832 0 5.11687 1.67262 5.11687 3.72511V17.4999H4.75303C3.92416 17.4999 3.25195 18.1715 3.25195 19.0011V28.1045C3.25195 28.9341 3.92409 29.6055 4.75303 29.6055H5.11687V31.2748C5.11687 33.3296 6.78832 34.9999 8.84198 34.9999H28.0227C30.0751 34.9999 31.7467 33.3295 31.7467 31.2748V8.81635L22.8994 0ZM7.18991 20.6439C7.62982 20.5696 8.24817 20.5136 9.11936 20.5136C9.99976 20.5136 10.6273 20.6816 11.0489 21.0192C11.4516 21.3373 11.7234 21.8623 11.7234 22.4802C11.7234 23.098 11.5175 23.6232 11.1427 23.979C10.6554 24.4378 9.93458 24.6437 9.09141 24.6437C8.90376 24.6437 8.73556 24.6344 8.60402 24.6162V26.8736H7.18991V20.6439ZM28.0227 32.7186H8.84198C8.04679 32.7186 7.39926 32.0711 7.39926 31.2748V29.6055H25.2797C26.1087 29.6055 26.7808 28.9341 26.7808 28.1045V19.0011C26.7808 18.1715 26.1087 17.4999 25.2797 17.4999H7.39926V3.72511C7.39926 2.93109 8.04687 2.28356 8.84198 2.28356L22.0459 2.26977V7.15041C22.0459 8.57599 23.2026 9.73378 24.6293 9.73378L29.4104 9.72006L29.4642 31.2747C29.4642 32.0711 28.8178 32.7186 28.0227 32.7186ZM12.6353 26.845V20.6439C13.1597 20.5604 13.8433 20.5136 14.5648 20.5136C15.7637 20.5136 16.5412 20.7286 17.1504 21.1874C17.806 21.6747 18.2178 22.4516 18.2178 23.567C18.2178 24.7752 17.7779 25.6093 17.1686 26.124C16.5039 26.6766 15.492 26.9387 14.2558 26.9387C13.5155 26.9387 12.991 26.8918 12.6353 26.845ZM22.8583 23.1736V24.3348H20.5912V26.8736H19.1582V20.5604H23.0173V21.7308H20.5912V23.1736H22.8583Z" fill="#1E7243"/>
</g>
<defs>
<clipPath id="clip0">
<rect width="35" height="35" fill="white"/>
</clipPath>
</defs>
</svg>
