<svg width="26" height="32" viewBox="0 0 26 32" fill="none" xmlns="http://www.w3.org/2000/svg">
<path d="M9.2168 13.3548C9.2168 11.269 10.9154 9.57031 13.0013 9.57031C15.0872 9.57031 16.7858 11.269 16.7858 13.3548C16.7858 15.4407 15.0872 17.1393 13.0013 17.1393C10.9154 17.1393 9.2168 15.4407 9.2168 13.3548Z" stroke="#1E7243" stroke-width="2"/>
<path d="M4.62536 5.46515L4.62537 5.46514C6.8637 3.22675 9.83481 1.99609 13.0003 1.99609C16.1659 1.99609 19.137 3.22675 21.3753 5.46514C23.6137 7.7036 24.8444 10.6747 24.8444 13.8402C24.8444 16.9943 23.3496 19.9586 21.3307 22.5762C19.3163 25.1878 16.8646 27.3478 15.096 28.9035L15.096 28.9035L15.084 28.9141C14.6029 29.3374 14.1715 29.7169 13.824 30.0415C13.5951 30.2552 13.3003 30.364 13.0003 30.364C12.7001 30.364 12.4056 30.2553 12.1767 30.0415L12.1766 30.0414C11.8301 29.7177 11.4 29.3393 10.9204 28.9174L10.9046 28.9035L10.9046 28.9034C9.13606 27.3477 6.68436 25.1878 4.66993 22.5761C2.65099 19.9586 1.15625 16.9942 1.15625 13.8401C1.15625 10.6747 2.3869 7.70361 4.62536 5.46515Z" stroke="#1E7243" stroke-width="2"/>
</svg>
