<svg width="34" height="30" viewBox="0 0 34 30" fill="none" xmlns="http://www.w3.org/2000/svg">
<path d="M4.83929 15.2503H5.08929V15.0003C5.08929 7.32835 11.3102 1.10742 18.9821 1.10742C26.6541 1.10742 32.875 7.32835 32.875 15.0003C32.875 22.6722 26.6541 28.8931 18.9821 28.8931C15.2287 28.8931 11.8435 27.4067 9.34297 24.993L11.2206 23.1154C13.2306 25.053 15.97 26.2503 18.9821 26.2503C25.2016 26.2503 30.2321 21.2198 30.2321 15.0003C30.2321 8.78078 25.2016 3.75028 18.9821 3.75028C12.7626 3.75028 7.73214 8.78078 7.73214 15.0003V15.2503H7.98214H12.0918L6.40315 20.9249L0.728554 15.2503H4.83929Z" fill="#333333" stroke="white" stroke-width="0.5"/>
<path d="M16.625 16.9333V9.07617H18.9821V15.7547L24.4821 19.0233L23.3507 20.9247L16.625 16.9333Z" fill="#333333"/>
</svg>
