<svg width="20" height="19" viewBox="0 0 20 19" fill="none" xmlns="http://www.w3.org/2000/svg">
<path d="M12.8876 2.70817C12.8847 2.70813 12.8819 2.70771 12.879 2.70771H8.38288L9.42356 1.66704C9.73789 1.35271 9.73789 0.843047 9.42356 0.528717C9.10923 0.214386 8.59957 0.214386 8.28524 0.528717L5.8705 2.94345C5.85175 2.9622 5.83402 2.98194 5.81719 3.00242C5.80957 3.01171 5.80293 3.02151 5.79576 3.03106C5.78716 3.04253 5.77829 3.05374 5.77033 3.06566C5.76267 3.07709 5.75603 3.08898 5.74905 3.10071C5.7426 3.1115 5.73581 3.12207 5.72985 3.1332C5.72347 3.14516 5.71804 3.15746 5.7123 3.16964C5.70683 3.18126 5.70102 3.1927 5.69608 3.20458C5.69117 3.21643 5.68721 3.22854 5.68291 3.24054C5.67831 3.25329 5.67344 3.26589 5.66948 3.27895C5.66586 3.29095 5.66318 3.30317 5.66012 3.31532C5.65676 3.32864 5.65303 3.34177 5.65035 3.35535C5.64756 3.36939 5.6459 3.38357 5.6439 3.39769C5.6422 3.40953 5.63997 3.42115 5.63877 3.43315C5.6362 3.4593 5.6348 3.48552 5.6348 3.51178C5.6348 3.51205 5.63477 3.51231 5.63477 3.51257C5.63477 3.51288 5.6348 3.51314 5.6348 3.51344C5.63484 3.53966 5.6362 3.56589 5.63877 3.592C5.63993 3.60399 5.6422 3.61565 5.6439 3.6275C5.64593 3.64165 5.64756 3.6558 5.65035 3.66983C5.65303 3.68342 5.65676 3.69655 5.66012 3.70987C5.66318 3.72201 5.66582 3.7342 5.66948 3.7462C5.67344 3.75925 5.67834 3.77186 5.68291 3.78465C5.68721 3.79664 5.69117 3.80872 5.69604 3.82053C5.70098 3.83245 5.70679 3.84388 5.71226 3.8555C5.718 3.86769 5.72343 3.87999 5.72981 3.89191C5.73577 3.90304 5.74256 3.91365 5.74905 3.92444C5.75603 3.93613 5.76267 3.94802 5.77033 3.95945C5.77833 3.97141 5.78723 3.98265 5.79584 3.99412C5.80297 4.00363 5.80957 4.01344 5.81719 4.02269C5.83402 4.04321 5.85175 4.06294 5.8705 4.0817L8.28524 6.49643C8.59957 6.81076 9.10923 6.81076 9.42356 6.49643C9.73789 6.1821 9.73789 5.67244 9.42356 5.35811L8.38288 4.31743H12.8722C12.8743 4.31743 12.8764 4.31777 12.8786 4.31777C15.549 4.31777 17.708 6.47677 17.708 9.14724C17.708 10.3194 17.2399 11.4223 16.4206 12.2423C16.1064 12.5568 16.1066 13.0664 16.4211 13.3806C16.7356 13.6948 17.2452 13.6946 17.5594 13.3801C18.6767 12.2619 19.3179 10.7515 19.3179 9.14724C19.3179 5.59083 16.443 2.71307 12.8876 2.70817Z" fill="#333333"/>
<path d="M13.5221 15.2646C13.5307 15.2532 13.5396 15.242 13.5475 15.2301C13.5552 15.2186 13.5618 15.2068 13.5688 15.195C13.5753 15.1842 13.5821 15.1737 13.588 15.1626C13.5944 15.1506 13.5998 15.1382 13.6056 15.126C13.6111 15.1144 13.6168 15.103 13.6217 15.0912C13.6266 15.0793 13.6306 15.0672 13.6349 15.0551C13.6395 15.0424 13.6444 15.0298 13.6483 15.0169C13.652 15.0048 13.6546 14.9925 13.6577 14.9803C13.6611 14.9671 13.6648 14.954 13.6674 14.9405C13.6702 14.9264 13.6719 14.9121 13.674 14.8979C13.6756 14.8861 13.6779 14.8746 13.6791 14.8627C13.6843 14.8099 13.6843 14.7566 13.6791 14.7038C13.6779 14.6919 13.6757 14.6804 13.674 14.6686C13.6719 14.6544 13.6703 14.6401 13.6675 14.626C13.6648 14.6125 13.6611 14.5994 13.6577 14.5861C13.6547 14.574 13.652 14.5617 13.6483 14.5496C13.6444 14.5366 13.6395 14.5241 13.6349 14.5114C13.6306 14.4993 13.6266 14.4871 13.6217 14.4753C13.6168 14.4634 13.6111 14.452 13.6056 14.4405C13.5998 14.4282 13.5944 14.4159 13.5879 14.4039C13.582 14.3928 13.5753 14.3823 13.5688 14.3715C13.5618 14.3598 13.5551 14.3478 13.5475 14.3364C13.5395 14.3245 13.5307 14.3133 13.5222 14.3019C13.515 14.2923 13.5083 14.2824 13.5006 14.2731C13.4841 14.2529 13.4666 14.2335 13.4481 14.215C13.4478 14.2147 13.4476 14.2144 13.4473 14.2141L11.0326 11.7994C10.7183 11.4851 10.2086 11.4851 9.89426 11.7994C9.57993 12.1137 9.57993 12.6234 9.89426 12.9377L10.9349 13.9784H6.44568C6.44353 13.9784 6.44145 13.978 6.4393 13.978C3.76883 13.978 1.60984 11.819 1.60984 9.14857C1.60984 7.97637 2.07799 6.87348 2.89723 6.05352C3.21145 5.73904 3.21122 5.22942 2.89674 4.9152C2.58226 4.60099 2.07263 4.60121 1.75842 4.91569C0.64115 6.03383 0 7.54428 0 9.1485C0 12.705 2.87489 15.5828 6.43025 15.5877C6.43315 15.5877 6.43598 15.5881 6.43889 15.5881H10.9349L9.89426 16.6288C9.57993 16.9431 9.57993 17.4528 9.89426 17.7671C10.2086 18.0815 10.7183 18.0815 11.0326 17.7671L13.4473 15.3524C13.4475 15.3523 13.4476 15.3521 13.4477 15.3519C13.4663 15.3333 13.4839 15.3138 13.5006 15.2934C13.5083 15.284 13.515 15.2742 13.5221 15.2646Z" fill="#333333"/>
</svg>
