<svg width="16" height="15" viewBox="0 0 16 15" fill="none" xmlns="http://www.w3.org/2000/svg">
<path d="M7.40832 0.934862C7.70767 0.0135517 9.01108 0.0135522 9.31043 0.934863L10.38 4.22666C10.5139 4.63868 10.8978 4.91764 11.3311 4.91764H14.7923C15.761 4.91764 16.1638 6.15726 15.38 6.72666L12.5799 8.7611C12.2294 9.01575 12.0827 9.46711 12.2166 9.87914L13.2862 13.1709C13.5855 14.0922 12.531 14.8584 11.7473 14.289L8.94716 12.2545C8.59667 11.9999 8.12208 11.9999 7.77159 12.2545L4.97142 14.289C4.18771 14.8584 3.13323 14.0922 3.43258 13.1709L4.50215 9.87914C4.63602 9.46711 4.48936 9.01575 4.13888 8.7611L1.33871 6.72666C0.554994 6.15726 0.95777 4.91764 1.92649 4.91764H5.38769C5.82092 4.91764 6.20487 4.63868 6.33875 4.22666L7.40832 0.934862Z" fill="#C7D0D9"/>
</svg>
