<svg width="45" height="45" viewBox="0 0 45 45" fill="none" xmlns="http://www.w3.org/2000/svg">
<circle cx="22.5" cy="22.5" r="22.5" fill="#CFE7D7"/>
<g clip-path="url(#clip0)">
<path d="M32.6037 31.64L28.3749 27.4128C29.4027 25.984 29.9678 24.2765 29.9678 22.4792C29.9678 20.2153 29.0859 18.0861 27.4819 16.4844C25.8814 14.8835 23.7498 14 21.4832 14C19.2173 14 17.0863 14.8814 15.4844 16.4844C13.8826 18.0848 13 20.2146 13 22.4792C13 24.7438 13.8819 26.8729 15.4844 28.4753C17.0863 30.0763 19.2166 30.9598 21.4832 30.9598C23.2808 30.9598 24.9878 30.3978 26.4189 29.3678L30.6477 33.5949C30.9188 33.8652 31.2715 34 31.6257 34C31.9805 34 32.3339 33.8652 32.6037 33.5949C33.1439 33.0543 33.1439 32.1799 32.6037 31.64ZM17.4411 26.5197C16.3608 25.4399 15.7666 24.0041 15.7666 22.4785C15.7666 20.9529 16.3608 19.5185 17.4411 18.4387C18.5208 17.3589 19.956 16.7644 21.4832 16.7644C23.0104 16.7644 24.4463 17.3589 25.5259 18.4387C26.6063 19.5185 27.2011 20.9535 27.2011 22.4792C27.2011 24.0048 26.607 25.4399 25.5259 26.5204C24.4456 27.6002 23.0111 28.1933 21.4832 28.1933C19.9553 28.1933 18.5194 27.5988 17.4411 26.5197Z" fill="#1E7243"/>
</g>
<defs>
<clipPath id="clip0">
<rect width="20.0104" height="20" fill="white" transform="translate(13 14)"/>
</clipPath>
</defs>
</svg>
