<svg width="21" height="21" viewBox="0 0 21 21" fill="none" xmlns="http://www.w3.org/2000/svg">
<path d="M20.1789 18.597L15.9501 14.3699C16.9779 12.941 17.543 11.2335 17.543 9.43622C17.543 7.17229 16.6611 5.04316 15.0571 3.44148C13.4566 1.84048 11.325 0.957031 9.05839 0.957031C6.79251 0.957031 4.66151 1.83841 3.05963 3.44148C1.45775 5.04178 0.575195 7.1716 0.575195 9.43622C0.575195 11.7008 1.45706 13.83 3.05963 15.4324C4.66151 17.0333 6.79182 17.9168 9.05839 17.9168C10.856 17.9168 12.563 17.3548 13.9941 16.3248L18.2229 20.5519C18.494 20.8222 18.8467 20.957 19.2009 20.957C19.5557 20.957 19.9091 20.8222 20.1789 20.5519C20.7191 20.0114 20.7191 19.1369 20.1789 18.597ZM5.01633 13.4767C3.93596 12.397 3.34183 10.9612 3.34183 9.43553C3.34183 7.90989 3.93596 6.47549 5.01633 5.39572C6.09601 4.31594 7.5312 3.72144 9.05839 3.72144C10.5856 3.72144 12.0215 4.31594 13.1011 5.39572C14.1815 6.47549 14.7763 7.91058 14.7763 9.43622C14.7763 10.9619 14.1822 12.397 13.1011 13.4774C12.0208 14.5572 10.5863 15.1503 9.05839 15.1503C7.53051 15.1503 6.09463 14.5558 5.01633 13.4767Z" fill="#333333"/>
</svg>
