<svg width="14" height="13" viewBox="0 0 14 13" fill="none" xmlns="http://www.w3.org/2000/svg">
<path d="M12.7443 11.466L9.99562 8.71834C10.6637 7.78958 11.031 6.67973 11.031 5.51148C11.031 4.03992 10.4578 2.65599 9.41522 1.61489C8.37489 0.574243 6.98929 0 5.51603 0C4.04321 0 2.65806 0.572895 1.61684 1.61489C0.575615 2.65509 0.00195312 4.03947 0.00195312 5.51148C0.00195312 6.98348 0.575165 8.36741 1.61684 9.40896C2.65806 10.4496 4.04276 11.0238 5.51603 11.0238C6.68448 11.0238 7.79404 10.6585 8.72422 9.98904L11.4729 12.7367C11.6492 12.9124 11.8785 13 12.1086 13C12.3393 13 12.569 12.9124 12.7443 12.7367C13.0955 12.3853 13.0955 11.8169 12.7443 11.466ZM2.88869 8.13781C2.18645 7.43595 1.80027 6.5027 1.80027 5.51103C1.80027 4.51936 2.18645 3.587 2.88869 2.88514C3.59048 2.18329 4.52336 1.79687 5.51603 1.79687C6.5087 1.79687 7.44202 2.18329 8.14381 2.88514C8.84605 3.587 9.23269 4.5198 9.23269 5.51148C9.23269 6.50315 8.8465 7.43595 8.14381 8.13826C7.44157 8.84011 6.50914 9.22563 5.51603 9.22563C4.52291 9.22563 3.58959 8.83921 2.88869 8.13781Z" fill="#C8DAD0"/>
</svg>
