<svg width="21" height="20" viewBox="0 0 21 20" fill="none" xmlns="http://www.w3.org/2000/svg">
<path d="M10.3712 4.66797V7.99724H7.55415V4.66797H6.01758V8.7655C6.01758 9.18985 6.36154 9.53381 6.78588 9.53381H11.1395C11.5639 9.53381 11.9078 9.18985 11.9078 8.7655V4.66797H10.3712Z" fill="#1E7243"/>
<path d="M20.2317 0.826172H3.84148C3.63788 0.826172 3.44224 0.907096 3.29831 1.05127L0.225094 4.12444C0.0809238 4.26837 0 4.46401 0 4.66761V19.4188C0 19.8432 0.343957 20.1871 0.768305 20.1871H17.1586C17.3624 20.1871 17.5578 20.106 17.7017 19.9621L20.7749 16.8889C20.9191 16.745 21 16.5496 21 16.3457V1.59444C21 1.17009 20.656 0.826172 20.2317 0.826172ZM19.4634 16.0276L16.8405 18.6505H1.53657V4.98594L4.15976 2.36274H19.4634V16.0276H19.4634Z" fill="#1E7243"/>
<path d="M19.6878 1.05078L16.8398 3.89882H0.767578V5.43539H17.1578C17.3617 5.43539 17.5571 5.35446 17.701 5.21029L20.7742 2.13712L19.6878 1.05078Z" fill="#1E7243"/>
<path d="M17.9272 4.66797H16.3906V19.4192H17.9272V4.66797Z" fill="#1E7243"/>
</svg>
