<svg width="45" height="34" viewBox="0 0 45 34" fill="none" xmlns="http://www.w3.org/2000/svg">
<path d="M0.198627 13.5689C0.391655 13.1317 0.902687 12.9336 1.34029 13.1266C1.73207 13.2998 2.14339 13.4029 2.56683 13.4345C2.50519 13.1027 2.47285 12.7605 2.47285 12.4108C2.47285 10.8844 3.71422 9.6427 5.23991 9.6427C6.76561 9.6427 8.00698 10.8837 8.00698 12.4094C8.00698 13.8913 6.83635 15.1047 5.37096 15.1735C6.03123 15.8172 6.91349 16.2097 7.8345 16.2639C7.99047 16.273 8.14678 16.2707 8.30309 16.2707C8.44357 14.7874 8.89262 13.3523 9.64384 11.9924C9.87527 11.5737 10.4018 11.4217 10.8205 11.6532C11.2389 11.8842 11.3909 12.4108 11.1598 12.8295C10.3813 14.239 9.98644 15.7391 9.98644 17.2877C9.98644 20.5365 11.7806 23.6252 14.9095 25.762C15.1456 25.9234 15.2868 26.1909 15.2868 26.4769V29.088C15.2868 30.8084 16.6865 32.2084 18.4072 32.2084H18.7407V28.7912C18.7407 28.5237 18.8644 28.271 19.0756 28.1073C19.2871 27.9433 19.5624 27.886 19.8214 27.9524C21.238 28.3155 22.7162 28.4998 24.2156 28.4998C25.2504 28.4998 26.286 28.4105 27.2932 28.235C27.5449 28.1912 27.8036 28.2609 27.999 28.4253C28.1947 28.5897 28.3076 28.8323 28.3076 29.088C28.3076 30.8087 29.7076 32.2084 31.428 32.2084H31.7615V27.3164C31.7615 26.9977 31.9363 26.7049 32.217 26.554C33.5334 25.8456 34.6829 24.9764 35.6335 23.9705C35.8414 23.7506 36.1489 23.6552 36.445 23.7189C37.6813 23.9857 38.9477 23.7546 40.0105 23.0687C41.0733 22.3832 41.8053 21.3244 42.0718 20.0881L42.3848 18.6372L39.1252 17.9345C38.7327 17.8499 38.4501 17.507 38.442 17.1058C38.406 15.3345 37.8582 13.6437 36.8136 12.0813C36.5892 11.7451 36.6269 11.2988 36.9045 11.005L39.0336 8.75403L36.6522 6.88608C35.1905 5.73937 33.0972 5.86536 31.7834 7.17916C31.5574 7.40554 31.2245 7.48841 30.9186 7.39509C30.8961 7.38836 29.7207 7.03195 28.2668 6.69137C28.1876 7.03498 28.0721 7.36848 27.9215 7.68682C28.4527 7.85189 28.9611 8.04862 29.4401 8.27804C29.8713 8.4842 30.0539 9.0013 29.8477 9.4325C29.6961 9.74848 29.3589 9.94623 29.0093 9.92298C28.8159 9.91018 28.6528 9.81855 28.4794 9.74141C28.2729 9.64944 28.063 9.5659 27.8501 9.48943C26.9823 9.17748 26.0731 8.98513 25.1571 8.88542C23.3205 8.68632 21.4077 8.84398 19.6584 9.45338C19.1827 9.61912 18.7401 9.83506 18.2903 10.0584C17.8783 10.2632 17.3649 10.1052 17.1433 9.70132C16.9132 9.28225 17.0661 8.75606 17.4852 8.52564C17.9861 8.25041 18.5315 8.01292 19.1096 7.81281C18.9658 7.53052 18.8492 7.23575 18.7626 6.93122C17.6803 7.28628 16.6491 7.74847 15.6897 8.31644C15.278 8.56 14.7471 8.42356 14.5036 8.01224C14.26 7.60059 14.3961 7.06968 14.8077 6.82612C15.9858 6.12913 17.2578 5.57363 18.5962 5.16601C18.8125 2.65867 20.9216 0.683594 23.4846 0.683594C25.968 0.683594 28.0253 2.53841 28.3473 4.93525C29.4364 5.1805 30.4015 5.44359 30.95 5.60024C32.888 4.00616 35.7106 3.94654 37.7214 5.52377L40.8496 7.97788C41.0413 8.12813 41.1606 8.35215 41.1788 8.59503C41.1966 8.83758 41.1117 9.0771 40.9443 9.25395L38.6229 11.7084C39.4806 13.1677 39.9963 14.7611 40.1365 16.3815L43.5961 17.1273C43.8205 17.1755 44.0166 17.3113 44.1409 17.5043C44.2655 17.6973 44.3083 17.9318 44.2598 18.1561L43.7646 20.4533C43.4008 22.1417 42.4009 23.5875 40.9493 24.524C39.6359 25.3716 38.095 25.7105 36.5623 25.4972C35.6696 26.3798 34.6407 27.16 33.4934 27.8244V33.0745C33.4934 33.5525 33.1056 33.9403 32.6276 33.9403H31.4283C29.0918 33.9403 27.1359 32.2802 26.6778 30.0777C25.8646 30.1798 25.0396 30.2313 24.2156 30.2313C22.9486 30.2313 21.6937 30.111 20.4722 29.8732V33.0745C20.4722 33.5525 20.0848 33.9403 19.6065 33.9403H18.4076C15.7321 33.9403 13.5556 31.7637 13.5556 29.0883V26.9263C10.3991 24.6305 8.5106 21.4295 8.27951 18.0022H8.06324C5.98608 18.0022 4.16967 16.8632 3.20622 15.1768H2.84947C2.08443 15.1768 1.34129 15.0199 0.640938 14.7106C0.203342 14.5176 0.00559998 14.0065 0.198627 13.5689ZM23.4842 2.41512C21.7328 2.41512 20.3079 3.84008 20.3079 5.59148C20.3079 6.22076 20.4941 6.82982 20.8394 7.34793C22.1967 7.08079 23.594 7.01409 24.9718 7.12694C25.3754 7.15996 25.7773 7.20914 26.1765 7.2755C26.4911 6.77323 26.6606 6.1901 26.6606 5.59148C26.6606 3.84008 25.2356 2.41512 23.4842 2.41512ZM4.34518 13.445H5.23991C5.81091 13.445 6.27546 12.9804 6.27546 12.4094C6.27546 11.8384 5.81091 11.3742 5.23991 11.3742C4.66891 11.3742 4.20437 11.8391 4.20437 12.4108C4.20437 12.7689 4.25355 13.1159 4.34518 13.445Z" fill="#1E7243"/>
<path d="M34.5754 15.1164C34.8887 14.9069 35.3138 14.9285 35.6052 15.1676C35.8723 15.3866 35.9855 15.7575 35.8841 16.088C35.7763 16.4387 35.4516 16.6893 35.0844 16.7021C34.7219 16.7149 34.3854 16.4895 34.2516 16.1543C34.1021 15.7794 34.2412 15.3404 34.5754 15.1164Z" fill="#1E7243"/>
<path d="M13.3062 10.0034C13.1674 10.3362 12.8265 10.5558 12.4647 10.537C12.1086 10.5185 11.7923 10.2769 11.6828 9.93701C11.572 9.5934 11.6936 9.20532 11.9803 8.98568C12.2713 8.76233 12.6823 8.74919 12.9875 8.95232C13.3271 9.17803 13.4632 9.62708 13.3062 10.0034Z" fill="#1E7243"/>
</svg>
