<svg width="35" height="33" viewBox="0 0 35 33" fill="none" xmlns="http://www.w3.org/2000/svg">
<path d="M31.6487 13.6761C31.163 13.533 30.7949 13.1748 30.6384 12.6933C30.4819 12.2119 30.5693 11.7057 30.8781 11.3045C31.8281 10.0701 31.8505 8.4581 30.9349 7.19796C30.0192 5.93769 28.4792 5.46086 27.0117 5.98293C26.5348 6.15266 26.0263 6.07932 25.6167 5.78171C25.2072 5.48423 24.9803 5.02331 24.9943 4.51722C25.0374 2.96012 24.1079 1.64285 22.6265 1.16149C21.145 0.680384 19.6189 1.19953 18.7385 2.48453C18.4524 2.90209 17.998 3.14167 17.4917 3.14167C16.9854 3.14167 16.531 2.90215 16.2449 2.48453C15.3645 1.1994 13.8383 0.68006 12.3569 1.16149C10.8754 1.64285 9.9459 2.96012 9.98906 4.51722C10.0031 5.02325 9.77616 5.48417 9.36665 5.78171C8.95708 6.07925 8.44858 6.15266 7.97169 5.98299C6.50397 5.46073 4.96414 5.93769 4.04853 7.19796C3.13286 8.45817 3.15519 10.0701 4.10532 11.3046C4.41416 11.7056 4.50153 12.2119 4.34503 12.6933C4.1886 13.1748 3.82037 13.5331 3.33473 13.6761C1.84052 14.1163 0.875 15.4072 0.875 16.9649C0.875 18.5227 1.84052 19.8136 3.33473 20.2538C3.82037 20.3969 4.18854 20.755 4.34503 21.2365C4.50146 21.718 4.4141 22.2242 4.10532 22.6254C3.15525 23.8598 3.13292 25.4718 4.04853 26.7319C4.96414 27.9922 6.5041 28.4689 7.97169 27.947C8.44858 27.7772 8.95714 27.8506 9.36665 28.1482C9.77616 28.4456 10.0031 28.9066 9.98906 29.4127C9.94596 30.9698 10.8755 32.287 12.3569 32.7684C12.7239 32.8876 13.0936 32.9455 13.4556 32.9455C14.5548 32.9454 15.5826 32.412 16.2449 31.4453C16.531 31.0277 16.9855 30.7881 17.4918 30.7881C17.9981 30.7881 18.4525 31.0277 18.7386 31.4453C19.6189 32.7303 21.1451 33.2496 22.6266 32.7683C24.1081 32.287 25.0376 30.9697 24.9944 29.4126C24.9804 28.9066 25.2073 28.4456 25.6168 28.1481C26.0263 27.8506 26.5348 27.777 27.0118 27.9468C28.4794 28.4689 30.0193 27.9921 30.9349 26.7319C31.8506 25.4716 31.8283 23.8597 30.8781 22.6253C30.5693 22.2242 30.4819 21.7179 30.6384 21.2365C30.7949 20.755 31.1631 20.3967 31.6487 20.2537C33.1429 19.8136 34.1084 18.5227 34.1084 16.9649C34.1084 15.4072 33.1429 14.1163 31.6487 13.6761ZM31.1068 18.4147C30.0213 18.7345 29.1646 19.5679 28.8149 20.6441C28.4653 21.7203 28.6686 22.8981 29.3587 23.7949C29.8671 24.4553 29.705 25.163 29.3838 25.605C29.0626 26.0471 28.4396 26.42 27.6544 26.1405C26.5883 25.7613 25.4052 25.9319 24.4898 26.5971C23.5743 27.2623 23.0465 28.3347 23.0778 29.4658C23.1008 30.2988 22.5538 30.7761 22.034 30.945C21.5144 31.1139 20.7912 31.0493 20.3202 30.3618C19.6807 29.4283 18.6233 28.8709 17.4917 28.8709C16.3601 28.8709 15.3027 29.4283 14.6632 30.3618C14.1921 31.0493 13.469 31.1137 12.9494 30.945C12.4297 30.7761 11.8826 30.2989 11.9056 29.4658C11.9369 28.3346 11.4091 27.2622 10.4936 26.5971C9.89949 26.1655 9.19276 25.9421 8.47837 25.9421C8.09197 25.9421 7.70323 26.0074 7.32896 26.1406C6.54369 26.42 5.92083 26.0471 5.59966 25.605C5.27842 25.1629 5.11635 24.4553 5.62471 23.7949C6.31489 22.8982 6.51819 21.7203 6.16852 20.6441C5.81886 19.5679 4.96206 18.7345 3.87659 18.4147C3.07717 18.1792 2.79228 17.5113 2.79228 16.9649C2.79228 16.4185 3.0771 15.7507 3.87659 15.5152C4.96206 15.1954 5.81879 14.362 6.16846 13.2858C6.51812 12.2096 6.31483 11.0317 5.62465 10.135C5.11628 9.47458 5.27842 8.76687 5.59959 8.32484C5.92076 7.88275 6.54369 7.50985 7.32896 7.78934C8.39509 8.16861 9.57819 7.99803 10.4936 7.33277C11.4091 6.66765 11.9369 5.59523 11.9056 4.46412C11.8826 3.63108 12.4296 3.15374 12.9494 2.98491C13.469 2.81589 14.1922 2.8806 14.6632 3.56812C15.3026 4.5017 16.3601 5.05908 17.4916 5.05908C18.6232 5.05908 19.6806 4.5017 20.3202 3.56825C20.7913 2.88073 21.5144 2.81621 22.034 2.98504C22.5536 3.15387 23.1007 3.63108 23.0778 4.46425C23.0465 5.59542 23.5743 6.66785 24.4897 7.3329C25.4052 7.99796 26.5881 8.1688 27.6544 7.78941C28.4394 7.50997 29.0625 7.88288 29.3837 8.32497C29.705 8.76707 29.867 9.4747 29.3587 10.1351C28.6685 11.0318 28.4652 12.2097 28.8149 13.2859C29.1645 14.3621 30.0213 15.1955 31.1068 15.5153C31.9062 15.7507 32.191 16.4185 32.191 16.9649C32.1911 17.5113 31.9062 18.1792 31.1068 18.4147Z" fill="#1E7243"/>
<path d="M24.5063 11.7621C24.1043 11.4175 23.499 11.4641 23.1545 11.8661L16.0697 20.1315L11.6755 16.8358C11.252 16.5182 10.6511 16.6041 10.3334 17.0275C10.0157 17.4511 10.1016 18.0519 10.5251 18.3697L15.638 22.2043C15.81 22.3333 16.012 22.396 16.2127 22.396C16.4836 22.396 16.7521 22.2816 16.941 22.0613L24.6103 13.1139C24.9548 12.7118 24.9083 12.1066 24.5063 11.7621Z" fill="#1E7243"/>
</svg>
