<svg width="40" height="35" viewBox="0 0 40 35" fill="none" xmlns="http://www.w3.org/2000/svg">
<path d="M26.0645 21.3319C25.7685 21.0352 25.2871 21.0352 24.9911 21.3319C24.6944 21.628 24.6944 22.1093 24.9911 22.4053C25.2871 22.702 25.7685 22.702 26.0645 22.4053C26.3613 22.1092 26.3613 21.628 26.0645 21.3319Z" fill="#1E7243"/>
<path d="M36.9422 2.60119C36.6458 2.30481 36.1651 2.30481 35.8687 2.60119L34.1744 4.29546C33.8781 4.59184 33.8781 5.07256 34.1744 5.36894C34.3227 5.51721 34.5169 5.5913 34.7112 5.5913C34.9054 5.5913 35.0997 5.51713 35.2479 5.36894L36.9422 3.67468C37.2386 3.37829 37.2386 2.89765 36.9422 2.60119Z" fill="#1E7243"/>
<path d="M31.5999 0.5C31.1807 0.5 30.8408 0.839809 30.8408 1.2591V4.11021C30.8408 4.52943 31.1806 4.86931 31.5999 4.86931C32.0191 4.86931 32.359 4.5295 32.359 4.11021V1.2591C32.359 0.839809 32.0191 0.5 31.5999 0.5Z" fill="#1E7243"/>
<path d="M38.3602 7.21875H35.5091C35.0899 7.21875 34.75 7.55856 34.75 7.97785C34.75 8.39707 35.0898 8.73696 35.5091 8.73696H38.3602C38.7794 8.73696 39.1193 8.39715 39.1193 7.97785C39.1193 7.55856 38.7795 7.21875 38.3602 7.21875Z" fill="#1E7243"/>
<path d="M33.1022 6.44272C32.8062 6.14596 32.3254 6.14535 32.0287 6.44128C31.8844 6.58522 31.6933 6.66455 31.4907 6.66455C31.2881 6.66455 31.0976 6.58552 30.9541 6.44196C30.0663 5.55425 28.6216 5.55418 27.7337 6.44211L27.1969 6.97931L26.1233 5.9053C25.6932 5.47522 25.1214 5.23828 24.5132 5.23828C23.905 5.23828 23.3332 5.47515 22.9031 5.90522L21.4921 7.31624C19.4419 6.25741 17.1762 5.69888 14.9002 5.69888C11.0479 5.69888 7.38569 7.23948 4.58819 10.037C1.79061 12.8346 0.25 16.4967 0.25 20.3491C0.25 24.2015 1.79061 27.8636 4.58811 30.6611C7.38561 33.4586 11.0478 34.9992 14.9001 34.9992C18.7524 34.9992 22.4147 33.4586 25.2122 30.6611C28.0097 27.8636 29.5503 24.2014 29.5503 20.3491C29.5503 18.0731 28.9917 15.8074 27.9328 13.7574L29.3439 12.3463C29.7739 11.9162 30.0108 11.3444 30.0108 10.7363C30.0108 10.1281 29.7739 9.55628 29.3439 9.12628L28.2704 8.05279L28.8073 7.51567C29.103 7.21982 29.5845 7.21974 29.8804 7.51567C30.3106 7.94582 30.8824 8.18284 31.4904 8.18284C32.0979 8.18284 32.6697 7.94613 33.1006 7.51636C33.3975 7.22027 33.3981 6.73964 33.1022 6.44272ZM28.0321 20.3491C28.0321 27.4674 22.0184 33.4811 14.9001 33.4811C7.78183 33.4811 1.76806 27.4674 1.76806 20.3491C1.76806 13.2308 7.78183 7.21709 14.9002 7.21709C17.116 7.21709 19.3235 7.8091 21.2842 8.92919C23.3816 10.1263 25.123 11.8678 26.3201 13.9651C26.3201 13.9651 26.3202 13.9652 26.3202 13.9653C27.4401 15.9258 28.0321 18.1333 28.0321 20.3491ZM28.4927 10.7361C28.4927 10.9388 28.4138 11.1294 28.2704 11.2727L27.1406 12.4025C26.0166 10.6947 24.5543 9.23248 22.8467 8.10859L23.9765 6.97886C24.1199 6.83545 24.3104 6.75649 24.5131 6.75649C24.7158 6.75649 24.9063 6.83545 25.0495 6.9787L26.6595 8.58946C26.662 8.59196 26.6648 8.59401 26.6673 8.59644L28.2704 10.1996C28.4138 10.3429 28.4927 10.5334 28.4927 10.7361Z" fill="#1E7243"/>
<path d="M24.7603 24.3842C24.3848 24.1976 23.9294 24.3507 23.7427 24.7259C22.0589 28.1126 18.6704 30.2165 14.8997 30.2165C14.4805 30.2165 14.1406 30.5563 14.1406 30.9756C14.1406 31.3948 14.4805 31.7347 14.8998 31.7347C17.0573 31.7347 19.159 31.1258 20.9773 29.9739C22.7456 28.8536 24.172 27.2727 25.1021 25.4019C25.2887 25.0266 25.1357 24.5709 24.7603 24.3842Z" fill="#1E7243"/>
</svg>
