<svg width="32" height="33" viewBox="0 0 32 33" fill="none" xmlns="http://www.w3.org/2000/svg">
<path d="M28.7987 8.13966H25.0834C25.6579 7.37618 25.9989 6.42761 25.9989 5.40076C25.9989 2.88372 23.9511 0.835938 21.4341 0.835938C19.9179 0.835938 18.7999 1.37915 17.9156 2.54543C17.1758 3.52121 16.6348 4.8836 15.9563 6.60497C15.2778 4.88354 14.7368 3.52121 13.997 2.54543C13.1127 1.37915 11.9947 0.835938 10.4785 0.835938C7.96144 0.835938 5.91366 2.88372 5.91366 5.40076C5.91366 6.42761 6.25468 7.37618 6.82912 8.13966H3.1139C1.60367 8.13966 0.375 9.36833 0.375 10.8786V12.7045C0.375 13.8947 1.1383 14.9095 2.20093 15.2864V29.2596C2.20093 30.7698 3.4296 31.9985 4.93983 31.9985H26.9727C28.483 31.9985 29.7116 30.7698 29.7116 29.2596V15.2864C30.7743 14.9095 31.5375 13.8947 31.5375 12.7045V10.8786C31.5375 9.36833 30.3089 8.13966 28.7987 8.13966ZM17.6321 7.3326C19.0307 3.78433 19.5624 2.66187 21.4341 2.66187C22.9443 2.66187 24.173 3.89054 24.173 5.40076C24.173 6.91099 22.9443 8.13966 21.4341 8.13966H17.3128C17.4246 7.85877 17.5313 7.58835 17.6321 7.3326ZM10.4785 2.66187C12.3501 2.66187 12.8818 3.78433 14.2804 7.3326C14.3812 7.58835 14.4879 7.85877 14.5998 8.13966H10.4785C8.96826 8.13966 7.73959 6.91099 7.73959 5.40076C7.73959 3.89054 8.96826 2.66187 10.4785 2.66187ZM12.3044 30.1726H4.93983C4.43642 30.1726 4.02686 29.763 4.02686 29.2596V15.4434H12.3044V30.1726ZM12.3044 13.6175H3.1139C2.61049 13.6175 2.20093 13.2079 2.20093 12.7045V10.8786C2.20093 10.3751 2.61049 9.96559 3.1139 9.96559H12.3044V13.6175ZM17.7822 30.1726H14.1303V9.96559C14.3216 9.96559 16.7329 9.96559 17.7822 9.96559V30.1726ZM27.8857 29.2596C27.8857 29.763 27.4761 30.1726 26.9727 30.1726H19.6081V15.4434H27.8857V29.2596ZM29.7116 12.7045C29.7116 13.2079 29.3021 13.6175 28.7987 13.6175H19.6081V9.96559H28.7987C29.3021 9.96559 29.7116 10.3751 29.7116 10.8786V12.7045Z" fill="#1E7243" stroke="#EBF1EE" stroke-width="0.1"/>
</svg>
