<svg width="25" height="25" viewBox="0 0 25 25" fill="none" xmlns="http://www.w3.org/2000/svg">
<path d="M23.6365 12.8693C23.1171 12.8693 22.696 12.4482 22.696 11.9288C22.696 6.74286 18.477 2.52378 13.291 2.52378C12.7716 2.52378 12.3505 2.10272 12.3505 1.58328C12.3505 1.06385 12.7716 0.642785 13.291 0.642785C19.3574 0.517464 24.7024 5.86241 24.5769 11.9289C24.577 12.4482 24.156 12.8693 23.6365 12.8693ZM17.053 11.9288C17.053 9.85441 15.3654 8.16678 13.291 8.16678C12.7716 8.16678 12.3505 8.58784 12.3505 9.10728C12.3505 9.62672 12.7716 10.0478 13.291 10.0478C14.3282 10.0478 15.172 10.8916 15.172 11.9288C15.172 12.4482 15.5931 12.8693 16.1125 12.8693C16.632 12.8693 17.053 12.4482 17.053 11.9288ZM20.815 11.9288C20.815 7.78005 17.4398 4.40478 13.291 4.40478C12.7716 4.40478 12.3505 4.82584 12.3505 5.34528C12.3505 5.86472 12.7716 6.28578 13.291 6.28578C16.4026 6.28578 18.934 8.81723 18.934 11.9288C18.934 12.4482 19.3551 12.8693 19.8745 12.8693C20.394 12.8693 20.815 12.4482 20.815 11.9288ZM17.0735 24.7198C17.3157 24.7144 17.5464 24.6158 17.7177 24.4446L21.1035 21.0588C21.4708 20.6915 21.4708 20.096 21.1035 19.7287L15.9896 14.6147C15.6223 14.2474 15.0267 14.2474 14.6595 14.6147L13.384 15.8903C12.1081 15.2769 9.91963 13.0804 9.32623 11.8069L10.5889 10.5442C10.9532 10.194 10.9532 9.56436 10.5889 9.21417L5.44417 4.06935C5.07686 3.70204 4.48138 3.70204 4.11412 4.06935L0.775348 7.40812C0.602861 7.58061 0.504108 7.81339 0.500017 8.0573C0.485439 14.9507 9.834 24.634 17.0319 24.7202C17.0519 24.7202 17.0659 24.7199 17.0735 24.7198ZM4.77915 6.06448L8.59386 9.87919L7.54689 10.9262C7.3097 11.1634 7.21678 11.509 7.30307 11.8332C7.79688 13.8191 11.4054 17.4227 13.3525 17.9164C13.677 18.0036 14.0236 17.9108 14.2614 17.6731L15.3245 16.6099L19.1084 20.3938L16.6819 22.8202C11.4659 22.5147 3.07727 15.2634 2.40284 8.44075L4.77915 6.06448Z" fill="#C9D200"/>
</svg>
