<svg width="21" height="28" viewBox="0 0 21 28" fill="none" xmlns="http://www.w3.org/2000/svg">
<path d="M17.3029 18.1999C16.9502 17.5596 16.4332 17.1292 15.8079 16.9616C15.1876 16.7954 14.521 16.9033 13.8752 17.2761L11.8561 18.4376C11.7439 18.3318 11.6304 18.2311 11.5219 18.1318C11.3647 17.9924 11.2162 17.8607 11.0943 17.7308C9.85566 16.3828 8.83022 14.7839 7.95754 12.8368C7.5407 11.8712 7.29682 11.087 7.17163 10.3238C7.68646 10.0564 8.1751 9.76576 8.64959 9.48755C8.82862 9.38419 9.00899 9.27579 9.18802 9.17243C10.5307 8.39722 10.8982 7.02562 10.123 5.68292L9.11526 3.9374C9.00082 3.73919 8.8827 3.53459 8.77466 3.33269C8.55587 2.93898 8.32466 2.53112 8.07796 2.14074C7.71853 1.52558 7.2025 1.11167 6.58729 0.946827C5.97209 0.781984 5.30815 0.87972 4.67417 1.2287C4.66778 1.23239 4.66778 1.23239 4.66138 1.23608L2.48343 2.50631C1.66502 2.97882 1.08612 3.66684 0.76088 4.55794C0.245314 5.99796 0.311463 7.48576 0.403768 8.47253C0.630214 10.8951 1.30331 13.2643 2.5373 15.9406C4.03931 19.1697 6.13875 21.9644 8.78123 24.2452C9.79376 25.1056 11.1676 26.1709 12.8675 26.7453C12.972 26.7787 13.0816 26.8135 13.1824 26.8405C14.3473 27.1527 15.4377 26.9962 16.4271 26.3696C16.4349 26.3609 16.4463 26.3585 16.4541 26.3498C16.8014 26.1024 17.181 25.896 17.5811 25.6735C17.8533 25.5249 18.1333 25.3675 18.4109 25.1987C19.0493 24.813 19.4737 24.2782 19.6399 23.6579C19.8074 23.0327 19.701 22.361 19.3268 21.7202L17.3029 18.1999ZM17.6853 23.9936C17.6803 23.9922 17.6789 23.9973 17.6853 23.9936C17.4319 24.1527 17.1789 24.2902 16.9053 24.4439C16.4937 24.6687 16.0731 24.9073 15.6618 25.1917C15.0066 25.5998 14.3376 25.6962 13.551 25.4854C13.4753 25.4652 13.3946 25.4435 13.3203 25.4182C11.8483 24.9211 10.6133 23.9632 9.70325 23.1843C7.21933 21.0379 5.23874 18.4048 3.82226 15.3607C2.65805 12.8274 2.02177 10.6031 1.81161 8.34172C1.67909 6.96044 1.76976 5.93623 2.09267 5.03369C2.30118 4.45721 2.65917 4.02888 3.18985 3.72249L5.37015 2.46369C5.67939 2.29794 5.97539 2.24213 6.23256 2.31104C6.55025 2.39617 6.75608 2.6567 6.87421 2.8613C6.8779 2.86769 6.88159 2.87409 6.88528 2.88048C7.11586 3.25033 7.32862 3.62622 7.5511 4.02633C7.66418 4.22958 7.78231 4.43418 7.89908 4.64383L8.90686 6.38934C9.29815 7.06708 9.16574 7.56126 8.48799 7.95256C8.30257 8.05961 8.12219 8.16801 7.93812 8.27002C7.39834 8.59019 6.88684 8.88551 6.34273 9.16129C6.32995 9.16867 6.31851 9.17101 6.31076 9.17974C5.7609 9.49721 5.72808 9.94241 5.74183 10.2542C5.74282 10.2706 5.74381 10.2871 5.7448 10.3036C5.87042 11.2669 6.1558 12.2189 6.6615 13.3975L6.6652 13.4039C7.59757 15.4913 8.70692 17.2208 10.0513 18.6782C10.2229 18.8647 10.4064 19.0274 10.581 19.1823C10.7382 19.3217 10.8867 19.4533 11.0086 19.5833C11.0261 19.5988 11.0422 19.6193 11.0597 19.6348C11.2082 19.7665 11.3587 19.85 11.5251 19.8946C11.9437 20.0068 12.2762 19.8148 12.3849 19.7521L14.5715 18.4896C14.7889 18.3641 15.1166 18.2303 15.4343 18.3154C15.747 18.3992 15.9514 18.6647 16.0618 18.8781C16.0655 18.8845 16.0655 18.8845 16.0692 18.8909L18.1032 22.4139C18.4848 23.0674 18.3429 23.5969 17.6853 23.9936Z" fill="#C9D200" stroke="#C9D200" stroke-width="0.6"/>
</svg>
