<svg width="51" height="51" viewBox="0 0 51 51" xmlns="http://www.w3.org/2000/svg">
<path d="M49.793 25.3906C49.793 38.6925 39.0948 49.3906 25.793 49.3906C12.4911 49.3906 1.79297 38.6925 1.79297 25.3906C1.79297 12.0887 12.4911 1.39062 25.793 1.39062C39.0948 1.39062 49.793 12.0887 49.793 25.3906Z" stroke="#C9D200" stroke-width="2"/>
<path fill-rule="evenodd" clip-rule="evenodd" d="M24.012 33.2969H25.6058C25.6058 33.2969 26.0745 33.2031 26.3558 33.0156C26.5433 32.7344 26.5433 32.3594 26.5433 32.3594C26.5433 32.3594 26.5433 30.2969 27.4808 29.9219C28.4183 29.6406 29.637 31.9844 30.9495 32.8281C31.9808 33.4844 32.7308 33.3906 32.7308 33.3906L36.1995 33.2969C36.1995 33.2969 38.0745 33.2031 37.137 31.7031C37.0433 31.6094 36.6683 30.6719 34.512 28.7031C32.3558 26.6406 32.637 27.0156 35.262 23.4531C36.8558 21.2969 37.512 19.9844 37.3245 19.4219C37.137 18.8594 35.9183 19.0469 35.9183 19.0469H31.9808C31.9808 19.0469 31.6995 19.0469 31.512 19.1406C31.3245 19.2344 31.137 19.6094 31.137 19.6094C31.137 19.6094 30.4808 21.2969 29.637 22.7031C27.8558 25.7031 27.1995 25.8906 26.9183 25.7031C26.262 25.2344 26.4495 23.9219 26.4495 23.0781C26.4495 20.1719 26.9183 18.9531 25.6058 18.6719C25.137 18.5781 24.8558 18.4844 23.7308 18.4844C22.3245 18.4844 21.1058 18.4844 20.4495 18.8594C19.9808 19.0469 19.6995 19.6094 19.887 19.6094C20.1683 19.6094 20.7308 19.7969 21.012 20.1719C21.387 20.7344 21.387 21.9531 21.387 21.9531C21.387 21.9531 21.5745 25.3281 20.8245 25.7969C20.262 26.0781 19.6058 25.5156 18.012 22.7969C17.1683 21.3906 16.6058 19.8906 16.6058 19.8906C16.6058 19.8906 16.512 19.6094 16.3245 19.4219C16.0433 19.2344 15.762 19.1406 15.762 19.1406H12.012C12.012 19.1406 11.4495 19.1406 11.262 19.4219C11.0745 19.6094 11.262 20.0781 11.262 20.0781C11.262 20.0781 14.1683 26.9219 17.5433 30.3906C20.5433 33.5781 24.012 33.2969 24.012 33.2969Z" fill="white"/>
</svg>
