<svg width="24" height="14" viewBox="0 0 24 14" fill="none" xmlns="http://www.w3.org/2000/svg">
<path d="M23.5322 12.2511C23.5322 12.1577 23.4388 12.1577 23.4388 12.0643C23.0652 11.3171 22.2246 10.3831 21.1038 9.35571C20.5434 8.8887 20.2632 8.51509 20.0764 8.32829C19.7962 7.95469 19.7962 7.67449 19.8896 7.30089C19.983 7.02069 20.3566 6.55367 21.0104 5.71307C21.384 5.24606 21.5708 4.96587 21.851 4.68567C23.252 2.81765 23.9058 1.60343 23.719 1.04303L23.6256 0.949633C23.5322 0.856232 23.4388 0.762834 23.252 0.762834C23.0652 0.669433 22.785 0.669433 22.5048 0.762834H18.9556C18.8622 0.762834 18.8621 0.762834 18.6753 0.762834C18.5819 0.762834 18.4886 0.762834 18.4886 0.762834H18.3952H18.3017L18.2083 0.856227C18.1149 0.949627 18.1149 0.949624 18.1149 1.04303C17.7413 2.07043 17.2743 2.91104 16.8073 3.84505C16.5271 4.31205 16.2469 4.77907 15.9667 5.15267C15.6865 5.52627 15.4997 5.80647 15.3129 5.99327C15.1261 6.18007 14.9393 6.27347 14.8459 6.46027C14.7525 6.55368 14.5657 6.64708 14.5657 6.55368C14.4723 6.55368 14.3789 6.55368 14.3789 6.46027C14.2855 6.36687 14.1921 6.27347 14.0987 6.18007C14.0053 6.08667 14.0053 5.89987 13.9119 5.71307C13.9119 5.52626 13.9119 5.33946 13.9119 5.24606C13.9119 5.15266 13.9119 4.87247 13.9119 4.68567C13.9119 4.40546 13.9119 4.21866 13.9119 4.12525C13.9119 3.84505 13.9119 3.47146 13.9119 3.09785C13.9119 2.72425 13.9119 2.44404 13.9119 2.25724C13.9119 2.07044 13.9119 1.79024 13.9119 1.60344C13.9119 1.32323 13.9119 1.13643 13.9119 1.04303C13.9119 0.949624 13.8185 0.762829 13.8185 0.669428C13.7251 0.576027 13.6317 0.482623 13.5383 0.389223C13.4449 0.295822 13.2581 0.295825 13.1647 0.202424C12.6977 0.109023 12.1373 0.015625 11.4835 0.015625C9.98909 0.015625 8.96167 0.109029 8.58807 0.29583C8.40127 0.389231 8.21447 0.482626 8.12107 0.669428C7.93426 0.856229 7.93426 0.949633 8.02766 0.949633C8.49466 1.04303 8.86827 1.22983 9.05507 1.51003L9.14848 1.69684C9.24188 1.79024 9.24186 1.97704 9.33527 2.25724C9.42867 2.53744 9.42867 2.81764 9.42867 3.19125C9.42867 3.75165 9.42867 4.31206 9.42867 4.68567C9.42867 5.15267 9.33527 5.43286 9.33527 5.71307C9.33527 5.99327 9.24188 6.18008 9.14848 6.27348C9.05508 6.46028 9.05507 6.55368 8.96167 6.55368C8.96167 6.55368 8.96166 6.64707 8.86826 6.64707C8.77486 6.64707 8.68147 6.74048 8.49466 6.74048C8.40126 6.74048 8.21447 6.64708 8.12107 6.55368C7.93426 6.46028 7.74746 6.27348 7.65406 6.08668C7.46726 5.89988 7.28045 5.61966 7.09365 5.24606C6.90685 4.87246 6.62664 4.49886 6.43984 3.93846L6.25305 3.56486C6.15965 3.37806 5.97285 3.00445 5.78605 2.53744C5.59924 2.07044 5.41244 1.69684 5.22564 1.22984C5.13224 1.04304 5.03885 0.949627 4.94545 0.856227H4.85204C4.85204 0.856227 4.75863 0.762834 4.66523 0.762834C4.57182 0.762834 4.47844 0.669428 4.38503 0.669428H1.0226C0.648997 0.669428 0.462198 0.762826 0.368797 0.856227L0.275391 0.949633C0.275391 0.949633 0.275391 1.04303 0.275391 1.13643C0.275391 1.22983 0.275396 1.32323 0.368797 1.51003C0.835801 2.63084 1.3962 3.75165 1.95661 4.87246C2.51701 5.89987 3.07742 6.83388 3.45103 7.48769C3.91803 8.14149 4.29163 8.7953 4.75863 9.35571C5.22564 9.91611 5.50583 10.2897 5.59923 10.4765C5.78604 10.6633 5.87943 10.7567 5.97283 10.8501L6.25305 11.1303C6.43985 11.3171 6.72005 11.5973 7.09365 11.8775C7.46726 12.1577 7.93425 12.4379 8.40126 12.7181C8.86826 12.9983 9.42868 13.1851 9.98908 13.3719C10.6429 13.5587 11.2033 13.6521 11.7637 13.5587H13.1647C13.4449 13.5587 13.6317 13.4653 13.8185 13.2785L13.9119 13.1851C13.9119 13.0917 14.0053 13.0917 14.0053 12.9983C14.0053 12.9049 14.0053 12.8115 14.0053 12.6247C14.0053 12.2511 14.0053 11.9709 14.0987 11.6907C14.1921 11.4105 14.1921 11.2237 14.2855 11.0369C14.3789 10.8501 14.4723 10.7567 14.5657 10.6633C14.6591 10.5699 14.7525 10.4765 14.7525 10.4765H14.8459C15.0327 10.3831 15.3129 10.4765 15.4997 10.6633C15.7799 10.8501 16.0601 11.1303 16.2469 11.4105C16.4337 11.6907 16.7139 11.9709 17.0875 12.3445C17.4612 12.7181 17.7413 12.9983 17.9282 13.0917L18.2083 13.2785C18.3951 13.3719 18.582 13.4653 18.8622 13.5587C19.1424 13.6521 19.3291 13.6521 19.5159 13.6521L22.6916 13.5587C22.9718 13.5587 23.252 13.4653 23.4388 13.3719C23.6256 13.2785 23.719 13.1851 23.719 12.9983C23.719 12.9049 23.719 12.7181 23.719 12.6247C23.5322 12.4379 23.5322 12.3445 23.5322 12.2511Z" fill="#1E7243"/>
</svg>
