<svg width="45" height="45" viewBox="0 0 45 45" fill="none" xmlns="http://www.w3.org/2000/svg">
<circle cx="22.5" cy="22.5" r="22" stroke="#C7D0D9"/>
<path d="M33.5322 28.2511C33.5322 28.1577 33.4388 28.1577 33.4388 28.0643C33.0652 27.3171 32.2246 26.3831 31.1038 25.3557C30.5434 24.8887 30.2632 24.5151 30.0764 24.3283C29.7962 23.9547 29.7962 23.6745 29.8896 23.3009C29.983 23.0207 30.3566 22.5537 31.0104 21.7131C31.384 21.2461 31.5708 20.9659 31.851 20.6857C33.252 18.8176 33.9058 17.6034 33.719 17.043L33.6256 16.9496C33.5322 16.8562 33.4388 16.7628 33.252 16.7628C33.0652 16.6694 32.785 16.6694 32.5048 16.7628H28.9556C28.8622 16.7628 28.8621 16.7628 28.6753 16.7628C28.5819 16.7628 28.4886 16.7628 28.4886 16.7628H28.3952H28.3017L28.2083 16.8562C28.1149 16.9496 28.1149 16.9496 28.1149 17.043C27.7413 18.0704 27.2743 18.911 26.8073 19.845C26.5271 20.3121 26.2469 20.7791 25.9667 21.1527C25.6865 21.5263 25.4997 21.8065 25.3129 21.9933C25.1261 22.1801 24.9393 22.2735 24.8459 22.4603C24.7525 22.5537 24.5657 22.6471 24.5657 22.5537C24.4723 22.5537 24.3789 22.5537 24.3789 22.4603C24.2855 22.3669 24.1921 22.2735 24.0987 22.1801C24.0053 22.0867 24.0053 21.8999 23.9119 21.7131C23.9119 21.5263 23.9119 21.3395 23.9119 21.2461C23.9119 21.1527 23.9119 20.8725 23.9119 20.6857C23.9119 20.4055 23.9119 20.2187 23.9119 20.1253C23.9119 19.8451 23.9119 19.4715 23.9119 19.0979C23.9119 18.7243 23.9119 18.444 23.9119 18.2572C23.9119 18.0704 23.9119 17.7902 23.9119 17.6034C23.9119 17.3232 23.9119 17.1364 23.9119 17.043C23.9119 16.9496 23.8185 16.7628 23.8185 16.6694C23.7251 16.576 23.6317 16.4826 23.5383 16.3892C23.4449 16.2958 23.2581 16.2958 23.1647 16.2024C22.6977 16.109 22.1373 16.0156 21.4835 16.0156C19.9891 16.0156 18.9617 16.109 18.5881 16.2958C18.4013 16.3892 18.2145 16.4826 18.1211 16.6694C17.9343 16.8562 17.9343 16.9496 18.0277 16.9496C18.4947 17.043 18.8683 17.2298 19.0551 17.51L19.1485 17.6968C19.2419 17.7902 19.2419 17.977 19.3353 18.2572C19.4287 18.5374 19.4287 18.8176 19.4287 19.1912C19.4287 19.7517 19.4287 20.3121 19.4287 20.6857C19.4287 21.1527 19.3353 21.4329 19.3353 21.7131C19.3353 21.9933 19.2419 22.1801 19.1485 22.2735C19.0551 22.4603 19.0551 22.5537 18.9617 22.5537C18.9617 22.5537 18.9617 22.6471 18.8683 22.6471C18.7749 22.6471 18.6815 22.7405 18.4947 22.7405C18.4013 22.7405 18.2145 22.6471 18.1211 22.5537C17.9343 22.4603 17.7475 22.2735 17.6541 22.0867C17.4673 21.8999 17.2805 21.6197 17.0937 21.2461C16.9069 20.8725 16.6266 20.4989 16.4398 19.9385L16.2531 19.5649C16.1596 19.3781 15.9728 19.0044 15.786 18.5374C15.5992 18.0704 15.4124 17.6968 15.2256 17.2298C15.1322 17.043 15.0388 16.9496 14.9454 16.8562H14.852C14.852 16.8562 14.7586 16.7628 14.6652 16.7628C14.5718 16.7628 14.4784 16.6694 14.385 16.6694H11.0226C10.649 16.6694 10.4622 16.7628 10.3688 16.8562L10.2754 16.9496C10.2754 16.9496 10.2754 17.043 10.2754 17.1364C10.2754 17.2298 10.2754 17.3232 10.3688 17.51C10.8358 18.6308 11.3962 19.7517 11.9566 20.8725C12.517 21.8999 13.0774 22.8339 13.451 23.4877C13.918 24.1415 14.2916 24.7953 14.7586 25.3557C15.2256 25.9161 15.5058 26.2897 15.5992 26.4765C15.786 26.6633 15.8794 26.7567 15.9728 26.8501L16.2531 27.1303C16.4399 27.3171 16.72 27.5973 17.0937 27.8775C17.4673 28.1577 17.9343 28.4379 18.4013 28.7181C18.8683 28.9983 19.4287 29.1851 19.9891 29.3719C20.6429 29.5587 21.2033 29.6521 21.7637 29.5587H23.1647C23.4449 29.5587 23.6317 29.4653 23.8185 29.2785L23.9119 29.1851C23.9119 29.0917 24.0053 29.0917 24.0053 28.9983C24.0053 28.9049 24.0053 28.8115 24.0053 28.6247C24.0053 28.2511 24.0053 27.9709 24.0987 27.6907C24.1921 27.4105 24.1921 27.2237 24.2855 27.0369C24.3789 26.8501 24.4723 26.7567 24.5657 26.6633C24.6591 26.5699 24.7525 26.4765 24.7525 26.4765H24.8459C25.0327 26.3831 25.3129 26.4765 25.4997 26.6633C25.7799 26.8501 26.0601 27.1303 26.2469 27.4105C26.4337 27.6907 26.7139 27.9709 27.0875 28.3445C27.4612 28.7181 27.7413 28.9983 27.9282 29.0917L28.2083 29.2785C28.3951 29.3719 28.582 29.4653 28.8622 29.5587C29.1424 29.6521 29.3291 29.6521 29.5159 29.6521L32.6916 29.5587C32.9718 29.5587 33.252 29.4653 33.4388 29.3719C33.6256 29.2785 33.719 29.1851 33.719 28.9983C33.719 28.9049 33.719 28.7181 33.719 28.6247C33.5322 28.4379 33.5322 28.3445 33.5322 28.2511Z" fill="#1E7243"/>
</svg>
