<svg width="40" height="31" viewBox="0 0 40 31" fill="none" xmlns="http://www.w3.org/2000/svg">
<path d="M39.0258 8.06568L26.0922 0.96384C25.8669 0.840178 25.5938 0.840178 25.3685 0.96384L20.5049 3.63445C20.395 3.665 20.2925 3.7211 20.2055 3.79864L12.4349 8.06568C12.1943 8.19786 12.0448 8.45047 12.0448 8.72482V10.2622H3.36914C2.9538 10.2622 2.61719 10.5991 2.61719 11.0142C2.61719 11.4295 2.9538 11.7661 3.36914 11.7661H12.0448V14.4731H7.7337C7.31836 14.4731 6.98175 14.8101 6.98175 15.2251C6.98175 15.6404 7.31836 15.9771 7.7337 15.9771H12.0448V19.8872H5.72839C5.31306 19.8872 4.97644 20.2241 4.97644 20.6392C4.97644 21.0545 5.31306 21.3911 5.72839 21.3911H12.0448V22.9288C12.0448 23.2031 12.1943 23.4558 12.4349 23.5879L25.3685 30.6898C25.4813 30.7518 25.6058 30.7826 25.7303 30.7826C25.8549 30.7826 25.9794 30.7518 26.0922 30.6898L39.0258 23.5879C39.2664 23.4558 39.4159 23.2031 39.4159 22.9288V19.5615C39.4159 19.1464 39.0793 18.8095 38.6639 18.8095C38.2486 18.8095 37.912 19.1464 37.912 19.5615V22.4838L26.4823 28.76V16.2717L30.1172 14.2758V17.4434C30.1172 17.7095 30.2576 17.9556 30.4865 18.0907C30.6042 18.1604 30.7367 18.1953 30.8692 18.1953C30.9937 18.1953 31.1186 18.1645 31.2316 18.1022L34.0033 16.5769C34.2433 16.4447 34.3925 16.1924 34.3925 15.918V11.9283L37.912 9.9958V13.5458C37.912 13.9612 38.2486 14.2978 38.6639 14.2978C39.0793 14.2978 39.4159 13.9612 39.4159 13.5458V8.72482C39.4159 8.45047 39.2664 8.19786 39.0258 8.06568ZM24.9784 28.76L13.5487 22.4838V9.9958L24.9784 16.2717V28.76ZM25.7303 14.969L14.3591 8.72482L17.9329 6.7624L29.3045 13.0065L25.7303 14.969ZM30.8668 12.1486L19.4953 5.90441L20.7281 5.22765L32.0993 11.4718L30.8668 12.1486ZM32.8886 15.4736L31.6211 16.1712V13.4501L32.8886 12.7539V15.4736ZM33.6617 10.6138L22.2905 4.36966L25.7303 2.48096L37.1016 8.72482L33.6617 10.6138Z" fill="#1E7243"/>
<path d="M38.6641 15.8018C38.4664 15.8018 38.2722 15.8814 38.1324 16.0221C37.9926 16.1619 37.9121 16.3551 37.9121 16.5537C37.9121 16.7514 37.9926 16.9455 38.1324 17.0854C38.2722 17.2252 38.4664 17.3057 38.6641 17.3057C38.8617 17.3057 39.0559 17.2252 39.1957 17.0854C39.3355 16.9455 39.416 16.7514 39.416 16.5537C39.416 16.3551 39.3355 16.1619 39.1957 16.0221C39.0559 15.8814 38.8617 15.8018 38.6641 15.8018Z" fill="#1E7243"/>
<path d="M2.74567 19.8877H1.66797C1.25263 19.8877 0.916016 20.2246 0.916016 20.6396C0.916016 21.055 1.25263 21.3916 1.66797 21.3916H2.74567C3.16101 21.3916 3.49762 21.055 3.49762 20.6396C3.49762 20.2246 3.16101 19.8877 2.74567 19.8877Z" fill="#1E7243"/>
<path d="M5.47852 15.2256C5.47852 15.0279 5.39803 14.834 5.25792 14.6942C5.11811 14.5541 4.92424 14.4736 4.72656 14.4736C4.52859 14.4736 4.33472 14.5541 4.19491 14.6942C4.05421 14.834 3.97461 15.0279 3.97461 15.2256C3.97461 15.4236 4.05421 15.6174 4.19491 15.7572C4.33472 15.8971 4.52859 15.9775 4.72656 15.9775C4.92424 15.9775 5.11811 15.8973 5.25792 15.7572C5.39803 15.6174 5.47852 15.4236 5.47852 15.2256Z" fill="#1E7243"/>
</svg>

