<svg width="60" height="60" viewBox="0 0 60 60" fill="none" xmlns="http://www.w3.org/2000/svg">
<circle cx="30" cy="30" r="30" fill="#DEEDDD"/>
<g clip-path="url(#clip0)">
<path d="M42.6157 36.1016L39.5687 34.3424L42.2092 32.7853C42.6963 32.4981 42.8583 31.8705 42.5711 31.3835C42.2839 30.8966 41.6564 30.7346 41.1693 31.0216L37.5318 33.1664L32.0474 29.9999L37.5309 26.834L41.1694 28.9785C41.3325 29.0747 41.5116 29.1203 41.6882 29.1203C42.0388 29.1203 42.3801 28.9401 42.5711 28.6162C42.8582 28.1292 42.696 27.5016 42.209 27.2144L39.568 25.6579L42.6157 23.8983C43.1054 23.6156 43.2731 22.9895 42.9904 22.4998C42.7077 22.0101 42.0816 21.8423 41.592 22.1251L38.5449 23.8845L38.5172 20.8186C38.5122 20.2532 38.0483 19.7963 37.4843 19.8041C36.9189 19.8092 36.4647 20.2716 36.4699 20.837L36.5079 25.0604L31.0238 28.2268V21.8946L34.7007 19.8165C35.1929 19.5383 35.3664 18.9139 35.0882 18.4215C34.81 17.9293 34.1854 17.7557 33.6932 18.034L31.0238 19.5427V16.0237C31.0238 15.4584 30.5654 15 30.0001 15C29.4347 15 28.9763 15.4584 28.9763 16.0237V19.5427L26.3069 18.0341C25.8144 17.7558 25.1902 17.9293 24.9119 18.4216C24.6337 18.9139 24.8072 19.5385 25.2994 19.8167L28.9762 21.8947V28.2268L23.492 25.0604L23.5301 20.837C23.5353 20.2716 23.081 19.8092 22.5156 19.8041C22.5125 19.8041 22.5095 19.8041 22.5062 19.8041C21.9452 19.8041 21.4878 20.2563 21.4828 20.8187L21.455 23.8845L18.408 22.1251C17.9183 21.8423 17.2922 22.0102 17.0095 22.4998C16.7268 22.9895 16.8946 23.6156 17.3842 23.8983L20.4318 25.6579L17.7904 27.2147C17.3034 27.5017 17.1413 28.1293 17.4283 28.6165C17.6193 28.9404 17.9607 29.1206 18.3113 29.1206C18.488 29.1206 18.6669 29.0749 18.8302 28.9788L22.4691 26.8342L27.9527 30.0002L22.4681 33.1667L18.8302 31.0215C18.3434 30.7344 17.7155 30.8963 17.4283 31.3834C17.1411 31.8704 17.3031 32.498 17.7902 32.7851L20.4312 34.3423L17.3841 36.1015C16.8945 36.3841 16.7267 37.0103 17.0094 37.4999C17.199 37.8283 17.5431 38.0119 17.8969 38.0119C18.0705 38.0119 18.2466 37.9677 18.4078 37.8746L21.4549 36.1152L21.4826 39.1813C21.4877 39.7435 21.9451 40.1959 22.5061 40.1959C22.5092 40.1959 22.5124 40.1959 22.5155 40.1958C23.0809 40.1907 23.5352 39.7283 23.53 39.1629L23.4919 34.9393L28.9762 31.7729V38.1053L25.2994 40.1833C24.8072 40.4615 24.6337 41.086 24.9119 41.5784C25.1001 41.9114 25.447 42.0986 25.8041 42.0986C25.9747 42.0986 26.1478 42.0558 26.3069 41.9659L28.9763 40.4573V43.9763C28.9763 44.5416 29.4347 45 30.0001 45C30.5654 45 31.0238 44.5416 31.0238 43.9763V40.4573L33.6932 41.9659C33.8523 42.0558 34.0253 42.0986 34.196 42.0986C34.5531 42.0986 34.9 41.9114 35.0882 41.5784C35.3664 41.0861 35.1929 40.4615 34.7007 40.1833L31.0238 38.1053V31.7731L36.5079 34.9393L36.4689 39.1627C36.4636 39.7281 36.9177 40.1907 37.4831 40.1959C37.4864 40.196 37.4895 40.196 37.4928 40.196C38.0537 40.196 38.5111 39.7438 38.5163 39.1817L38.5446 36.1152L41.5921 37.8747C41.7533 37.9678 41.9294 38.012 42.1031 38.012C42.4569 38.012 42.801 37.8283 42.9906 37.5C43.2733 37.0104 43.1055 36.3843 42.6157 36.1016Z" fill="#1E7243" stroke="#1E7243" stroke-width="0.4"/>
</g>
<defs>
<clipPath id="clip0">
<rect width="30" height="30" fill="white" transform="translate(15 15)"/>
</clipPath>
</defs>
</svg>
