<svg width="51" height="51" viewBox="0 0 51 51" xmlns="http://www.w3.org/2000/svg">
<path d="M49.793 25.3906C49.793 38.6925 39.0948 49.3906 25.793 49.3906C12.4911 49.3906 1.79297 38.6925 1.79297 25.3906C1.79297 12.0887 12.4911 1.39062 25.793 1.39062C39.0948 1.39062 49.793 12.0887 49.793 25.3906Z" stroke="#C9D200" stroke-width="2"/>
<path d="M37.0117 20.1719C36.7305 18.8594 35.6992 17.9219 34.3867 17.8281C31.3867 17.4531 28.3867 17.4531 25.293 17.4531C22.293 17.4531 19.1992 17.4531 16.1992 17.8281C14.8867 18.0156 13.8555 18.9531 13.5742 20.1719C13.1055 22.0469 13.1055 24.0156 13.1055 25.8906C13.1055 27.7656 13.1055 29.7344 13.5742 31.6094C13.8555 32.9219 14.8867 33.8594 16.1992 33.9531C19.1992 34.3281 22.1992 34.3281 25.293 34.3281C28.293 34.3281 31.3867 34.3281 34.3867 33.9531C35.6992 33.7656 36.7305 32.8281 37.0117 31.6094C37.4805 29.7344 37.4805 27.7656 37.4805 25.8906C37.4805 24.0156 37.4805 22.0469 37.0117 20.1719ZM22.7617 29.1719V22.4219L29.2305 25.7969L22.7617 29.1719Z" fill="white"/>
</svg>
